SplineFontDB: 3.0
FontName: LilyScriptOne-Regular
FullName: Lily Script One
FamilyName: Lily Script One
Weight: Book
Copyright: Copyright (c) 2012, Julia Petretta (www.juliapetretta.com julia.petretta@googlemail.com), with Reserved Font Name 'Lily'
Version: 1.002;PS 001.001;hotconv 1.0.70;makeotf.lib2.5.58329
ItalicAngle: 0
UnderlinePosition: -50
UnderlineWidth: 50
Ascent: 800
Descent: 200
sfntRevision: 0x00010042
LayerCount: 2
Layer: 0 1 "Back"  1
Layer: 1 1 "Fore"  0
XUID: [1021 6 1665755487 12291027]
FSType: 0
OS2Version: 3
OS2_WeightWidthSlopeOnly: 0
OS2_UseTypoMetrics: 1
CreationTime: 1357905780
ModificationTime: 1369839317
PfmFamily: 17
TTFWeight: 400
TTFWidth: 5
LineGap: 0
VLineGap: 0
Panose: 2 0 5 0 0 0 0 0 0 0
OS2TypoAscent: 1017
OS2TypoAOffset: 0
OS2TypoDescent: -359
OS2TypoDOffset: 0
OS2TypoLinegap: 0
OS2WinAscent: 1017
OS2WinAOffset: 0
OS2WinDescent: 359
OS2WinDOffset: 0
HheadAscent: 1017
HheadAOffset: 0
HheadDescent: -359
HheadDOffset: 0
OS2SubXSize: 650
OS2SubYSize: 600
OS2SubXOff: 0
OS2SubYOff: 75
OS2SupXSize: 650
OS2SupYSize: 600
OS2SupXOff: 0
OS2SupYOff: 350
OS2StrikeYSize: 50
OS2StrikeYPos: 301
OS2Vendor: 'UKWN'
OS2CodePages: 20000001.00000000
OS2UnicodeRanges: 00000003.00000000.00000000.00000000
Lookup: 258 0 0 "'kern' Horizontal Kerning in Latin lookup 0"  {"'kern' Horizontal Kerning in Latin lookup 0 subtable"  } ['kern' ('DFLT' <'dflt' > 'latn' <'dflt' > ) ]
DEI: 91125
KernClass2: 11+ 6 "'kern' Horizontal Kerning in Latin lookup 0 subtable" 
 5 F I T
 1 P
 1 V
 1 W
 1 m
 1 o
 7 p thorn
 1 r
 3 six
 4 nine
 11 bracketleft
 53 A Agrave Aacute Acircumflex Atilde Adieresis Aring AE
 169 a b c d e g o q agrave aacute acircumflex atilde adieresis aring ae ccedilla egrave eacute ecircumflex edieresis eth ograve oacute ocircumflex otilde odieresis oslash oe
 5 F I T
 37 comma period semicolon quotesinglbase
 39 h u ugrave uacute ucircumflex udieresis

StartChar: .notdef
Encoding: 65536 -1 0
Width: 500
Flags: W
LayerCount: 2
Fore
SplineSet
500 700 m 1,0,-1
 500 0 l 1,1,-1
 0 0 l 1,2,-1
 0 700 l 1,3,-1
 500 700 l 1,0,-1
80 650 m 1,4,-1
 250 395 l 1,5,-1
 420 650 l 1,6,-1
 80 650 l 1,4,-1
220 350 m 1,7,-1
 50 605 l 1,8,-1
 50 95 l 1,9,-1
 220 350 l 1,7,-1
450 605 m 1,10,-1
 280 350 l 1,11,-1
 450 95 l 1,12,-1
 450 605 l 1,10,-1
250 305 m 1,13,-1
 80 50 l 1,14,-1
 420 50 l 1,15,-1
 250 305 l 1,13,-1
EndSplineSet
EndChar

StartChar: exclam
Encoding: 33 33 4
Width: 344
GlyphClass: 2
Flags: W
LayerCount: 2
Fore
SplineSet
156 831 m 1,0,1
 176 841 176 841 226 841 c 0,2,3
 324 841 324 841 324 795 c 0,4,5
 324 791 324 791 323 786 c 2,6,-1
 199 262 l 1,7,-1
 92 262 l 1,8,-1
 156 831 l 1,0,1
120 144 m 128,-1,10
 154 144 154 144 178 120 c 128,-1,11
 202 96 202 96 202 62 c 128,-1,12
 202 28 202 28 178 4.5 c 128,-1,13
 154 -19 154 -19 120 -19 c 128,-1,14
 86 -19 86 -19 62.5 4.5 c 128,-1,15
 39 28 39 28 39 62 c 128,-1,16
 39 96 39 96 62.5 120 c 128,-1,9
 86 144 86 144 120 144 c 128,-1,10
EndSplineSet
EndChar

StartChar: quotedbl
Encoding: 34 34 5
Width: 432
GlyphClass: 2
Flags: W
LayerCount: 2
Fore
SplineSet
69.5 767 m 128,-1,1
 93 791 93 791 128 791 c 128,-1,2
 163 791 163 791 188.5 769 c 128,-1,3
 214 747 214 747 214 703.5 c 128,-1,4
 214 660 214 660 170 602.5 c 128,-1,5
 126 545 126 545 84 511 c 0,6,7
 82 510 82 510 76 510 c 128,-1,8
 70 510 70 510 52 516 c 128,-1,9
 34 522 34 522 30 526 c 1,10,11
 77 580 77 580 112 630 c 1,12,13
 84 635 84 635 65 657.5 c 128,-1,14
 46 680 46 680 46 711.5 c 128,-1,0
 46 743 46 743 69.5 767 c 128,-1,1
257.5 767 m 128,-1,16
 281 791 281 791 316 791 c 128,-1,17
 351 791 351 791 376.5 769 c 128,-1,18
 402 747 402 747 402 703.5 c 128,-1,19
 402 660 402 660 358 602.5 c 128,-1,20
 314 545 314 545 272 511 c 0,21,22
 270 510 270 510 264 510 c 128,-1,23
 258 510 258 510 240 516 c 128,-1,24
 222 522 222 522 218 526 c 1,25,26
 265 580 265 580 300 630 c 1,27,28
 272 635 272 635 253 657.5 c 128,-1,29
 234 680 234 680 234 711.5 c 128,-1,15
 234 743 234 743 257.5 767 c 128,-1,16
EndSplineSet
EndChar

StartChar: numbersign
Encoding: 35 35 6
Width: 643
GlyphClass: 2
Flags: W
LayerCount: 2
Fore
SplineSet
533 283 m 1,0,-1
 522 207 l 1,1,-1
 385 207 l 1,2,-1
 298 -8 l 1,3,-1
 222 -8 l 1,4,-1
 309 207 l 1,5,-1
 193 207 l 1,6,-1
 106 -8 l 1,7,-1
 30 -8 l 1,8,-1
 117 207 l 1,9,-1
 15 207 l 1,10,-1
 24 283 l 1,11,-1
 148 283 l 1,12,-1
 207 427 l 1,13,-1
 95 427 l 1,14,-1
 104 503 l 1,15,-1
 238 503 l 1,16,-1
 318 701 l 1,17,-1
 394 701 l 1,18,-1
 314 503 l 1,19,-1
 430 503 l 1,20,-1
 510 701 l 1,21,-1
 586 701 l 1,22,-1
 506 503 l 1,23,-1
 623 503 l 1,24,-1
 612 427 l 1,25,-1
 475 427 l 1,26,-1
 416 283 l 1,27,-1
 533 283 l 1,0,-1
224 283 m 1,28,-1
 340 283 l 1,29,-1
 399 427 l 1,30,-1
 283 427 l 1,31,-1
 224 283 l 1,28,-1
EndSplineSet
EndChar

StartChar: dollar
Encoding: 36 36 7
Width: 488
GlyphClass: 2
Flags: W
LayerCount: 2
Fore
SplineSet
461 725 m 1,0,1
 520 681 520 681 520 600 c 0,2,3
 520 553 520 553 496 504 c 1,4,-1
 421 504 l 1,5,6
 445 544 445 544 445 587 c 0,7,8
 445 591 445 591 445 594 c 0,9,10
 445 621 445 621 426 643 c 1,11,-1
 342 445 l 1,12,13
 351 429 351 429 372.5 393.5 c 128,-1,14
 394 358 394 358 403 340.5 c 128,-1,15
 412 323 412 323 425 296 c 0,16,17
 450 242 450 242 450 186 c 0,18,19
 450 102 450 102 389.5 49 c 128,-1,20
 329 -4 329 -4 243 -4 c 0,21,22
 196 -4 196 -4 158 12 c 1,23,-1
 140 -30 l 1,24,-1
 75 -30 l 1,25,-1
 107 45 l 1,26,27
 47 100 47 100 47 186 c 0,28,29
 47 232 47 232 78 273 c 1,30,-1
 167 271 l 1,31,32
 135 230 135 230 135 197 c 128,-1,33
 135 164 135 164 147 139 c 1,34,-1
 238 354 l 1,35,36
 234 362 234 362 220.5 385.5 c 128,-1,37
 207 409 207 409 202.5 417 c 128,-1,38
 198 425 198 425 187.5 445.5 c 128,-1,39
 177 466 177 466 172.5 476 c 128,-1,40
 168 486 168 486 160.5 503 c 128,-1,41
 153 520 153 520 150 532 c 0,42,43
 141 568 141 568 141 591 c 0,44,45
 141 663 141 663 195.5 711.5 c 128,-1,46
 250 760 250 760 345 760 c 0,47,48
 377 760 377 760 407 752 c 1,49,-1
 411 761 l 1,50,-1
 476 761 l 1,51,-1
 461 725 l 1,0,1
356 673 m 0,52,53
 322 673 322 673 301 650.5 c 128,-1,54
 280 628 280 628 280 590.5 c 128,-1,55
 280 553 280 553 304 509 c 1,56,-1
 373 672 l 1,57,58
 368 673 368 673 356 673 c 0,52,53
228 84 m 0,59,60
 265 84 265 84 290.5 107 c 128,-1,61
 316 130 316 130 314 164 c 0,62,63
 312 214 312 214 274 286 c 1,64,-1
 192 93 l 1,65,66
 210 84 210 84 228 84 c 0,59,60
EndSplineSet
EndChar

StartChar: percent
Encoding: 37 37 8
Width: 858
GlyphClass: 2
Flags: W
LayerCount: 2
Fore
SplineSet
20 506 m 1,0,-1
 21 530 l 1,1,2
 32 639 32 639 84.5 700 c 128,-1,3
 137 761 137 761 223 761 c 0,4,5
 292 761 292 761 334.5 710 c 128,-1,6
 377 659 377 659 377 561 c 1,7,-1
 376 528 l 1,8,9
 364 430 364 430 312.5 368.5 c 128,-1,10
 261 307 261 307 186 307 c 0,11,12
 103 307 103 307 61.5 363 c 128,-1,13
 20 419 20 419 20 506 c 1,0,-1
640 761 m 1,14,-1
 723 761 l 1,15,-1
 165 -100 l 1,16,-1
 82 -100 l 1,17,-1
 640 761 l 1,14,-1
113 516 m 0,18,19
 112 510 112 510 112 492 c 128,-1,20
 112 474 112 474 114 454.5 c 128,-1,21
 116 435 116 435 122 412 c 0,22,23
 133 363 133 363 184 363 c 0,24,25
 222 363 222 363 249.5 409.5 c 128,-1,26
 277 456 277 456 284 547 c 0,27,28
 286 561 286 561 286 569 c 0,29,30
 286 704 286 704 220 705 c 0,31,32
 177 705 177 705 148 655 c 128,-1,33
 119 605 119 605 113 516 c 0,18,19
473 200 m 1,34,-1
 474 223 l 1,35,36
 486 332 486 332 538.5 393 c 128,-1,37
 591 454 591 454 678 454 c 0,38,39
 747 454 747 454 788.5 403 c 128,-1,40
 830 352 830 352 830 255 c 1,41,-1
 829 221 l 1,42,43
 819 123 819 123 767.5 61 c 128,-1,44
 716 -1 716 -1 642 -1 c 0,45,46
 635 -1 635 -1 628 0 c 0,47,48
 554 4 554 4 513.5 58 c 128,-1,49
 473 112 473 112 473 200 c 1,34,-1
565 193 m 0,50,51
 565 58 565 58 631 55 c 0,52,53
 633 55 633 55 636 55 c 0,54,55
 675 55 675 55 703 102 c 128,-1,56
 731 149 731 149 737 239 c 1,57,58
 740 260 740 260 740 262 c 0,59,60
 740 396 740 396 673 397 c 0,61,62
 630 397 630 397 601.5 347.5 c 128,-1,63
 573 298 573 298 566 209 c 0,64,65
 565 202 565 202 565 193 c 0,50,51
EndSplineSet
EndChar

StartChar: ampersand
Encoding: 38 38 9
Width: 657
GlyphClass: 2
Flags: W
LayerCount: 2
Fore
SplineSet
450 -13 m 0,0,1
 450 11 450 11 438 53 c 1,2,3
 349 -9 349 -9 250.5 -9 c 128,-1,4
 152 -9 152 -9 96 46.5 c 128,-1,5
 40 102 40 102 40 178 c 0,6,7
 40 260 40 260 93 322 c 0,8,9
 133 368 133 368 224 422 c 1,10,11
 177 513 177 513 177 585 c 128,-1,12
 177 657 177 657 231 710.5 c 128,-1,13
 285 764 285 764 381 764 c 0,14,15
 448 764 448 764 490.5 729 c 128,-1,16
 533 694 533 694 533 641 c 0,17,18
 533 540 533 540 389 423 c 1,19,20
 399 407 399 407 443 344 c 128,-1,21
 487 281 487 281 509 245 c 1,22,23
 529 286 529 286 529 320 c 0,24,25
 529 389 529 389 483 391 c 1,26,27
 483 398 483 398 488 414 c 128,-1,28
 493 430 493 430 500 440 c 128,-1,29
 507 450 507 450 522 458 c 128,-1,30
 537 466 537 466 556 466 c 0,31,32
 592 466 592 466 615.5 438.5 c 128,-1,33
 639 411 639 411 639 369 c 0,34,35
 639 354 639 354 636 338 c 0,36,37
 619 255 619 255 553 165 c 1,38,39
 591 81 591 81 591 20.5 c 128,-1,40
 591 -40 591 -40 572 -78 c 0,41,42
 539 -142 539 -142 456 -164 c 0,43,44
 428 -171 428 -171 400 -171 c 2,45,-1
 388 -171 l 1,46,-1
 388 -110 l 1,47,48
 450 -79 450 -79 450 -13 c 0,0,1
331.5 657.5 m 128,-1,50
 312 639 312 639 310 604 c 1,51,52
 310 560 310 560 347 491 c 1,53,54
 388 523 388 523 414 551 c 0,55,56
 444 585 444 585 444 613.5 c 128,-1,57
 444 642 444 642 429 658 c 0,58,59
 412 676 412 676 381.5 676 c 128,-1,49
 351 676 351 676 331.5 657.5 c 128,-1,50
181 200 m 1,60,-1
 180 188 l 1,61,62
 180 146 180 146 208 113.5 c 128,-1,63
 236 81 236 81 293.5 81 c 128,-1,64
 351 81 351 81 407 124 c 1,65,66
 378 179 378 179 339 238 c 128,-1,67
 300 297 300 297 287 317 c 2,68,-1
 276 335 l 1,69,70
 223 294 223 294 204 264 c 128,-1,71
 185 234 185 234 181 200 c 1,60,-1
EndSplineSet
EndChar

StartChar: quotesingle
Encoding: 39 39 10
Width: 600
GlyphClass: 2
Flags: W
LayerCount: 2
Fore
SplineSet
231 795 m 2,0,1
 231 801 231 801 240 801 c 2,2,-1
 350 801 l 2,3,4
 358 801 358 801 358 797 c 128,-1,5
 358 793 358 793 357 785 c 2,6,-1
 328 519 l 2,7,8
 327 511 327 511 318 511 c 2,9,-1
 252 511 l 2,10,11
 249 511 249 511 247 535.5 c 128,-1,12
 245 560 245 560 238 667 c 1,13,-1
 231 795 l 2,0,1
EndSplineSet
EndChar

StartChar: parenleft
Encoding: 40 40 11
Width: 446
GlyphClass: 2
Flags: W
LayerCount: 2
Fore
SplineSet
156 243 m 0,0,1
 156 143 156 143 190 66 c 0,2,3
 237 -42 237 -42 330 -73 c 1,4,-1
 318 -158 l 1,5,6
 161 -112 161 -112 83 19 c 0,7,8
 21 123 21 123 21 260 c 0,9,10
 21 493 21 493 160 633 c 0,11,12
 276 749 276 749 426 762 c 1,13,-1
 417 678 l 1,14,15
 200 641 200 641 161 327 c 0,16,17
 156 283 156 283 156 243 c 0,0,1
EndSplineSet
EndChar

StartChar: parenright
Encoding: 41 41 12
Width: 446
GlyphClass: 2
Flags: W
LayerCount: 2
Fore
SplineSet
425 344 m 0,0,1
 425 111 425 111 286 -29 c 0,2,3
 170 -145 170 -145 20 -158 c 1,4,-1
 29 -74 l 1,5,6
 246 -37 246 -37 285 277 c 0,7,8
 290 321 290 321 290 361 c 0,9,10
 290 461 290 461 256 538 c 0,11,12
 209 646 209 646 116 677 c 1,13,-1
 128 762 l 1,14,15
 285 716 285 716 363 585 c 0,16,17
 425 481 425 481 425 344 c 0,0,1
EndSplineSet
EndChar

StartChar: asterisk
Encoding: 42 42 13
Width: 389
GlyphClass: 2
Flags: W
LayerCount: 2
Fore
SplineSet
138 698 m 2,0,1
 129 709 129 709 129 718 c 0,2,3
 129 749 129 749 155 760 c 1,4,5
 165 763 165 763 174.5 763 c 128,-1,6
 184 763 184 763 197 755 c 128,-1,7
 210 747 210 747 209 723 c 2,8,-1
 204 615 l 1,9,-1
 138 698 l 2,0,1
325 719 m 128,-1,11
 336 707 336 707 336 697 c 0,12,13
 336 665 336 665 310 653 c 1,14,-1
 208 615 l 1,15,-1
 260 711 l 1,16,17
 273 731 273 731 293.5 731 c 128,-1,10
 314 731 314 731 325 719 c 128,-1,11
98 578 m 2,18,19
 90 576 90 576 80.5 576 c 128,-1,20
 71 576 71 576 58.5 586.5 c 128,-1,21
 46 597 46 597 45 619 c 1,22,23
 47 640 47 640 62 648.5 c 128,-1,24
 77 657 77 657 87 657 c 128,-1,25
 97 657 97 657 105 654 c 2,26,-1
 200 612 l 1,27,-1
 98 578 l 2,18,19
342 570 m 0,28,29
 345 562 345 562 345 553 c 128,-1,30
 345 544 345 544 338 534 c 0,31,32
 326 514 326 514 306 514 c 128,-1,33
 286 514 286 514 273 528 c 1,34,-1
 207 611 l 1,35,-1
 312 592 l 1,36,37
 333 590 333 590 342 570 c 0,28,29
208 504 m 2,38,39
 208 482 208 482 193.5 472 c 128,-1,40
 179 462 179 462 169.5 462 c 128,-1,41
 160 462 160 462 154 463 c 1,42,43
 126 473 126 473 126 500 c 0,44,45
 126 513 126 513 136 526 c 2,46,-1
 204 610 l 1,47,-1
 208 504 l 2,38,39
EndSplineSet
EndChar

StartChar: plus
Encoding: 43 43 14
Width: 442
GlyphClass: 2
Flags: W
LayerCount: 2
Fore
SplineSet
243 119 m 1,0,-1
 151 119 l 1,1,-1
 176 332 l 1,2,-1
 -14 332 l 1,3,-1
 -4 418 l 1,4,-1
 186 418 l 1,5,-1
 210 628 l 1,6,-1
 301 628 l 1,7,-1
 277 418 l 1,8,-1
 468 418 l 1,9,-1
 458 332 l 1,10,-1
 267 332 l 1,11,-1
 243 119 l 1,0,-1
EndSplineSet
EndChar

StartChar: comma
Encoding: 44 44 15
Width: 384
GlyphClass: 2
Flags: W
LayerCount: 2
Fore
SplineSet
139.5 130 m 128,-1,1
 163 154 163 154 198 154 c 128,-1,2
 233 154 233 154 258.5 132 c 128,-1,3
 284 110 284 110 284 66.5 c 128,-1,4
 284 23 284 23 240 -34.5 c 128,-1,5
 196 -92 196 -92 154 -126 c 0,6,7
 152 -127 152 -127 146 -127 c 128,-1,8
 140 -127 140 -127 122 -121 c 128,-1,9
 104 -115 104 -115 100 -111 c 1,10,11
 147 -57 147 -57 182 -7 c 1,12,13
 154 -2 154 -2 135 20.5 c 128,-1,14
 116 43 116 43 116 74.5 c 128,-1,0
 116 106 116 106 139.5 130 c 128,-1,1
EndSplineSet
EndChar

StartChar: hyphen
Encoding: 45 45 16
Width: 458
GlyphClass: 2
Flags: W
LayerCount: 2
Fore
SplineSet
42 417 m 1,0,-1
 424 417 l 1,1,-1
 415 331 l 1,2,-1
 33 331 l 1,3,-1
 42 417 l 1,0,-1
EndSplineSet
EndChar

StartChar: period
Encoding: 46 46 17
Width: 363
GlyphClass: 2
Flags: W
LayerCount: 2
Fore
SplineSet
181 144 m 128,-1,1
 215 144 215 144 239 120 c 128,-1,2
 263 96 263 96 263 62 c 128,-1,3
 263 28 263 28 239 4.5 c 128,-1,4
 215 -19 215 -19 181 -19 c 128,-1,5
 147 -19 147 -19 123.5 4.5 c 128,-1,6
 100 28 100 28 100 62 c 128,-1,7
 100 96 100 96 123.5 120 c 128,-1,0
 147 144 147 144 181 144 c 128,-1,1
EndSplineSet
EndChar

StartChar: slash
Encoding: 47 47 18
Width: 381
GlyphClass: 2
Flags: W
LayerCount: 2
Fore
SplineSet
278 761 m 1,0,-1
 361 761 l 1,1,-1
 103 -100 l 1,2,-1
 20 -100 l 1,3,-1
 278 761 l 1,0,-1
EndSplineSet
EndChar

StartChar: zero
Encoding: 48 48 19
Width: 673
GlyphClass: 2
Flags: W
LayerCount: 2
Fore
SplineSet
309 0 m 0,0,1
 175 0 175 0 111 92 c 128,-1,2
 47 184 47 184 45 335 c 0,3,4
 45 360 45 360 47 376 c 0,5,6
 62 557 62 557 145 659 c 128,-1,7
 228 761 228 761 368 761 c 0,8,9
 370 761 370 761 371 761 c 0,10,11
 485 759 485 759 555 674 c 128,-1,12
 625 589 625 589 628 426 c 1,13,14
 628 291 628 291 576 182 c 1,15,16
 534 97 534 97 463.5 48.5 c 128,-1,17
 393 0 393 0 309 0 c 0,0,1
469 454 m 0,18,19
 469 665 469 665 363 665 c 0,20,21
 291 665 291 665 251.5 581 c 128,-1,22
 212 497 212 497 201 325 c 1,23,24
 205 195 205 195 228 149 c 0,25,26
 238 128 238 128 259 112 c 0,27,28
 281 94 281 94 312 94 c 0,29,30
 373 94 373 94 415.5 171.5 c 128,-1,31
 458 249 458 249 468 401 c 0,32,33
 469 429 469 429 469 454 c 0,18,19
EndSplineSet
EndChar

StartChar: one
Encoding: 49 49 20
Width: 509
GlyphClass: 2
Flags: W
LayerCount: 2
Fore
SplineSet
475 0 m 1,0,-1
 12 0 l 1,1,-1
 26 108 l 1,2,-1
 186 108 l 1,3,-1
 248 564 l 1,4,-1
 64 553 l 1,5,-1
 75 643 l 1,6,7
 259 690 259 690 294 761 c 1,8,-1
 416 761 l 1,9,-1
 331 108 l 1,10,-1
 487 108 l 1,11,-1
 475 0 l 1,0,-1
EndSplineSet
EndChar

StartChar: two
Encoding: 50 50 21
Width: 616
GlyphClass: 2
Flags: W
LayerCount: 2
Fore
SplineSet
570 226 m 1,0,1
 576 201 576 201 576 186 c 0,2,3
 576 79 576 79 530.5 37 c 128,-1,4
 485 -5 485 -5 408 -5 c 0,5,6
 353 -5 353 -5 278 13.5 c 128,-1,7
 203 32 203 32 173 32 c 0,8,9
 171 32 171 32 170 32 c 0,10,11
 109 32 109 32 63 0 c 1,12,-1
 26 88 l 1,13,-1
 25 88 l 1,14,15
 49 119 49 119 121 183.5 c 128,-1,16
 193 248 193 248 208.5 262.5 c 128,-1,17
 224 277 224 277 252 300.5 c 128,-1,18
 280 324 280 324 296.5 339 c 128,-1,19
 313 354 313 354 337 380.5 c 128,-1,20
 361 407 361 407 375 430 c 0,21,22
 417 498 417 498 417 554 c 128,-1,23
 417 610 417 610 388 638 c 128,-1,24
 359 666 359 666 322 667 c 1,25,26
 273 665 273 665 248 638 c 128,-1,27
 223 611 223 611 222 581 c 128,-1,28
 221 551 221 551 226 536 c 1,29,-1
 90 536 l 1,30,31
 81 620 81 620 130 678 c 1,32,33
 198 761 198 761 327 761 c 0,34,35
 435 761 435 761 503 707 c 128,-1,36
 571 653 571 653 571 553 c 0,37,38
 571 458 571 458 488 364 c 0,39,40
 460 333 460 333 447 321 c 0,41,42
 349 230 349 230 240 150 c 1,43,44
 259 147 259 147 324 134 c 0,45,46
 394 121 394 121 413 121 c 0,47,48
 454 121 454 121 475.5 148 c 128,-1,49
 497 175 497 175 510 226 c 1,50,-1
 570 226 l 1,0,1
EndSplineSet
EndChar

StartChar: three
Encoding: 51 51 22
Width: 658
GlyphClass: 2
Flags: W
LayerCount: 2
Fore
SplineSet
108 567 m 0,0,1
 108 617 108 617 130 656 c 128,-1,2
 152 695 152 695 189 717 c 0,3,4
 263 761 263 761 344 761 c 0,5,6
 452 761 452 761 521.5 710.5 c 128,-1,7
 591 660 591 660 590 566 c 1,8,9
 587 442 587 442 465 391 c 1,10,11
 531 378 531 378 572 333 c 128,-1,12
 613 288 613 288 613 224 c 0,13,14
 613 112 613 112 527 56 c 128,-1,15
 441 0 441 0 329 0 c 0,16,17
 136 0 136 0 35 138 c 1,18,-1
 132 228 l 1,19,20
 155 177 155 177 212 138 c 0,21,22
 271 98 271 98 327.5 98 c 128,-1,23
 384 98 384 98 419 132.5 c 128,-1,24
 454 167 454 167 454 218 c 0,25,26
 454 250 454 250 437 274 c 0,27,28
 394 332 394 332 267 332 c 0,29,30
 261 332 261 332 255 332 c 2,31,-1
 194 332 l 1,32,-1
 202 423 l 1,33,34
 275 423 275 423 324.5 428 c 128,-1,35
 374 433 374 433 410 464 c 0,36,37
 449 499 449 499 449 559 c 0,38,39
 449 601 449 601 419.5 633.5 c 128,-1,40
 390 666 390 666 334 667 c 1,41,42
 287 665 287 665 264.5 638.5 c 128,-1,43
 242 612 242 612 242 583 c 128,-1,44
 242 554 242 554 248 536 c 1,45,-1
 110 536 l 1,46,47
 108 556 108 556 108 567 c 0,0,1
EndSplineSet
EndChar

StartChar: four
Encoding: 52 52 23
Width: 608
GlyphClass: 2
Flags: W
LayerCount: 2
Fore
SplineSet
110 723 m 1,0,1
 157 768 157 768 220 768 c 0,2,3
 263 768 263 768 286.5 745.5 c 128,-1,4
 310 723 310 723 310 687 c 256,5,6
 310 651 310 651 290.5 610.5 c 128,-1,7
 271 570 271 570 261.5 550 c 128,-1,8
 252 530 252 530 233.5 498 c 128,-1,9
 215 466 215 466 206 451 c 1,10,11
 195 430 195 430 155 364 c 1,12,-1
 322 364 l 1,13,-1
 380 713 l 1,14,15
 401 721 401 721 435 721 c 128,-1,16
 469 721 469 721 489.5 708 c 128,-1,17
 510 695 510 695 510 659 c 0,18,19
 510 646 510 646 508.5 635.5 c 128,-1,20
 507 625 507 625 457 354 c 1,21,22
 583 324 583 324 583 198 c 0,23,24
 583 182 583 182 581 165 c 0,25,26
 571 77 571 77 525.5 38.5 c 128,-1,27
 480 0 480 0 417.5 0 c 128,-1,28
 355 0 355 0 320 34.5 c 128,-1,29
 285 69 285 69 285 124 c 0,30,31
 285 143 285 143 287 153 c 2,32,-1
 303 249 l 1,33,-1
 53 246 l 1,34,-1
 26 304 l 1,35,36
 12 337 12 337 12 343 c 128,-1,37
 12 349 12 349 13 350 c 0,38,39
 155 535 155 535 165 654 c 0,40,41
 165 657 165 657 165 660 c 0,42,43
 165 704 165 704 110 723 c 1,0,1
503 184 m 0,44,45
 503 246 503 246 439 252 c 1,46,47
 422 158 422 158 422 144 c 0,48,49
 422 102 422 102 450 102 c 0,50,51
 470 102 470 102 484 118 c 1,52,53
 503 143 503 143 503 184 c 0,44,45
EndSplineSet
EndChar

StartChar: five
Encoding: 53 53 24
Width: 606
GlyphClass: 2
Flags: W
LayerCount: 2
Fore
SplineSet
416 639 m 1,0,-1
 281 647 l 1,1,-1
 257 491 l 1,2,3
 283 497 283 497 315 497 c 128,-1,4
 347 497 347 497 386.5 485.5 c 128,-1,5
 426 474 426 474 465 450.5 c 128,-1,6
 504 427 504 427 529 381.5 c 128,-1,7
 554 336 554 336 554 276 c 0,8,9
 554 143 554 143 472.5 71.5 c 128,-1,10
 391 0 391 0 251.5 0 c 128,-1,11
 112 0 112 0 20 97 c 1,12,-1
 87 204 l 1,13,14
 145 101 145 101 252 101 c 0,15,16
 315 101 315 101 355.5 146.5 c 128,-1,17
 396 192 396 192 396 263 c 128,-1,18
 396 334 396 334 350.5 371.5 c 128,-1,19
 305 409 305 409 235.5 409 c 128,-1,20
 166 409 166 409 107 378 c 1,21,-1
 170 760 l 1,22,-1
 213 760 l 2,23,24
 245 760 245 760 274 760 c 0,25,26
 518 760 518 760 570 782 c 1,27,28
 571 765 571 765 571 745 c 128,-1,29
 571 725 571 725 565.5 701.5 c 128,-1,30
 560 678 560 678 539 663 c 128,-1,31
 518 648 518 648 490.5 643.5 c 128,-1,32
 463 639 463 639 416 639 c 1,0,-1
EndSplineSet
EndChar

StartChar: six
Encoding: 54 54 25
Width: 623
GlyphClass: 2
Flags: W
LayerCount: 2
Fore
SplineSet
362 495 m 0,0,1
 468 495 468 495 525.5 424 c 128,-1,2
 583 353 583 353 583 262 c 0,3,4
 583 142 583 142 503.5 71 c 128,-1,5
 424 0 424 0 321 0 c 0,6,7
 250 0 250 0 196.5 24.5 c 128,-1,8
 143 49 143 49 111 88 c 0,9,10
 30 185 30 185 30 330 c 0,11,12
 30 352 30 352 32 375 c 0,13,14
 46 558 46 558 142.5 659.5 c 128,-1,15
 239 761 239 761 395 761 c 0,16,17
 504 761 504 761 573 704 c 1,18,-1
 527 622 l 1,19,20
 470 667 470 667 395 667 c 0,21,22
 324 667 324 667 277.5 620 c 128,-1,23
 231 573 231 573 210 506 c 0,24,25
 184 419 184 419 184 323 c 0,26,27
 184 258 184 258 201 203 c 0,28,29
 235 94 235 94 318 94 c 0,30,31
 358 94 358 94 391.5 136.5 c 128,-1,32
 425 179 425 179 427 249 c 0,33,34
 427 256 427 256 427 264 c 0,35,36
 427 407 427 407 293 407 c 0,37,38
 276 407 276 407 244.5 399 c 128,-1,39
 213 391 213 391 208 385 c 1,40,-1
 215 461 l 1,41,42
 276 495 276 495 362 495 c 0,0,1
EndSplineSet
EndChar

StartChar: seven
Encoding: 55 55 26
Width: 596
GlyphClass: 2
Flags: W
LayerCount: 2
Fore
SplineSet
348 30 m 1,0,1
 304 -13 304 -13 249 -13 c 0,2,3
 219 -13 219 -13 188.5 6 c 128,-1,4
 158 25 158 25 148 72 c 0,5,6
 145 86 145 86 145 100 c 128,-1,7
 145 114 145 114 147 124 c 128,-1,8
 149 134 149 134 154 148 c 128,-1,9
 159 162 159 162 163 170 c 128,-1,10
 167 178 167 178 174.5 193.5 c 128,-1,11
 182 209 182 209 186 216 c 2,12,-1
 248 345 l 1,13,-1
 104 345 l 1,14,-1
 114 431 l 1,15,-1
 289 431 l 1,16,-1
 392 648 l 1,17,-1
 260 648 l 1,18,19
 257 604 257 604 223.5 569.5 c 128,-1,20
 190 535 190 535 139.5 534.5 c 128,-1,21
 89 534 89 534 57 563 c 128,-1,22
 25 592 25 592 25 640.5 c 128,-1,23
 25 689 25 689 62.5 725 c 128,-1,24
 100 761 100 761 178 761 c 2,25,-1
 576 761 l 1,26,27
 582 744 582 744 582 722.5 c 128,-1,28
 582 701 582 701 565 678 c 1,29,-1
 444 431 l 1,30,-1
 535 431 l 1,31,-1
 524 345 l 1,32,-1
 401 345 l 1,33,-1
 335 210 l 2,34,35
 306 152 306 152 306 105 c 128,-1,36
 306 58 306 58 348 30 c 1,0,1
114 628 m 0,37,38
 114 614 114 614 136 614 c 0,39,40
 173 614 173 614 187 648 c 1,41,42
 162 648 162 648 138 648 c 128,-1,43
 114 648 114 648 114 628 c 0,37,38
EndSplineSet
EndChar

StartChar: eight
Encoding: 56 56 27
Width: 611
GlyphClass: 2
Flags: W
LayerCount: 2
Fore
SplineSet
503.5 350 m 128,-1,1
 525 331 525 331 544 296 c 128,-1,2
 563 261 563 261 563 217.5 c 128,-1,3
 563 174 563 174 547 135 c 0,4,5
 508 45 508 45 404 14 c 0,6,7
 357 -1 357 -1 298 -1 c 0,8,9
 167 -1 167 -1 107 61 c 0,10,11
 45 125 45 125 45 201 c 0,12,13
 45 335 45 335 188 408 c 1,14,15
 105 484 105 484 105 560 c 0,16,17
 105 652 105 652 176 706.5 c 128,-1,18
 247 761 247 761 342.5 761 c 128,-1,19
 438 761 438 761 501.5 714 c 128,-1,20
 565 667 565 667 566 583 c 1,21,22
 569 477 569 477 439 400 c 1,23,0
 482 369 482 369 503.5 350 c 128,-1,1
420 644 m 128,-1,25
 387 667 387 667 348 667 c 128,-1,26
 309 667 309 667 278.5 642.5 c 128,-1,27
 248 618 248 618 248 582 c 0,28,29
 248 544 248 544 290 510 c 0,30,31
 307 496 307 496 356 460 c 1,32,33
 415 489 415 489 434.5 518 c 128,-1,34
 454 547 454 547 453.5 584 c 128,-1,24
 453 621 453 621 420 644 c 128,-1,25
376 121 m 128,-1,36
 412 148 412 148 412 188 c 0,37,38
 412 211 412 211 406 227 c 128,-1,39
 400 243 400 243 383 259.5 c 128,-1,40
 366 276 366 276 356 284 c 128,-1,41
 346 292 346 292 315 312.5 c 128,-1,42
 284 333 284 333 272 341 c 1,43,44
 217 317 217 317 187.5 282 c 128,-1,45
 158 247 158 247 158 211 c 0,46,47
 158 156 158 156 195 125 c 1,48,49
 234 94 234 94 287 94 c 128,-1,35
 340 94 340 94 376 121 c 128,-1,36
EndSplineSet
EndChar

StartChar: nine
Encoding: 57 57 28
Width: 671
GlyphClass: 2
Flags: W
LayerCount: 2
Fore
SplineSet
313 273 m 0,0,1
 196 273 196 273 138 348 c 1,2,3
 88 415 88 415 88 503 c 0,4,5
 88 512 88 512 90 532 c 0,6,7
 103 642 103 642 173.5 703.5 c 128,-1,8
 244 765 244 765 353 765 c 0,9,10
 413 765 413 765 460.5 746 c 128,-1,11
 508 727 508 727 538.5 696 c 128,-1,12
 569 665 569 665 589 623 c 0,13,14
 626 545 626 545 626 447 c 0,15,16
 626 417 626 417 623 390 c 0,17,18
 605 206 605 206 515.5 103.5 c 128,-1,19
 426 1 426 1 265 -1 c 0,20,21
 209 -1 209 -1 163 12.5 c 128,-1,22
 117 26 117 26 94.5 40 c 128,-1,23
 72 54 72 54 45 78 c 1,24,-1
 118 171 l 1,25,26
 148 133 148 133 184 115 c 128,-1,27
 220 97 220 97 274 97 c 0,28,29
 446 97 446 97 471 414 c 1,30,31
 474 468 474 468 474 475 c 0,32,33
 474 671 474 671 362 671 c 0,34,35
 309 671 309 671 277 630 c 0,36,37
 240 581 240 581 240 504 c 0,38,39
 240 453 240 453 271.5 409 c 128,-1,40
 303 365 303 365 372 365 c 0,41,42
 389 365 389 365 418.5 373 c 128,-1,43
 448 381 448 381 453 387 c 1,44,-1
 445 314 l 1,45,46
 390 273 390 273 313 273 c 0,0,1
EndSplineSet
EndChar

StartChar: colon
Encoding: 58 58 29
Width: 291
GlyphClass: 2
Flags: W
LayerCount: 2
Fore
SplineSet
171 494 m 128,-1,1
 205 494 205 494 229 470 c 128,-1,2
 253 446 253 446 253 412 c 128,-1,3
 253 378 253 378 229 354.5 c 128,-1,4
 205 331 205 331 171 331 c 128,-1,5
 137 331 137 331 113.5 354.5 c 128,-1,6
 90 378 90 378 90 412 c 128,-1,7
 90 446 90 446 113.5 470 c 128,-1,0
 137 494 137 494 171 494 c 128,-1,1
130 144 m 128,-1,9
 164 144 164 144 188 120 c 128,-1,10
 212 96 212 96 212 62 c 128,-1,11
 212 28 212 28 188 4.5 c 128,-1,12
 164 -19 164 -19 130 -19 c 128,-1,13
 96 -19 96 -19 72.5 4.5 c 128,-1,14
 49 28 49 28 49 62 c 128,-1,15
 49 96 49 96 72.5 120 c 128,-1,8
 96 144 96 144 130 144 c 128,-1,9
EndSplineSet
EndChar

StartChar: semicolon
Encoding: 59 59 30
Width: 361
GlyphClass: 2
Flags: W
LayerCount: 2
Fore
SplineSet
214 484 m 128,-1,1
 248 484 248 484 272 460 c 128,-1,2
 296 436 296 436 296 402 c 128,-1,3
 296 368 296 368 272 344.5 c 128,-1,4
 248 321 248 321 214 321 c 128,-1,5
 180 321 180 321 156.5 344.5 c 128,-1,6
 133 368 133 368 133 402 c 128,-1,7
 133 436 133 436 156.5 460 c 128,-1,0
 180 484 180 484 214 484 c 128,-1,1
104.5 130 m 128,-1,9
 128 154 128 154 163 154 c 128,-1,10
 198 154 198 154 223.5 132 c 128,-1,11
 249 110 249 110 249 66.5 c 128,-1,12
 249 23 249 23 205 -34.5 c 128,-1,13
 161 -92 161 -92 119 -126 c 0,14,15
 117 -127 117 -127 111 -127 c 128,-1,16
 105 -127 105 -127 87 -121 c 128,-1,17
 69 -115 69 -115 65 -111 c 1,18,19
 112 -57 112 -57 147 -7 c 1,20,21
 119 -2 119 -2 100 20.5 c 128,-1,22
 81 43 81 43 81 74.5 c 128,-1,8
 81 106 81 106 104.5 130 c 128,-1,9
EndSplineSet
EndChar

StartChar: less
Encoding: 60 60 31
Width: 687
GlyphClass: 2
Flags: W
LayerCount: 2
Fore
SplineSet
619 157 m 1,0,-1
 607 61 l 1,1,-1
 28 366 l 1,2,-1
 667 592 l 1,3,-1
 654 493 l 1,4,-1
 237 350 l 1,5,-1
 619 157 l 1,0,-1
EndSplineSet
EndChar

StartChar: equal
Encoding: 61 61 32
Width: 524
GlyphClass: 2
Flags: W
LayerCount: 2
Fore
SplineSet
31 395 m 1,0,-1
 43 481 l 1,1,-1
 514 481 l 1,2,-1
 503 395 l 1,3,-1
 31 395 l 1,0,-1
482 215 m 1,4,-1
 9 215 l 1,5,-1
 22 301 l 1,6,-1
 493 301 l 1,7,-1
 482 215 l 1,4,-1
EndSplineSet
EndChar

StartChar: greater
Encoding: 62 62 33
Width: 687
GlyphClass: 2
Flags: W
LayerCount: 2
Fore
SplineSet
41 190 m 1,0,-1
 458 333 l 1,1,-1
 76 526 l 1,2,-1
 88 622 l 1,3,-1
 667 317 l 1,4,-1
 28 91 l 1,5,-1
 41 190 l 1,0,-1
EndSplineSet
EndChar

StartChar: question
Encoding: 63 63 34
Width: 523
GlyphClass: 2
Flags: W
LayerCount: 2
Fore
SplineSet
147.5 757.5 m 128,-1,1
 212 811 212 811 305.5 811 c 128,-1,2
 399 811 399 811 456.5 761.5 c 128,-1,3
 514 712 514 712 514 633 c 0,4,5
 514 631 514 631 514 628 c 0,6,7
 509 500 509 500 391 410 c 0,8,9
 372 395 372 395 336 370.5 c 128,-1,10
 300 346 300 346 281 332 c 128,-1,11
 262 318 262 318 244 296 c 1,12,13
 221 265 221 265 222 238 c 0,14,15
 223 228 223 228 224 226 c 1,16,-1
 127 226 l 1,17,18
 118 235 118 235 114 258 c 128,-1,19
 110 281 110 281 110 289 c 0,20,21
 110 337 110 337 139.5 375.5 c 128,-1,22
 169 414 169 414 205.5 440 c 128,-1,23
 242 466 242 466 278 492.5 c 128,-1,24
 314 519 314 519 340 556 c 1,25,26
 367 597 367 597 367 637.5 c 128,-1,27
 367 678 367 678 345 702.5 c 128,-1,28
 323 727 323 727 278 727 c 128,-1,29
 233 727 233 727 205 694 c 0,30,31
 176 660 176 660 176 613.5 c 128,-1,32
 176 567 176 567 195 540 c 1,33,-1
 98 540 l 1,34,35
 80 584 80 584 80 624 c 1,36,0
 83 704 83 704 147.5 757.5 c 128,-1,1
164 132 m 128,-1,38
 198 132 198 132 222 107.5 c 128,-1,39
 246 83 246 83 246 49 c 128,-1,40
 246 15 246 15 222 -8.5 c 128,-1,41
 198 -32 198 -32 164 -32 c 128,-1,42
 130 -32 130 -32 106 -8.5 c 128,-1,43
 82 15 82 15 82 49 c 128,-1,44
 82 83 82 83 106 107.5 c 128,-1,37
 130 132 130 132 164 132 c 128,-1,38
EndSplineSet
EndChar

StartChar: at
Encoding: 64 64 35
Width: 746
GlyphClass: 2
Flags: W
LayerCount: 2
Fore
SplineSet
273 545 m 128,-1,1
 335 567 335 567 397 567 c 128,-1,2
 459 567 459 567 513.5 550.5 c 128,-1,3
 568 534 568 534 615.5 501.5 c 128,-1,4
 663 469 663 469 692 412.5 c 128,-1,5
 721 356 721 356 721 283 c 0,6,7
 721 180 721 180 675.5 114 c 128,-1,8
 630 48 630 48 560 48 c 0,9,10
 477 48 477 48 464 137 c 1,11,12
 445 96 445 96 411 70.5 c 128,-1,13
 377 45 377 45 332 45 c 0,14,15
 263 45 263 45 223.5 89.5 c 128,-1,16
 184 134 184 134 184 209 c 256,17,18
 184 284 184 284 231 354 c 0,19,20
 254 389 254 389 297.5 411 c 128,-1,21
 341 433 341 433 393.5 433 c 128,-1,22
 446 433 446 433 493 418 c 1,23,24
 510 424 510 424 531.5 424 c 128,-1,25
 553 424 553 424 570 414 c 1,26,27
 538 200 538 200 538 151 c 0,28,29
 538 114 538 114 573 114 c 0,30,31
 604 114 604 114 625 158.5 c 128,-1,32
 646 203 646 203 646 276 c 0,33,34
 646 381 646 381 580.5 439 c 128,-1,35
 515 497 515 497 397.5 497 c 128,-1,36
 280 497 280 497 201 424 c 128,-1,37
 122 351 122 351 122 216 c 0,38,39
 122 118 122 118 190 53.5 c 128,-1,40
 258 -11 258 -11 357 -11 c 0,41,42
 403 -11 403 -11 422.5 -5 c 128,-1,43
 442 1 442 1 454 5 c 2,44,-1
 469 10 l 1,45,46
 473 8 473 8 477 -10 c 128,-1,47
 481 -28 481 -28 481 -38.5 c 128,-1,48
 481 -49 481 -49 479 -53 c 1,49,50
 416 -76 416 -76 352 -76 c 0,51,52
 228 -76 228 -76 136.5 -1 c 128,-1,53
 45 74 45 74 45 209 c 0,54,55
 45 298 45 298 76 368.5 c 128,-1,56
 107 439 107 439 159 481 c 128,-1,0
 211 523 211 523 273 545 c 128,-1,1
413 364 m 0,57,58
 353 364 353 364 315.5 322.5 c 128,-1,59
 278 281 278 281 278 215 c 0,60,61
 278 169 278 169 299 146.5 c 128,-1,62
 320 124 320 124 352.5 124 c 128,-1,63
 385 124 385 124 410 149.5 c 128,-1,64
 435 175 435 175 445 225 c 1,65,-1
 463 358 l 1,66,67
 431 364 431 364 413 364 c 0,57,58
EndSplineSet
EndChar

StartChar: A
Encoding: 65 65 36
Width: 714
GlyphClass: 2
Flags: W
LayerCount: 2
Fore
SplineSet
608 -2 m 0,0,1
 552 -2 552 -2 523.5 34.5 c 128,-1,2
 495 71 495 71 485 171 c 0,3,4
 479 223 479 223 473 306 c 1,5,6
 403 285 403 285 332 262 c 1,7,-1
 298 168 l 2,8,9
 288 141 288 141 284 129.5 c 128,-1,10
 280 118 280 118 269.5 95 c 128,-1,11
 259 72 259 72 251.5 61.5 c 128,-1,12
 244 51 244 51 230.5 35 c 128,-1,13
 217 19 217 19 203 12 c 0,14,15
 167 -6 167 -6 126 -6 c 128,-1,16
 85 -6 85 -6 59.5 23.5 c 128,-1,17
 34 53 34 53 34 96 c 0,18,19
 34 108 34 108 36 121 c 0,20,21
 49 217 49 217 233 296 c 1,22,23
 285 429 285 429 406 744 c 1,24,25
 438 762 438 762 487 762 c 0,26,27
 498 762 498 762 508 762 c 128,-1,28
 518 762 518 762 532.5 762 c 128,-1,29
 547 762 547 762 569 756 c 1,30,31
 570 709 570 709 615 173 c 0,32,33
 619 128 619 128 626 114.5 c 128,-1,34
 633 101 633 101 650 101 c 0,35,36
 678 101 678 101 724.5 139 c 128,-1,37
 771 177 771 177 808 234 c 1,38,-1
 836 166 l 1,39,-1
 812 134 l 1,40,41
 707 -2 707 -2 608 -2 c 0,0,1
449 588 m 1,42,-1
 362 345 l 1,43,44
 432 369 432 369 466 380 c 1,45,-1
 449 588 l 1,42,-1
105 117 m 0,47,48
 105 85 105 85 129 85 c 0,49,50
 147 85 147 85 158 111 c 0,51,52
 171 139 171 139 198 209 c 1,53,46
 105 162 105 162 105 117 c 0,47,48
EndSplineSet
EndChar

StartChar: B
Encoding: 66 66 37
Width: 707
GlyphClass: 2
Flags: W
LayerCount: 2
Fore
SplineSet
42 541 m 0,0,1
 42 636 42 636 126 698.5 c 128,-1,2
 210 761 210 761 348 761 c 0,3,4
 421 761 421 761 479 746.5 c 128,-1,5
 537 732 537 732 571 710 c 128,-1,6
 605 688 605 688 628 659 c 0,7,8
 666 609 666 609 665.5 547.5 c 128,-1,9
 665 486 665 486 617 438 c 128,-1,10
 569 390 569 390 501 388 c 1,11,12
 586 382 586 382 648.5 332 c 128,-1,13
 711 282 711 282 711 206 c 0,14,15
 711 106 711 106 634 50 c 128,-1,16
 557 -6 557 -6 446.5 -6 c 128,-1,17
 336 -6 336 -6 296 23 c 1,18,-1
 327 107 l 1,19,20
 371 84 371 84 429.5 84 c 128,-1,21
 488 84 488 84 525 118.5 c 128,-1,22
 562 153 562 153 562 210 c 128,-1,23
 562 267 562 267 511.5 306 c 128,-1,24
 461 345 461 345 374 345 c 1,25,-1
 383 419 l 1,26,27
 443 419 443 419 484.5 447.5 c 128,-1,28
 526 476 526 476 527.5 533 c 128,-1,29
 529 590 529 590 476 629 c 0,30,31
 419 670 419 670 320 670 c 0,32,33
 255 670 255 670 193 636.5 c 128,-1,34
 131 603 131 603 131 547 c 0,35,36
 131 520 131 520 153 501.5 c 128,-1,37
 175 483 175 483 211 479 c 1,38,-1
 200 405 l 1,39,40
 124 408 124 408 83 448 c 128,-1,41
 42 488 42 488 42 541 c 0,0,1
266 40.5 m 128,-1,43
 220 -4 220 -4 158 -4 c 128,-1,44
 96 -4 96 -4 64 28 c 128,-1,45
 32 60 32 60 32 110 c 0,46,47
 32 228 32 228 211 311 c 1,48,49
 216 353 216 353 225.5 424.5 c 128,-1,50
 235 496 235 496 240.5 540 c 128,-1,51
 246 584 246 584 248 598 c 1,52,53
 289 624 289 624 343 624 c 0,54,55
 368 624 368 624 391 619 c 1,56,-1
 328 192 l 2,57,42
 312 85 312 85 266 40.5 c 128,-1,43
106 123 m 0,58,59
 106 87 106 87 140 87 c 0,60,61
 154 87 154 87 169.5 105.5 c 128,-1,62
 185 124 185 124 191 164 c 2,63,-1
 200 226 l 1,64,65
 106 173 106 173 106 123 c 0,58,59
EndSplineSet
EndChar

StartChar: C
Encoding: 67 67 38
Width: 575
GlyphClass: 2
Flags: W
LayerCount: 2
Fore
SplineSet
330 -6 m 0,0,1
 175 -6 175 -6 102.5 73 c 128,-1,2
 30 152 30 152 30 281.5 c 128,-1,3
 30 411 30 411 74.5 517.5 c 128,-1,4
 119 624 119 624 207 692.5 c 128,-1,5
 295 761 295 761 397.5 761 c 128,-1,6
 500 761 500 761 558.5 711.5 c 128,-1,7
 617 662 617 662 617 578.5 c 128,-1,8
 617 495 617 495 565.5 440 c 128,-1,9
 514 385 514 385 445 385 c 128,-1,10
 376 385 376 385 338 415.5 c 128,-1,11
 300 446 300 446 300 480.5 c 128,-1,12
 300 515 300 515 327.5 534.5 c 128,-1,13
 355 554 355 554 408 554 c 1,14,15
 395 541 395 541 395 519.5 c 128,-1,16
 395 498 395 498 408 482 c 128,-1,17
 421 466 421 466 448 466 c 128,-1,18
 475 466 475 466 502 494.5 c 128,-1,19
 529 523 529 523 529 570 c 128,-1,20
 529 617 529 617 500.5 645 c 128,-1,21
 472 673 472 673 420 673 c 0,22,23
 352 673 352 673 296.5 618 c 128,-1,24
 241 563 241 563 212 478 c 128,-1,25
 183 393 183 393 183 299 c 0,26,27
 183 218 183 218 218 156 c 0,28,29
 236 124 236 124 271.5 105 c 128,-1,30
 307 86 307 86 355 86 c 0,31,32
 437 86 437 86 513 138.5 c 128,-1,33
 589 191 589 191 641 274 c 1,34,-1
 675 213 l 1,35,36
 616 117 616 117 527 55.5 c 128,-1,37
 438 -6 438 -6 330 -6 c 0,0,1
EndSplineSet
EndChar

StartChar: D
Encoding: 68 68 39
Width: 744
GlyphClass: 2
Flags: W
LayerCount: 2
Fore
SplineSet
45 536 m 0,0,1
 45 643 45 643 138 704 c 128,-1,2
 231 765 231 765 352 765 c 0,3,4
 507 765 507 765 624 676 c 0,5,6
 682 631 682 631 714 556.5 c 128,-1,7
 746 482 746 482 746 392 c 0,8,9
 746 215 746 215 645 104 c 1,10,11
 540 -9 540 -9 382 -9 c 0,12,13
 347 -9 347 -9 308 0 c 128,-1,14
 269 9 269 9 246 24 c 1,15,16
 209 -4 209 -4 151.5 -4 c 128,-1,17
 94 -4 94 -4 62 28 c 128,-1,18
 30 60 30 60 30 110 c 0,19,20
 30 228 30 228 209 311 c 1,21,22
 214 353 214 353 223.5 424.5 c 128,-1,23
 233 496 233 496 238.5 540 c 128,-1,24
 244 584 244 584 246 598 c 1,25,26
 287 624 287 624 341 624 c 0,27,28
 366 624 366 624 389 619 c 1,29,-1
 326 192 l 2,30,31
 317 135 317 135 301 97 c 1,32,33
 332 89 332 89 351 89 c 0,34,35
 466 89 466 89 529 176 c 0,36,37
 594 267 594 267 594 396 c 0,38,39
 594 561 594 561 475 633 c 0,40,41
 409 673 409 673 330 673 c 0,42,43
 229 673 229 673 170 618 c 0,44,45
 136 587 136 587 136 543 c 0,46,47
 136 520 136 520 150 499.5 c 128,-1,48
 164 479 164 479 199 476 c 1,49,-1
 189 411 l 1,50,51
 116 415 116 415 80.5 451.5 c 128,-1,52
 45 488 45 488 45 536 c 0,0,1
104 123 m 0,53,54
 104 87 104 87 138 87 c 0,55,56
 152 87 152 87 167.5 105.5 c 128,-1,57
 183 124 183 124 189 164 c 2,58,-1
 198 226 l 1,59,60
 104 173 104 173 104 123 c 0,53,54
EndSplineSet
EndChar

StartChar: E
Encoding: 69 69 40
Width: 481
GlyphClass: 2
Flags: W
LayerCount: 2
Fore
SplineSet
234 349 m 1,0,1
 176 308 176 308 176 227 c 0,2,3
 176 176 176 176 212.5 131 c 128,-1,4
 249 86 249 86 336 86 c 128,-1,5
 423 86 423 86 501 145 c 128,-1,6
 579 204 579 204 619 274 c 1,7,-1
 653 213 l 1,8,9
 524 -6 524 -6 294 -6 c 0,10,11
 180 -6 180 -6 101 55.5 c 128,-1,12
 22 117 22 117 22 200 c 0,13,14
 22 345 22 345 151 410 c 1,15,16
 108 463 108 463 108 534 c 0,17,18
 108 627 108 627 188.5 694 c 128,-1,19
 269 761 269 761 375 761 c 128,-1,20
 481 761 481 761 538.5 707 c 128,-1,21
 596 653 596 653 596 565 c 1,22,-1
 501 565 l 1,23,24
 502 619 502 619 472.5 646.5 c 128,-1,25
 443 674 443 674 390.5 674 c 128,-1,26
 338 674 338 674 296 636 c 1,27,28
 249 595 249 595 249 540 c 128,-1,29
 249 485 249 485 279 445 c 1,30,31
 379 457 379 457 431 432 c 0,32,33
 463 417 463 417 463 384.5 c 128,-1,34
 463 352 463 352 426.5 339 c 128,-1,35
 390 326 390 326 339 326 c 128,-1,36
 288 326 288 326 234 349 c 1,0,1
EndSplineSet
EndChar

StartChar: F
Encoding: 70 70 41
Width: 556
GlyphClass: 2
Flags: W
LayerCount: 2
Fore
SplineSet
457 589 m 0,0,1
 417 589 417 589 346 602 c 1,2,3
 246 526 246 526 161 526 c 0,4,5
 158 526 158 526 155 526 c 0,6,7
 94 527 94 527 59.5 558.5 c 128,-1,8
 25 590 25 590 25 642.5 c 128,-1,9
 25 695 25 695 59.5 728 c 128,-1,10
 94 761 94 761 162 761 c 0,11,12
 207 761 207 761 306 731 c 0,13,14
 410 700 410 700 461 700 c 0,15,16
 545 700 545 700 572 760 c 1,17,-1
 611 733 l 1,18,19
 589 589 589 589 457 589 c 0,0,1
124 612 m 0,20,21
 124 587 124 587 167 587 c 128,-1,22
 210 587 210 587 272 619 c 1,23,24
 184 641 184 641 151 641 c 0,25,26
 140 641 140 641 132 632.5 c 128,-1,27
 124 624 124 624 124 612 c 0,20,21
397 538 m 1,28,-1
 381 431 l 1,29,-1
 530 431 l 1,30,31
 539 410 539 410 539 390 c 128,-1,32
 539 370 539 370 520 356.5 c 128,-1,33
 501 343 501 343 472 343 c 2,34,-1
 367 343 l 1,35,-1
 366 334 l 1,36,37
 492 274 492 274 492 156 c 0,38,39
 492 67 492 67 445 30.5 c 128,-1,40
 398 -6 398 -6 334 -6 c 128,-1,41
 270 -6 270 -6 235 26.5 c 128,-1,42
 200 59 200 59 200 113 c 0,43,44
 200 122 200 122 202 136 c 2,45,-1
 229 343 l 1,46,-1
 135 343 l 1,47,48
 141 400 141 400 145 431 c 1,49,-1
 241 431 l 1,50,-1
 252 519 l 1,51,52
 304 544 304 544 339 544 c 128,-1,53
 374 544 374 544 397 538 c 1,28,-1
365 85 m 0,54,55
 389 85 389 85 407 102.5 c 128,-1,56
 425 120 425 120 425 158 c 0,57,58
 425 233 425 233 357 273 c 1,59,60
 341 162 341 162 340.5 134.5 c 128,-1,61
 340 107 340 107 347.5 96 c 128,-1,62
 355 85 355 85 365 85 c 0,54,55
EndSplineSet
EndChar

StartChar: G
Encoding: 71 71 42
Width: 630
GlyphClass: 2
Flags: W
LayerCount: 2
Fore
SplineSet
331 -275 m 0,0,1
 275 -275 275 -275 235.5 -240.5 c 128,-1,2
 196 -206 196 -206 196 -135 c 128,-1,3
 196 -64 196 -64 264 -2 c 1,4,5
 143 15 143 15 86 91.5 c 128,-1,6
 29 168 29 168 29 289.5 c 128,-1,7
 29 411 29 411 73.5 517.5 c 128,-1,8
 118 624 118 624 206 692.5 c 128,-1,9
 294 761 294 761 396.5 761 c 128,-1,10
 499 761 499 761 557.5 711.5 c 128,-1,11
 616 662 616 662 616 576 c 128,-1,12
 616 490 616 490 565 437.5 c 128,-1,13
 514 385 514 385 444.5 385 c 128,-1,14
 375 385 375 385 337 415.5 c 128,-1,15
 299 446 299 446 299 480.5 c 128,-1,16
 299 515 299 515 326.5 534.5 c 128,-1,17
 354 554 354 554 407 554 c 1,18,19
 394 541 394 541 394 519.5 c 128,-1,20
 394 498 394 498 407 482 c 128,-1,21
 420 466 420 466 446.5 466 c 128,-1,22
 473 466 473 466 496.5 494 c 128,-1,23
 520 522 520 522 520 570.5 c 128,-1,24
 520 619 520 619 495 646 c 128,-1,25
 470 673 470 673 419 673 c 0,26,27
 351 673 351 673 295.5 618 c 128,-1,28
 240 563 240 563 211 478 c 128,-1,29
 182 393 182 393 182 299 c 0,30,31
 182 218 182 218 217 156 c 0,32,33
 235 124 235 124 270.5 105 c 128,-1,34
 306 86 306 86 340.5 86 c 128,-1,35
 375 86 375 86 396 89 c 1,36,-1
 421 307 l 1,37,-1
 561 307 l 1,38,-1
 539 144 l 1,39,40
 647 201 647 201 681 268 c 1,41,-1
 720 213 l 1,42,43
 655 113 655 113 528 61 c 1,44,-1
 515 -47 l 2,45,46
 507 -120 507 -120 486 -169 c 128,-1,47
 465 -218 465 -218 436.5 -239.5 c 128,-1,48
 408 -261 408 -261 384 -268 c 128,-1,49
 360 -275 360 -275 331 -275 c 0,0,1
285 -132 m 0,50,51
 285 -150 285 -150 296 -163 c 128,-1,52
 307 -176 307 -176 321.5 -176 c 128,-1,53
 336 -176 336 -176 344 -171 c 128,-1,54
 352 -166 352 -166 361 -145 c 128,-1,55
 370 -124 370 -124 375 -86 c 2,56,-1
 385 -4 l 1,57,58
 285 -66 285 -66 285 -132 c 0,50,51
EndSplineSet
EndChar

StartChar: H
Encoding: 72 72 43
Width: 725
GlyphClass: 2
Flags: W
LayerCount: 2
Fore
SplineSet
597.5 753.5 m 128,-1,1
 630 761 630 761 659 761 c 128,-1,2
 688 761 688 761 707 753 c 1,3,-1
 609 0 l 1,4,-1
 473 0 l 1,5,-1
 512 338 l 1,6,-1
 499 334 l 1,7,8
 407 307 407 307 332 281 c 1,9,-1
 318 171 l 1,10,11
 294 -6 294 -6 152 -6 c 0,12,13
 101 -6 101 -6 73 24.5 c 128,-1,14
 45 55 45 55 45 103 c 0,15,16
 45 210 45 210 196 296 c 1,17,-1
 247 730 l 1,18,19
 266 743 266 743 297 752 c 128,-1,20
 328 761 328 761 357 761 c 128,-1,21
 386 761 386 761 395 760 c 1,22,-1
 343 362 l 1,23,24
 404 384 404 384 497 409 c 1,25,-1
 521 415 l 1,26,-1
 559 738 l 1,27,0
 565 746 565 746 597.5 753.5 c 128,-1,1
115 118 m 0,28,29
 115 86 115 86 144 86 c 0,30,31
 160 86 160 86 165 95.5 c 128,-1,32
 170 105 170 105 172.5 111.5 c 128,-1,33
 175 118 175 118 177 129 c 128,-1,34
 179 140 179 140 180 148.5 c 128,-1,35
 181 157 181 157 182 171 c 128,-1,36
 183 185 183 185 184 193 c 2,37,-1
 186 208 l 1,38,39
 115 159 115 159 115 118 c 0,28,29
EndSplineSet
EndChar

StartChar: I
Encoding: 73 73 44
Width: 483
GlyphClass: 2
Flags: W
LayerCount: 2
Fore
SplineSet
556 648 m 1,0,1
 540 655 540 655 524.5 655 c 128,-1,2
 509 655 509 655 494.5 636 c 128,-1,3
 480 617 480 617 475 581 c 2,4,-1
 423 210 l 2,5,6
 409 109 409 109 353.5 51 c 128,-1,7
 298 -7 298 -7 215 -7 c 256,8,9
 132 -7 132 -7 86.5 39.5 c 128,-1,10
 41 86 41 86 41 150.5 c 128,-1,11
 41 215 41 215 85.5 260 c 128,-1,12
 130 305 130 305 198 305 c 0,13,14
 240 305 240 305 264 299 c 1,15,-1
 259 238 l 1,16,17
 242 242 242 242 206.5 242 c 128,-1,18
 171 242 171 242 143.5 218 c 128,-1,19
 116 194 116 194 116 158 c 128,-1,20
 116 122 116 122 136 102.5 c 128,-1,21
 156 83 156 83 184 83 c 0,22,23
 268 83 268 83 282 207 c 0,24,25
 309 455 309 455 321 542 c 1,26,27
 261 521 261 521 215 521 c 0,28,29
 142 521 142 521 103.5 555 c 128,-1,30
 65 589 65 589 65 644 c 128,-1,31
 65 699 65 699 104.5 730.5 c 128,-1,32
 144 762 144 762 204 762 c 0,33,34
 241 762 241 762 310.5 739 c 128,-1,35
 380 716 380 716 418 716 c 0,36,37
 486 716 486 716 532 751 c 1,38,39
 557 716 557 716 557 668 c 0,40,41
 557 658 557 658 556 648 c 1,0,1
164 617 m 0,42,43
 164 602 164 602 180.5 591 c 128,-1,44
 197 580 197 580 230.5 580 c 128,-1,45
 264 580 264 580 318 610 c 1,46,47
 279 619 279 619 238 630.5 c 128,-1,48
 197 642 197 642 189 642 c 0,49,50
 164 642 164 642 164 617 c 0,42,43
EndSplineSet
EndChar

StartChar: J
Encoding: 74 74 45
Width: 418
GlyphClass: 2
Flags: W
LayerCount: 2
Fore
SplineSet
512 646 m 1,0,1
 496 653 496 653 481 653 c 128,-1,2
 466 653 466 653 451 634 c 128,-1,3
 436 615 436 615 431 579 c 2,4,-1
 381 229 l 1,5,6
 507 284 507 284 542 311 c 1,7,-1
 580 245 l 1,8,9
 550 222 550 222 508 204 c 128,-1,10
 466 186 466 186 427 170.5 c 128,-1,11
 388 155 388 155 369 147 c 1,12,-1
 336 -87 l 2,13,14
 323 -183 323 -183 267.5 -228.5 c 128,-1,15
 212 -274 212 -274 145.5 -274 c 128,-1,16
 79 -274 79 -274 40 -225.5 c 128,-1,17
 1 -177 1 -177 1 -117 c 0,18,19
 1 40 1 40 231 162 c 1,20,-1
 241 243 l 1,21,22
 260 415 260 415 280 542 c 1,23,24
 223 519 223 519 160.5 519 c 128,-1,25
 98 519 98 519 59.5 553 c 128,-1,26
 21 587 21 587 21 642 c 128,-1,27
 21 697 21 697 60.5 728.5 c 128,-1,28
 100 760 100 760 160 760 c 0,29,30
 197 760 197 760 266.5 737 c 128,-1,31
 336 714 336 714 374 714 c 0,32,33
 442 714 442 714 488 749 c 1,34,35
 513 714 513 714 513 666 c 0,36,37
 513 656 513 656 512 646 c 1,0,1
120 615 m 0,38,39
 120 600 120 600 136.5 589 c 128,-1,40
 153 578 153 578 186.5 578 c 128,-1,41
 220 578 220 578 274 608 c 1,42,43
 235 617 235 617 194 628.5 c 128,-1,44
 153 640 153 640 145 640 c 0,45,46
 120 640 120 640 120 615 c 0,38,39
220 75 m 1,47,48
 77 -11 77 -11 77 -107 c 0,49,50
 77 -134 77 -134 91 -153 c 0,51,52
 107 -175 107 -175 131.5 -175 c 128,-1,53
 156 -175 156 -175 174 -160 c 128,-1,54
 192 -145 192 -145 196 -112 c 2,55,-1
 220 75 l 1,47,48
EndSplineSet
EndChar

StartChar: K
Encoding: 75 75 46
Width: 682
GlyphClass: 2
Flags: W
LayerCount: 2
Fore
SplineSet
745 215 m 1,0,-1
 777 166 l 1,1,2
 762 112 762 112 736 75 c 128,-1,3
 710 38 710 38 681 22 c 0,4,5
 630 -6 630 -6 584 -6 c 0,6,7
 504 -6 504 -6 465.5 40.5 c 128,-1,8
 427 87 427 87 425 165 c 0,9,10
 422 291 422 291 410 322 c 128,-1,11
 398 353 398 353 355 357 c 1,12,-1
 362 432 l 1,13,14
 380 435 380 435 390 440 c 128,-1,15
 400 445 400 445 416 460 c 0,16,17
 450 490 450 490 466 601 c 0,18,19
 479 685 479 685 519.5 723 c 128,-1,20
 560 761 560 761 607 761 c 128,-1,21
 654 761 654 761 690 733.5 c 128,-1,22
 726 706 726 706 726 645 c 0,23,24
 726 564 726 564 667.5 505 c 128,-1,25
 609 446 609 446 505 398 c 1,26,27
 541 381 541 381 558 341 c 128,-1,28
 575 301 575 301 577 257 c 128,-1,29
 579 213 579 213 580 172 c 0,30,31
 584 76 584 76 637 76 c 0,32,33
 699 76 699 76 745 215 c 1,0,-1
122 -6 m 0,34,35
 69 -6 69 -6 37 26 c 128,-1,36
 5 58 5 58 5 108 c 0,37,38
 5 225 5 225 182 309 c 1,39,40
 189 368 189 368 202 476 c 0,41,42
 227 698 227 698 232 734 c 1,43,44
 273 760 273 760 317.5 760 c 128,-1,45
 362 760 362 760 385 755 c 1,46,-1
 311 190 l 1,47,48
 281 -6 281 -6 122 -6 c 0,34,35
647.5 645 m 128,-1,50
 639 653 639 653 631 653 c 128,-1,51
 623 653 623 653 618.5 651 c 128,-1,52
 614 649 614 649 610.5 644.5 c 128,-1,53
 607 640 607 640 605 635.5 c 128,-1,54
 603 631 603 631 600.5 622 c 128,-1,55
 598 613 598 613 596.5 606.5 c 128,-1,56
 595 600 595 600 592 588 c 128,-1,57
 589 576 589 576 584 555.5 c 128,-1,58
 579 535 579 535 572 514 c 1,59,60
 656 568 656 568 656 622 c 0,61,49
 656 637 656 637 647.5 645 c 128,-1,50
79 121 m 0,62,63
 79 85 79 85 113 85 c 0,64,65
 127 85 127 85 142.5 103.5 c 128,-1,66
 158 122 158 122 164 162 c 2,67,-1
 172 224 l 1,68,69
 79 170 79 170 79 121 c 0,62,63
EndSplineSet
EndChar

StartChar: L
Encoding: 76 76 47
Width: 464
GlyphClass: 2
Flags: W
LayerCount: 2
Fore
SplineSet
387 87 m 0,0,1
 398 83 398 83 411.5 83 c 128,-1,2
 425 83 425 83 437.5 86 c 128,-1,3
 450 89 450 89 460.5 100.5 c 128,-1,4
 471 112 471 112 477 119 c 128,-1,5
 483 126 483 126 492 150 c 0,6,7
 503 178 503 178 519 229 c 1,8,9
 561 190 561 190 569 170 c 1,10,11
 521 -6 521 -6 400 -6 c 0,12,13
 343 -6 343 -6 255 68 c 1,14,15
 209 -6 209 -6 112 -6 c 0,16,17
 69 -6 69 -6 34.5 23 c 128,-1,18
 0 52 0 52 0 106 c 128,-1,19
 0 160 0 160 36 194.5 c 128,-1,20
 72 229 72 229 129 229 c 0,21,22
 140 229 140 229 160 227 c 1,23,-1
 174 354 l 1,24,25
 130 340 130 340 38 318 c 1,26,-1
 38 393 l 1,27,28
 113 410 113 410 182 431 c 1,29,-1
 202 594 l 2,30,31
 223 761 223 761 372 761 c 0,32,33
 431 761 431 761 466.5 728.5 c 128,-1,34
 502 696 502 696 502 637 c 0,35,36
 502 495 502 495 319 408 c 1,37,-1
 289 172 l 1,38,-1
 288 162 l 1,39,40
 362 96 362 96 387 87 c 0,0,1
427 629 m 0,41,42
 427 671 427 671 392 671 c 0,43,44
 350 671 350 671 339 572 c 1,45,-1
 329 493 l 1,46,47
 427 551 427 551 427 629 c 0,41,42
76 113 m 0,48,49
 76 83 76 83 110 83 c 0,50,51
 143 83 143 83 151 142 c 1,52,53
 132 150 132 150 115.5 150 c 128,-1,54
 99 150 99 150 87.5 139 c 128,-1,55
 76 128 76 128 76 113 c 0,48,49
EndSplineSet
EndChar

StartChar: M
Encoding: 77 77 48
Width: 810
GlyphClass: 2
Flags: W
LayerCount: 2
Fore
SplineSet
660 754 m 1,0,1
 681 762 681 762 719 762 c 128,-1,2
 757 762 757 762 787 757 c 1,3,4
 756 527 756 527 738.5 340.5 c 128,-1,5
 721 154 721 154 719.5 144 c 128,-1,6
 718 134 718 134 718 126 c 0,7,8
 719 100 719 100 743 100 c 0,9,10
 803 100 803 100 910 238 c 1,11,12
 929 185 929 185 932 167 c 1,13,14
 884 91 884 91 816.5 42.5 c 128,-1,15
 749 -6 749 -6 689 -6 c 128,-1,16
 629 -6 629 -6 606 25 c 128,-1,17
 583 56 583 56 583 94 c 0,18,19
 583 103 583 103 585.5 129 c 128,-1,20
 588 155 588 155 625 453 c 1,21,-1
 461 74 l 1,22,-1
 376 74 l 1,23,-1
 327 447 l 1,24,-1
 257 137 l 2,25,26
 240 63 240 63 201.5 28 c 128,-1,27
 163 -7 163 -7 117 -7 c 128,-1,28
 71 -7 71 -7 42 20 c 0,29,30
 11 49 11 49 11 102 c 0,31,32
 11 208 11 208 175 283 c 1,33,34
 264 710 264 710 271 756 c 1,35,36
 295 762 295 762 335.5 762 c 128,-1,37
 376 762 376 762 391 760 c 1,38,-1
 398 760 l 1,39,-1
 460 295 l 1,40,-1
 660 749 l 1,41,-1
 660 754 l 1,0,1
82 119 m 0,42,43
 82 87 82 87 107 87 c 0,44,45
 124 87 124 87 135 114 c 0,46,47
 149 147 149 147 158 201 c 1,48,49
 82 158 82 158 82 119 c 0,42,43
EndSplineSet
EndChar

StartChar: N
Encoding: 78 78 49
Width: 730
GlyphClass: 2
Flags: W
LayerCount: 2
Fore
SplineSet
636 727 m 128,-1,1
 669 761 669 761 723 761 c 128,-1,2
 777 761 777 761 802.5 729.5 c 128,-1,3
 828 698 828 698 828 666 c 0,4,5
 828 656 828 656 826 646 c 0,6,7
 804 535 804 535 679 473 c 1,8,-1
 609 0 l 1,9,-1
 441 0 l 1,10,-1
 322 527 l 1,11,-1
 267 137 l 2,12,13
 256 63 256 63 221.5 28 c 128,-1,14
 187 -7 187 -7 141 -7 c 128,-1,15
 95 -7 95 -7 64.5 20 c 128,-1,16
 34 47 34 47 27 97 c 0,17,18
 26 105 26 105 26 113 c 0,19,20
 26 212 26 212 175 283 c 1,21,-1
 218 605 l 1,22,23
 243 616 243 616 261.5 616 c 128,-1,24
 280 616 280 616 293 613 c 1,25,26
 270 649 270 649 220 649 c 128,-1,27
 170 649 170 649 132 597 c 1,28,-1
 113 683 l 1,29,30
 132 709 132 709 179.5 735.5 c 128,-1,31
 227 762 227 762 284.5 762 c 128,-1,32
 342 762 342 762 382 727.5 c 128,-1,33
 422 693 422 693 440 612 c 1,34,-1
 534 216 l 1,35,-1
 592 616 l 2,36,0
 603 693 603 693 636 727 c 128,-1,1
692 559 m 1,37,38
 754 603 754 603 754 641 c 0,39,40
 754 648 754 648 749 657 c 128,-1,41
 744 666 744 666 734 666 c 0,42,43
 715 666 715 666 708 645 c 0,44,45
 698 616 698 616 692 559 c 1,37,38
96 124 m 128,-1,47
 96 87 96 87 123 87 c 0,48,49
 141 87 141 87 149 110.5 c 128,-1,50
 157 134 157 134 164 195 c 1,51,-1
 165 200 l 1,52,46
 96 161 96 161 96 124 c 128,-1,47
EndSplineSet
EndChar

StartChar: O
Encoding: 79 79 50
Width: 747
GlyphClass: 2
Flags: W
LayerCount: 2
Fore
SplineSet
925 402 m 1,0,1
 902 377 902 377 849 357.5 c 128,-1,2
 796 338 796 338 764.5 338 c 128,-1,3
 733 338 733 338 718 340 c 1,4,5
 693 192 693 192 590.5 93 c 128,-1,6
 488 -6 488 -6 352.5 -6 c 128,-1,7
 217 -6 217 -6 148.5 78 c 128,-1,8
 80 162 80 162 80 297 c 0,9,10
 80 385 80 385 107 468.5 c 128,-1,11
 134 552 134 552 181.5 617 c 128,-1,12
 229 682 229 682 301 721.5 c 128,-1,13
 373 761 373 761 451.5 761 c 128,-1,14
 530 761 530 761 580.5 725.5 c 128,-1,15
 631 690 631 690 631 627 c 0,16,17
 631 579 631 579 597.5 541.5 c 128,-1,18
 564 504 564 504 505 504 c 0,19,20
 474 504 474 504 450 519.5 c 128,-1,21
 426 535 426 535 426 569 c 0,22,23
 426 585 426 585 434 597 c 128,-1,24
 442 609 442 609 450 612 c 2,25,-1
 459 616 l 1,26,27
 459 576 459 576 491 576 c 0,28,29
 506 576 506 576 517 586.5 c 128,-1,30
 528 597 528 597 529 610 c 128,-1,31
 530 623 530 623 528 630.5 c 128,-1,32
 526 638 526 638 520 648 c 0,33,34
 506 673 506 673 461 673 c 0,35,36
 402 673 402 673 349 617 c 128,-1,37
 296 561 296 561 264.5 473 c 128,-1,38
 233 385 233 385 233 293 c 0,39,40
 233 216 233 216 258 156 c 0,41,42
 272 124 272 124 299 105.5 c 128,-1,43
 326 87 326 87 364 87 c 0,44,45
 427 87 427 87 476.5 140 c 128,-1,46
 526 193 526 193 549.5 268 c 128,-1,47
 573 343 573 343 573 420 c 2,48,-1
 573 432 l 1,49,50
 570 443 570 443 570 453 c 0,51,52
 570 501 570 501 604 526 c 0,53,54
 626 542 626 542 659 542 c 0,55,56
 668 542 668 542 688 539 c 128,-1,57
 708 536 708 536 716 530 c 1,58,59
 695 529 695 529 683.5 516 c 128,-1,60
 672 503 672 503 672 481 c 128,-1,61
 672 459 672 459 692 440 c 0,62,63
 720 413 720 413 779.5 413 c 128,-1,64
 839 413 839 413 903 462 c 1,65,-1
 925 402 l 1,0,1
EndSplineSet
EndChar

StartChar: P
Encoding: 80 80 51
Width: 619
GlyphClass: 2
Flags: W
LayerCount: 2
Fore
SplineSet
19 545 m 0,0,1
 19 641 19 641 104 701 c 128,-1,2
 189 761 189 761 331 761 c 0,3,4
 416 761 416 761 480 741.5 c 128,-1,5
 544 722 544 722 578 688 c 0,6,7
 646 621 646 621 646 534 c 128,-1,8
 646 447 646 447 576.5 388.5 c 128,-1,9
 507 330 507 330 399 330 c 0,10,11
 387 330 387 330 363 332 c 1,12,-1
 372 405 l 1,13,14
 505 405 505 405 505 530 c 0,15,16
 505 588 505 588 456 628 c 0,17,18
 405 670 405 670 304 670 c 256,19,20
 203 670 203 670 144 618 c 0,21,22
 109 588 109 588 109 553 c 0,23,24
 109 487 109 487 188 478 c 1,25,-1
 176 404 l 1,26,27
 107 407 107 407 63 448 c 128,-1,28
 19 489 19 489 19 545 c 0,0,1
371 618 m 1,29,-1
 327 332 l 1,30,31
 454 271 454 271 454 152 c 0,32,33
 454 65 454 65 408.5 29.5 c 128,-1,34
 363 -6 363 -6 299 -6 c 128,-1,35
 235 -6 235 -6 199 27 c 128,-1,36
 163 60 163 60 163 116 c 0,37,38
 163 129 163 129 164 136 c 2,39,-1
 224 599 l 1,40,41
 276 624 276 624 312 624 c 128,-1,42
 348 624 348 624 371 618 c 1,29,-1
328 85 m 0,43,44
 352 85 352 85 369.5 102 c 128,-1,45
 387 119 387 119 387 159 c 0,46,47
 387 230 387 230 319 271 c 1,48,49
 303 154 303 154 303 130.5 c 128,-1,50
 303 107 303 107 310.5 96 c 128,-1,51
 318 85 318 85 328 85 c 0,43,44
EndSplineSet
EndChar

StartChar: Q
Encoding: 81 81 52
Width: 729
GlyphClass: 2
Flags: W
LayerCount: 2
Fore
SplineSet
543 425 m 0,0,1
 543 452 543 452 536 469 c 1,2,3
 546 484 546 484 567.5 493.5 c 128,-1,4
 589 503 589 503 608.5 503 c 128,-1,5
 628 503 628 503 643 497 c 1,6,7
 694 472 694 472 694 407 c 0,8,9
 694 234 694 234 575 108 c 1,10,11
 604 77 604 77 629 77 c 0,12,13
 671 77 671 77 671 118 c 0,14,15
 671 129 671 129 668 141 c 1,16,17
 715 119 715 119 715 75.5 c 128,-1,18
 715 32 715 32 687 11 c 128,-1,19
 659 -10 659 -10 620 -10 c 0,20,21
 562 -10 562 -10 509 53 c 1,22,23
 418 -6 418 -6 316 -6 c 0,24,25
 187 -6 187 -6 118.5 78 c 128,-1,26
 50 162 50 162 50 297 c 0,27,28
 50 385 50 385 77 468.5 c 128,-1,29
 104 552 104 552 151.5 617 c 128,-1,30
 199 682 199 682 271 721.5 c 128,-1,31
 343 761 343 761 421.5 761 c 128,-1,32
 500 761 500 761 550.5 725.5 c 128,-1,33
 601 690 601 690 601 627 c 0,34,35
 601 579 601 579 567.5 541.5 c 128,-1,36
 534 504 534 504 475 504 c 0,37,38
 444 504 444 504 420 519.5 c 128,-1,39
 396 535 396 535 396 569 c 0,40,41
 396 585 396 585 404 597 c 128,-1,42
 412 609 412 609 420 612 c 2,43,-1
 429 616 l 1,44,45
 429 576 429 576 461 576 c 0,46,47
 476 576 476 576 487 586.5 c 128,-1,48
 498 597 498 597 499 610 c 128,-1,49
 500 623 500 623 498 630.5 c 128,-1,50
 496 638 496 638 490 648 c 0,51,52
 476 673 476 673 431 673 c 0,53,54
 372 673 372 673 319 617 c 128,-1,55
 266 561 266 561 234.5 473 c 128,-1,56
 203 385 203 385 203 293 c 0,57,58
 203 216 203 216 228 156 c 0,59,60
 242 124 242 124 269 105.5 c 128,-1,61
 296 87 296 87 334 87 c 0,62,63
 397 87 397 87 446 141 c 1,64,65
 393 222 393 222 356 222 c 0,66,67
 351 222 351 222 330 215 c 1,68,-1
 345 268 l 1,69,70
 365 285 365 285 392 285 c 0,71,72
 441 285 441 285 496 215 c 1,73,74
 543 311 543 311 543 425 c 0,0,1
EndSplineSet
EndChar

StartChar: R
Encoding: 82 82 53
Width: 669
GlyphClass: 2
Flags: W
LayerCount: 2
Fore
SplineSet
747 215 m 1,0,-1
 779 166 l 1,1,2
 730 -6 730 -6 576 -6 c 0,3,4
 541 -6 541 -6 515.5 7 c 128,-1,5
 490 20 490 20 477 38 c 128,-1,6
 464 56 464 56 456 84 c 0,7,8
 445 126 445 126 444.5 195 c 128,-1,9
 444 264 444 264 427.5 290 c 128,-1,10
 411 316 411 316 365 319 c 1,11,-1
 376 404 l 1,12,13
 378 404 378 404 379 404 c 0,14,15
 437 404 437 404 475 437 c 0,16,17
 516 474 516 474 516 532 c 128,-1,18
 516 590 516 590 461.5 630 c 128,-1,19
 407 670 407 670 321 670 c 0,20,21
 210 670 210 670 150 615 c 0,22,23
 118 585 118 585 118 543 c 0,24,25
 118 490 118 490 199 479 c 1,26,-1
 185 404 l 1,27,28
 124 407 124 407 77 445 c 128,-1,29
 30 483 30 483 30 543 c 0,30,31
 30 648 30 648 118 704.5 c 128,-1,32
 206 761 206 761 341 761 c 0,33,34
 428 761 428 761 494 740 c 1,35,36
 607 702 607 702 644 608 c 0,37,38
 656 575 656 575 656 554.5 c 128,-1,39
 656 534 656 534 656 527 c 0,40,41
 652 472 652 472 615.5 419 c 128,-1,42
 579 366 579 366 506 346 c 1,43,44
 550 337 550 337 566 308 c 128,-1,45
 582 279 582 279 583 220 c 0,46,47
 584 119 584 119 592.5 97.5 c 128,-1,48
 601 76 601 76 628 76 c 0,49,50
 701 76 701 76 747 215 c 1,0,-1
134 -6 m 0,51,52
 81 -6 81 -6 49 26 c 128,-1,53
 17 58 17 58 17 105 c 0,54,55
 17 227 17 227 196 309 c 1,56,57
 232 589 232 589 233 596 c 1,58,59
 275 623 275 623 328 623 c 0,60,61
 350 623 350 623 378 617 c 1,62,-1
 315 190 l 1,63,64
 285 -6 285 -6 134 -6 c 0,51,52
91 117 m 0,65,66
 91 85 91 85 125 85 c 0,67,68
 165 85 165 85 176 157 c 1,69,-1
 185 225 l 1,70,71
 91 170 91 170 91 117 c 0,65,66
EndSplineSet
EndChar

StartChar: S
Encoding: 83 83 54
Width: 488
GlyphClass: 2
Flags: W
LayerCount: 2
Fore
SplineSet
418 504 m 1,0,1
 448 549 448 549 448 588 c 128,-1,2
 448 627 448 627 426 650 c 128,-1,3
 404 673 404 673 368 673 c 128,-1,4
 332 673 332 673 310 655.5 c 128,-1,5
 288 638 288 638 288 600.5 c 128,-1,6
 288 563 288 563 340 466 c 128,-1,7
 392 369 392 369 406 341 c 0,8,9
 444 265 444 265 444 194 c 0,10,11
 444 105 444 105 379.5 49.5 c 128,-1,12
 315 -6 315 -6 227.5 -6 c 128,-1,13
 140 -6 140 -6 90 48.5 c 128,-1,14
 40 103 40 103 40 176 c 0,15,16
 40 311 40 311 207 399 c 1,17,18
 139 533 139 533 139 586 c 0,19,20
 139 660 139 660 198.5 711.5 c 128,-1,21
 258 763 258 763 344.5 763 c 128,-1,22
 431 763 431 763 477 719 c 128,-1,23
 523 675 523 675 523 607 c 0,24,25
 523 562 523 562 493 504 c 1,26,-1
 418 504 l 1,0,1
221.5 85 m 128,-1,28
 260 85 260 85 281.5 107.5 c 128,-1,29
 303 130 303 130 303 174 c 0,30,31
 303 214 303 214 272 272 c 0,32,33
 268 280 268 280 257 301.5 c 128,-1,34
 246 323 246 323 241 332 c 1,35,36
 129 274 129 274 129 186 c 0,37,38
 129 141 129 141 156 114 c 1,39,27
 183 85 183 85 221.5 85 c 128,-1,28
EndSplineSet
EndChar

StartChar: T
Encoding: 84 84 55
Width: 404
GlyphClass: 2
Flags: W
LayerCount: 2
Fore
SplineSet
198 566 m 128,-1,1
 157 536 157 536 109 536 c 128,-1,2
 61 536 61 536 30.5 564 c 128,-1,3
 0 592 0 592 0 647 c 128,-1,4
 0 702 0 702 49 731.5 c 128,-1,5
 98 761 98 761 164 761 c 2,6,-1
 561 761 l 1,7,8
 564 747 564 747 564 734 c 0,9,10
 564 700 564 700 542 671 c 128,-1,11
 520 642 520 642 475 642 c 0,12,13
 473 642 473 642 472 642 c 2,14,-1
 260 642 l 1,15,0
 239 596 239 596 198 566 c 128,-1,1
130 642 m 2,16,17
 93 642 93 642 93 616 c 0,18,19
 93 595 93 595 125 595 c 0,20,21
 140 595 140 595 160.5 608 c 128,-1,22
 181 621 181 621 195 642 c 1,23,-1
 130 642 l 2,16,17
160 -4 m 0,25,26
 106 -4 106 -4 73.5 29 c 128,-1,27
 41 62 41 62 41 112 c 0,28,29
 41 229 41 229 219 312 c 1,30,-1
 254 578 l 1,31,32
 295 604 295 604 349 604 c 0,33,34
 374 604 374 604 397 599 c 1,35,-1
 337 192 l 1,36,24
 312 -4 312 -4 160 -4 c 0,25,26
115 123 m 0,38,39
 115 87 115 87 150 87 c 0,40,41
 190 87 190 87 200 164 c 2,42,-1
 208 227 l 1,43,37
 115 173 115 173 115 123 c 0,38,39
EndSplineSet
EndChar

StartChar: U
Encoding: 85 85 56
Width: 602
GlyphClass: 2
Flags: W
LayerCount: 2
Fore
SplineSet
479.5 753.5 m 128,-1,1
 512 761 512 761 541 761 c 128,-1,2
 570 761 570 761 589 753 c 1,3,4
 516 169 516 169 516 149 c 128,-1,5
 516 129 516 129 528.5 113.5 c 128,-1,6
 541 98 541 98 565 98 c 0,7,8
 631 98 631 98 683 279 c 0,9,10
 683 281 683 281 684 284 c 128,-1,11
 685 287 685 287 685 288 c 1,12,13
 729 260 729 260 742 253 c 1,14,15
 709 127 709 127 660 60.5 c 128,-1,16
 611 -6 611 -6 534 -6 c 128,-1,17
 457 -6 457 -6 430 67 c 1,18,-1
 427 67 l 1,19,20
 396 28 396 28 358 11 c 128,-1,21
 320 -6 320 -6 263 -6 c 0,22,23
 169 -6 169 -6 118.5 43 c 128,-1,24
 68 92 68 92 68 183 c 0,25,26
 68 202 68 202 71 225 c 2,27,-1
 99 459 l 1,28,29
 0 529 0 529 0 624 c 0,30,31
 0 687 0 687 38 724 c 128,-1,32
 76 761 76 761 135 761 c 0,33,34
 258 761 258 761 258 631 c 0,35,36
 258 610 258 610 255 584 c 2,37,-1
 204 193 l 2,38,39
 203 186 203 186 203 172 c 0,40,41
 203 133 203 133 221 109 c 128,-1,42
 239 85 239 85 276 85 c 0,43,44
 365 85 365 85 381 223 c 2,45,-1
 441 738 l 1,46,0
 447 746 447 746 479.5 753.5 c 128,-1,1
98 669 m 0,47,48
 64 669 64 669 64 627.5 c 128,-1,49
 64 586 64 586 110 546 c 1,50,-1
 113 572 l 2,51,52
 119 624 119 624 120 637 c 1,53,54
 120 669 120 669 98 669 c 0,47,48
EndSplineSet
EndChar

StartChar: V
Encoding: 86 86 57
Width: 673
GlyphClass: 2
Flags: W
LayerCount: 2
Fore
SplineSet
700 761 m 0,0,1
 747 761 747 761 774.5 733.5 c 128,-1,2
 802 706 802 706 802 664 c 0,3,4
 802 588 802 588 748 540 c 128,-1,5
 694 492 694 492 605 450 c 1,6,7
 533 264 533 264 433 0 c 1,8,-1
 267 0 l 1,9,10
 233 476 233 476 226.5 553.5 c 128,-1,11
 220 631 220 631 212.5 645 c 128,-1,12
 205 659 205 659 184 659 c 0,13,14
 131 659 131 659 75 472 c 1,15,16
 27 495 27 495 8 506 c 1,17,18
 59 671 59 671 124 727 c 0,19,20
 168 765 168 765 229 765 c 0,21,22
 284 765 284 765 314 729 c 128,-1,23
 344 693 344 693 354 589 c 0,24,25
 359 534 359 534 368.5 373.5 c 128,-1,26
 378 213 378 213 382 161 c 1,27,-1
 388 161 l 1,28,-1
 541 586 l 2,29,30
 574 679 574 679 597 709 c 0,31,32
 635 761 635 761 700 761 c 0,0,1
734 635 m 0,33,34
 734 648 734 648 726 656 c 128,-1,35
 718 664 718 664 704.5 664 c 128,-1,36
 691 664 691 664 681.5 643 c 128,-1,37
 672 622 672 622 640 541 c 1,38,39
 734 590 734 590 734 635 c 0,33,34
EndSplineSet
EndChar

StartChar: W
Encoding: 87 87 58
Width: 827
GlyphClass: 2
Flags: W
LayerCount: 2
Fore
SplineSet
558 693 m 1,0,-1
 557 680 l 1,1,2
 519 388 519 388 507 320 c 0,3,4
 487 208 487 208 487 149.5 c 128,-1,5
 487 91 487 91 537 91 c 0,6,7
 579 91 579 91 612 151.5 c 128,-1,8
 645 212 645 212 662 302 c 0,9,10
 697 490 697 490 697 627 c 0,11,12
 697 691 697 691 686 738 c 1,13,14
 726 762 726 762 782 762 c 128,-1,15
 838 762 838 762 838 696 c 0,16,17
 838 593 838 593 806 383 c 0,18,19
 780 208 780 208 734 126 c 1,20,21
 713 91 713 91 686 59 c 0,22,23
 630 -6 630 -6 529.5 -6 c 128,-1,24
 429 -6 429 -6 386 80 c 1,25,26
 331 -6 331 -6 219 -6 c 0,27,28
 147 -6 147 -6 107.5 35.5 c 128,-1,29
 68 77 68 77 68 146 c 0,30,31
 68 155 68 155 70 173 c 2,32,-1
 107 455 l 1,33,34
 0 532 0 532 0 628 c 0,35,36
 0 689 0 689 42 725 c 128,-1,37
 84 761 84 761 144 761 c 0,38,39
 275 761 275 761 275 631 c 0,40,41
 275 629 275 629 274.5 626 c 128,-1,42
 274 623 274 623 273.5 616.5 c 128,-1,43
 273 610 273 610 271.5 601.5 c 128,-1,44
 270 593 270 593 267.5 576 c 128,-1,45
 265 559 265 559 262 538.5 c 128,-1,46
 259 518 259 518 254 484 c 128,-1,47
 249 450 249 450 243.5 410.5 c 128,-1,48
 238 371 238 371 230 314 c 128,-1,49
 222 257 222 257 216 217 c 128,-1,50
 210 177 210 177 210 159 c 0,51,52
 210 92 210 92 262 92 c 0,53,54
 334 92 334 92 351 223 c 2,55,-1
 415 728 l 1,56,57
 448 743 448 743 494 743 c 0,58,59
 558 743 558 743 558 693 c 1,0,-1
105 681 m 0,60,61
 86 681 86 681 77 667 c 128,-1,62
 68 653 68 653 68 635 c 0,63,64
 68 590 68 590 118 542 c 1,65,-1
 123 582 l 2,66,67
 127 615 127 615 127.5 648 c 128,-1,68
 128 681 128 681 105 681 c 0,60,61
EndSplineSet
EndChar

StartChar: X
Encoding: 88 88 59
Width: 736
GlyphClass: 2
Flags: W
LayerCount: 2
Fore
SplineSet
83 697 m 1,0,1
 133 774 133 774 226 774 c 0,2,3
 265 774 265 774 304.5 748 c 128,-1,4
 344 722 344 722 368 648 c 2,5,-1
 417 494 l 1,6,-1
 486 612 l 2,7,8
 526 680 526 680 553 710 c 0,9,10
 602 763 602 763 651 763 c 128,-1,11
 700 763 700 763 731.5 734 c 128,-1,12
 763 705 763 705 763 664 c 0,13,14
 763 591 763 591 704 542 c 1,15,16
 652 497 652 497 498 468 c 1,17,-1
 450 391 l 1,18,19
 492 262 492 262 513 199.5 c 128,-1,20
 534 137 534 137 551.5 111 c 128,-1,21
 569 85 569 85 590.5 85 c 128,-1,22
 612 85 612 85 628 92 c 128,-1,23
 644 99 644 99 653 106.5 c 128,-1,24
 662 114 662 114 673.5 124.5 c 128,-1,25
 685 135 685 135 688 137 c 1,26,-1
 701 63 l 1,27,28
 688 44 688 44 646 19 c 128,-1,29
 604 -6 604 -6 560 -6 c 0,30,31
 485 -6 485 -6 440.5 30.5 c 128,-1,32
 396 67 396 67 361 183 c 2,33,-1
 340 253 l 1,34,-1
 280 151 l 2,35,36
 229 63 229 63 204 37 c 0,37,38
 164 -6 164 -6 120 -6 c 128,-1,39
 76 -6 76 -6 43 22 c 128,-1,40
 10 50 10 50 10 95 c 128,-1,41
 10 140 10 140 29.5 173 c 128,-1,42
 49 206 49 206 86 228 c 1,43,44
 152 265 152 265 259 286 c 1,45,46
 285 328 285 328 307 360 c 1,47,-1
 240 584 l 2,48,49
 236 595 236 595 229.5 617 c 128,-1,50
 223 639 223 639 219 649 c 128,-1,51
 215 659 215 659 208 671 c 0,52,53
 195 693 195 693 167.5 687 c 128,-1,54
 140 681 140 681 96 625 c 1,55,-1
 83 697 l 1,0,1
687 632 m 0,56,57
 687 659 687 659 651 659 c 0,58,59
 627 659 627 659 608.5 637.5 c 128,-1,60
 590 616 590 616 573.5 588 c 128,-1,61
 557 560 557 560 555.5 558 c 128,-1,62
 554 556 554 556 552.5 553 c 128,-1,63
 551 550 551 550 549 547 c 1,64,65
 687 580 687 580 687 632 c 0,56,57
122 98 m 0,66,67
 141 98 141 98 159 122 c 0,68,69
 182 154 182 154 213 207 c 1,70,71
 86 176 86 176 86 125 c 0,72,73
 86 98 86 98 122 98 c 0,66,67
EndSplineSet
EndChar

StartChar: Y
Encoding: 89 89 60
Width: 644
GlyphClass: 2
Flags: W
LayerCount: 2
Fore
SplineSet
313 643 m 1,0,-1
 312 626 l 2,1,2
 309 579 309 579 284 394 c 0,3,4
 253 172 253 172 253 162 c 0,5,6
 253 132 253 132 272 111.5 c 128,-1,7
 291 91 291 91 322.5 91 c 128,-1,8
 354 91 354 91 380.5 112.5 c 128,-1,9
 407 134 407 134 421 164 c 1,10,-1
 477 675 l 2,11,12
 482 721 482 721 514.5 741.5 c 128,-1,13
 547 762 547 762 583 762 c 0,14,15
 607 762 607 762 633 752 c 1,16,-1
 566 198 l 1,17,18
 698 259 698 259 729 270 c 1,19,-1
 744 200 l 1,20,21
 656 164 656 164 557 117 c 1,22,-1
 532 -87 l 2,23,24
 526 -141 526 -141 505.5 -179.5 c 128,-1,25
 485 -218 485 -218 456 -238 c 0,26,27
 403 -274 403 -274 340.5 -274 c 128,-1,28
 278 -274 278 -274 236.5 -228.5 c 128,-1,29
 195 -183 195 -183 195 -119 c 128,-1,30
 195 -55 195 -55 237 -3 c 1,31,32
 184 6 184 6 149 43.5 c 128,-1,33
 114 81 114 81 114 136 c 0,34,35
 114 142 114 142 116 158 c 2,36,-1
 148 404 l 1,37,38
 25 482 25 482 25 596 c 0,39,40
 25 702 25 702 102 742 c 1,41,42
 138 762 138 762 184.5 762 c 128,-1,43
 231 762 231 762 272 732.5 c 128,-1,44
 313 703 313 703 313 643 c 1,0,-1
147 681 m 0,45,46
 123 681 123 681 107.5 658 c 128,-1,47
 92 635 92 635 92 603 c 0,48,49
 92 533 92 533 158 488 c 1,50,-1
 177 632 l 1,51,52
 177 673 177 673 157 680 c 0,53,54
 153 681 153 681 147 681 c 0,45,46
271 -106 m 0,55,56
 271 -139 271 -139 287.5 -157 c 128,-1,57
 304 -175 304 -175 327 -175 c 128,-1,58
 350 -175 350 -175 368 -158.5 c 128,-1,59
 386 -142 386 -142 390 -112 c 2,60,-1
 408 45 l 1,61,62
 271 -30 271 -30 271 -106 c 0,55,56
EndSplineSet
EndChar

StartChar: Z
Encoding: 90 90 61
Width: 535
GlyphClass: 2
Flags: W
LayerCount: 2
Fore
SplineSet
553.5 210 m 128,-1,1
 590 177 590 177 590 127 c 128,-1,2
 590 77 590 77 552 38.5 c 128,-1,3
 514 0 514 0 437 0 c 2,4,-1
 29 0 l 1,5,6
 19 25 19 25 19 53 c 128,-1,7
 19 81 19 81 40 109 c 1,8,-1
 387 642 l 1,9,-1
 353 642 l 1,10,11
 326 589 326 589 276 554 c 128,-1,12
 226 519 226 519 164.5 518.5 c 128,-1,13
 103 518 103 518 66.5 551 c 128,-1,14
 30 584 30 584 30 634 c 128,-1,15
 30 684 30 684 68 722.5 c 128,-1,16
 106 761 106 761 183 761 c 2,17,-1
 581 761 l 1,18,19
 586 744 586 744 586 727 c 0,20,21
 586 696 586 696 567 670 c 1,22,-1
 210 119 l 1,23,-1
 267 119 l 1,24,25
 294 172 294 172 344 207 c 128,-1,26
 394 242 394 242 455.5 242.5 c 128,-1,0
 517 243 517 243 553.5 210 c 128,-1,1
182 642 m 2,27,28
 117 642 117 642 117 611 c 128,-1,29
 117 580 117 580 178 580 c 128,-1,30
 239 580 239 580 283 642 c 1,31,-1
 182 642 l 2,27,28
438 119 m 2,32,33
 503 119 503 119 503 150 c 128,-1,34
 503 181 503 181 442 181 c 128,-1,35
 381 181 381 181 337 119 c 1,36,-1
 438 119 l 2,32,33
EndSplineSet
EndChar

StartChar: bracketleft
Encoding: 91 91 62
Width: 446
GlyphClass: 2
Flags: W
LayerCount: 2
Fore
SplineSet
19 -125 m 1,0,-1
 19 -123 l 1,1,-1
 18 -123 l 1,2,-1
 134 759 l 1,3,-1
 134 760 l 1,4,-1
 426 760 l 1,5,-1
 415 685 l 1,6,-1
 206 685 l 1,7,-1
 111 -50 l 1,8,-1
 322 -50 l 1,9,-1
 313 -125 l 1,10,-1
 19 -125 l 1,0,-1
EndSplineSet
EndChar

StartChar: backslash
Encoding: 92 92 63
Width: 520
GlyphClass: 2
Flags: W
LayerCount: 2
Fore
SplineSet
20 761 m 1,0,-1
 103 761 l 1,1,-1
 500 -100 l 1,2,-1
 417 -100 l 1,3,-1
 20 761 l 1,0,-1
EndSplineSet
EndChar

StartChar: bracketright
Encoding: 93 93 64
Width: 448
GlyphClass: 2
Flags: W
LayerCount: 2
Fore
SplineSet
425 761 m 1,0,-1
 425 759 l 1,1,-1
 426 759 l 1,2,-1
 310 -123 l 1,3,-1
 310 -124 l 1,4,-1
 18 -124 l 1,5,-1
 29 -49 l 1,6,-1
 238 -49 l 1,7,-1
 333 686 l 1,8,-1
 122 686 l 1,9,-1
 131 761 l 1,10,-1
 425 761 l 1,0,-1
EndSplineSet
EndChar

StartChar: asciicircum
Encoding: 94 94 65
Width: 600
GlyphClass: 2
Flags: W
LayerCount: 2
Fore
SplineSet
330 527 m 1,0,-1
 157 207 l 1,1,-1
 60 207 l 1,2,-1
 352 720 l 1,3,-1
 570 207 l 1,4,-1
 473 207 l 1,5,-1
 330 527 l 1,0,-1
EndSplineSet
EndChar

StartChar: underscore
Encoding: 95 95 66
Width: 560
GlyphClass: 2
Flags: W
LayerCount: 2
Fore
SplineSet
10 -1 m 1,0,-1
 560 -1 l 1,1,-1
 549 -87 l 1,2,-1
 0 -87 l 1,3,-1
 10 -1 l 1,0,-1
EndSplineSet
EndChar

StartChar: grave
Encoding: 96 96 67
Width: 238
GlyphClass: 2
Flags: W
LayerCount: 2
Fore
SplineSet
101 737 m 1,0,-1
 228 550 l 1,1,2
 202 520 202 520 190 513 c 1,3,-1
 10 646 l 1,4,5
 27 670 27 670 54 698.5 c 128,-1,6
 81 727 81 727 101 737 c 1,0,-1
EndSplineSet
EndChar

StartChar: a
Encoding: 97 97 68
Width: 548
GlyphClass: 2
Flags: W
LayerCount: 2
Fore
SplineSet
478 -5 m 0,0,1
 386 -5 386 -5 356 59 c 1,2,3
 304 -6 304 -6 222.5 -6 c 128,-1,4
 141 -6 141 -6 85.5 49 c 128,-1,5
 30 104 30 104 30 194 c 0,6,7
 30 325 30 325 107 403 c 128,-1,8
 184 481 184 481 302 481 c 0,9,10
 305 481 305 481 308 481 c 0,11,12
 358 481 358 481 400 464 c 1,13,14
 427 481 427 481 465.5 481 c 128,-1,15
 504 481 504 481 521 471 c 1,16,17
 512 397 512 397 502 325.5 c 128,-1,18
 492 254 492 254 488 224 c 0,19,20
 479 156 479 156 479 126 c 0,21,22
 479 86 479 86 511 86 c 0,23,24
 536 86 536 86 564 119.5 c 128,-1,25
 592 153 592 153 613 225 c 1,26,27
 642 199 642 199 653 167 c 1,28,29
 624 72 624 72 575 33.5 c 128,-1,30
 526 -5 526 -5 478 -5 c 0,0,1
317 403 m 0,31,32
 253 403 253 403 215.5 354.5 c 128,-1,33
 178 306 178 306 171 210 c 0,34,35
 170 201 170 201 170 193 c 0,36,37
 170 144 170 144 193.5 115 c 128,-1,38
 217 86 217 86 254 86 c 0,39,40
 317 86 317 86 349 175 c 1,41,-1
 373 391 l 1,42,43
 344 403 344 403 317 403 c 0,31,32
EndSplineSet
EndChar

StartChar: b
Encoding: 98 98 69
Width: 512
GlyphClass: 2
Flags: W
LayerCount: 2
Fore
SplineSet
450 423 m 128,-1,1
 502 364 502 364 502 285 c 0,2,3
 502 274 502 274 501 262 c 0,4,5
 490 131 490 131 413 62.5 c 128,-1,6
 336 -6 336 -6 212 -6 c 1,7,8
 162 -4 162 -4 125 12 c 128,-1,9
 88 28 88 28 70 52 c 0,10,11
 36 96 36 96 36 130.5 c 128,-1,12
 36 165 36 165 46 242 c 0,13,14
 67 400 67 400 106 753 c 1,15,16
 127 761 127 761 162 761 c 0,17,18
 242 761 242 761 242 715 c 1,19,-1
 208 449 l 1,20,21
 255 482 255 482 326.5 482 c 128,-1,0
 398 482 398 482 450 423 c 128,-1,1
188.5 98.5 m 128,-1,23
 206 83 206 83 237 83 c 0,24,25
 288 83 288 83 321 130 c 0,26,27
 361 187 361 187 361 278 c 0,28,29
 361 322 361 322 341 356 c 128,-1,30
 321 390 321 390 279 390 c 0,31,32
 222 390 222 390 192 322 c 1,33,-1
 184 262 l 2,34,35
 171 161 171 161 171 137.5 c 128,-1,22
 171 114 171 114 188.5 98.5 c 128,-1,23
EndSplineSet
EndChar

StartChar: c
Encoding: 99 99 70
Width: 469
GlyphClass: 2
Flags: W
LayerCount: 2
Fore
SplineSet
346 339 m 0,0,1
 346 404 346 404 288 404 c 0,2,3
 245 404 245 404 211 355 c 0,4,5
 175 302 175 302 175 231 c 128,-1,6
 175 160 175 160 206.5 121.5 c 128,-1,7
 238 83 238 83 293 83 c 0,8,9
 359 83 359 83 432.5 137 c 128,-1,10
 506 191 506 191 551 271 c 1,11,12
 571 256 571 256 590 216 c 1,13,14
 561 158 561 158 482 86 c 0,15,16
 441 48 441 48 380 22 c 0,17,18
 314 -6 314 -6 248 -6 c 0,19,20
 159 -6 159 -6 97.5 55 c 128,-1,21
 36 116 36 116 36 214 c 0,22,23
 36 333 36 333 116 407 c 128,-1,24
 196 481 196 481 295 481 c 0,25,26
 372 481 372 481 417 449 c 128,-1,27
 462 417 462 417 462 365 c 0,28,29
 462 331 462 331 438 306 c 0,30,31
 394 262 394 262 331 262 c 1,32,33
 346 312 346 312 346 339 c 0,0,1
EndSplineSet
EndChar

StartChar: d
Encoding: 100 100 71
Width: 548
GlyphClass: 2
Flags: W
LayerCount: 2
Fore
SplineSet
446.5 749.5 m 128,-1,1
 471 761 471 761 505.5 761 c 128,-1,2
 540 761 540 761 557 751 c 1,3,4
 547 673 547 673 525 506 c 0,5,6
 479 157 479 157 479 121.5 c 128,-1,7
 479 86 479 86 509 86 c 0,8,9
 535 86 535 86 563 118.5 c 128,-1,10
 591 151 591 151 614 225 c 1,11,12
 642 198 642 198 653 166 c 1,13,14
 617 47 617 47 540 12 c 0,15,16
 505 -5 505 -5 474 -5 c 0,17,18
 385 -5 385 -5 355 59 c 1,19,20
 303 -6 303 -6 222 -6 c 128,-1,21
 141 -6 141 -6 85.5 49 c 128,-1,22
 30 104 30 104 30 194 c 0,23,24
 30 325 30 325 107 403 c 128,-1,25
 184 481 184 481 302 481 c 0,26,27
 305 481 305 481 308 481 c 0,28,29
 349 481 349 481 385 469 c 1,30,-1
 415 721 l 1,31,0
 422 738 422 738 446.5 749.5 c 128,-1,1
317 403 m 0,32,33
 253 403 253 403 215.5 354.5 c 128,-1,34
 178 306 178 306 171 210 c 0,35,36
 170 201 170 201 170 193 c 0,37,38
 170 144 170 144 193.5 115 c 128,-1,39
 217 86 217 86 254 86 c 0,40,41
 317 86 317 86 349 175 c 1,42,-1
 375 390 l 1,43,44
 342 403 342 403 317 403 c 0,32,33
EndSplineSet
EndChar

StartChar: e
Encoding: 101 101 72
Width: 466
GlyphClass: 2
Flags: W
LayerCount: 2
Fore
SplineSet
311.5 274 m 128,-1,1
 342 311 342 311 342 345.5 c 128,-1,2
 342 380 342 380 323.5 392.5 c 128,-1,3
 305 405 305 405 283 405 c 0,4,5
 236 405 236 405 200.5 352.5 c 128,-1,6
 165 300 165 300 165 227.5 c 128,-1,7
 165 155 165 155 199.5 119.5 c 128,-1,8
 234 84 234 84 285 84 c 0,9,10
 360 84 360 84 429 136 c 128,-1,11
 498 188 498 188 541 272 c 1,12,13
 563 251 563 251 581 220 c 1,14,15
 548 145 548 145 464 73 c 0,16,17
 422 38 422 38 364.5 16 c 128,-1,18
 307 -6 307 -6 246 -6 c 0,19,20
 146 -6 146 -6 88 55 c 0,21,22
 26 121 26 121 26 224 c 128,-1,23
 26 327 26 327 103.5 404 c 128,-1,24
 181 481 181 481 289 481 c 0,25,26
 366 481 366 481 414 447.5 c 128,-1,27
 462 414 462 414 463 357 c 1,28,29
 463 280 463 280 401.5 232 c 128,-1,30
 340 184 340 184 233 165 c 1,31,-1
 219 224 l 1,32,0
 281 237 281 237 311.5 274 c 128,-1,1
EndSplineSet
EndChar

StartChar: f
Encoding: 102 102 73
Width: 403
GlyphClass: 2
Flags: W
LayerCount: 2
Fore
SplineSet
303 -1 m 1,0,1
 358 -98 358 -98 358 -161.5 c 128,-1,2
 358 -225 358 -225 319.5 -264.5 c 128,-1,3
 281 -304 281 -304 219 -304 c 128,-1,4
 157 -304 157 -304 117.5 -269.5 c 128,-1,5
 78 -235 78 -235 78 -174 c 0,6,7
 78 -162 78 -162 82 -126 c 2,8,-1
 113 144 l 1,9,10
 54 223 54 223 16 270 c 1,11,12
 50 317 50 317 73 317 c 0,13,14
 84 317 84 317 93.5 306 c 128,-1,15
 103 295 103 295 126 265 c 1,16,-1
 164 601 l 2,17,18
 172 667 172 667 196 708 c 0,19,20
 228 761 228 761 314 761 c 0,21,22
 375 761 375 761 407 727.5 c 128,-1,23
 439 694 439 694 439 635 c 0,24,25
 439 556 439 556 387.5 479 c 128,-1,26
 336 402 336 402 268 344 c 1,27,-1
 243 103 l 1,28,29
 260 84 260 84 291 84 c 0,30,31
 353 84 353 84 394.5 136.5 c 128,-1,32
 436 189 436 189 467 285 c 1,33,34
 481 277 481 277 496.5 264.5 c 128,-1,35
 512 252 512 252 514 247 c 1,36,37
 491 136 491 136 434 75 c 128,-1,38
 377 14 377 14 303 -1 c 1,0,1
350 674 m 0,39,40
 345 675 345 675 340 675 c 0,41,42
 313 675 313 675 304 640 c 128,-1,43
 295 605 295 605 282 479 c 2,44,-1
 278 441 l 1,45,46
 321 485 321 485 347.5 534.5 c 128,-1,47
 374 584 374 584 374 624.5 c 128,-1,48
 374 665 374 665 350 674 c 0,39,40
216 -152 m 2,49,50
 215 -157 215 -157 215 -173.5 c 128,-1,51
 215 -190 215 -190 225 -201 c 128,-1,52
 235 -212 235 -212 251.5 -212 c 128,-1,53
 268 -212 268 -212 281 -198.5 c 128,-1,54
 294 -185 294 -185 294 -157 c 0,55,56
 294 -104 294 -104 231 -12 c 1,57,-1
 216 -152 l 2,49,50
EndSplineSet
EndChar

StartChar: g
Encoding: 103 103 74
Width: 532
GlyphClass: 2
Flags: W
LayerCount: 2
Fore
SplineSet
302 481 m 0,0,1
 357 481 357 481 403 463 c 1,2,3
 434 482 434 482 468 482 c 128,-1,4
 502 482 502 482 522 473 c 1,5,-1
 486 191 l 1,6,7
 560 248 560 248 598 295 c 1,8,-1
 627 234 l 1,9,10
 570 174 570 174 475 106 c 1,11,-1
 448 -103 l 1,12,13
 437 -197 437 -197 386.5 -247.5 c 128,-1,14
 336 -298 336 -298 256 -298 c 0,15,16
 210 -298 210 -298 166 -268 c 0,17,18
 120 -236 120 -236 120 -165 c 0,19,20
 120 -78 120 -78 203 -6 c 1,21,22
 132 -1 132 -1 81 53 c 128,-1,23
 30 107 30 107 30 194 c 0,24,25
 30 325 30 325 107 403 c 128,-1,26
 184 481 184 481 302 481 c 0,0,1
317 403 m 0,27,28
 253 403 253 403 215.5 354.5 c 128,-1,29
 178 306 178 306 171 210 c 0,30,31
 170 201 170 201 170 193 c 0,32,33
 170 144 170 144 193.5 115 c 128,-1,34
 217 86 217 86 254 86 c 0,35,36
 317 86 317 86 349 174 c 1,37,-1
 374 391 l 1,38,39
 343 403 343 403 317 403 c 0,27,28
197 -150 m 0,40,41
 197 -177 197 -177 212.5 -192.5 c 128,-1,42
 228 -208 228 -208 248 -208 c 0,43,44
 304 -208 304 -208 313 -137 c 2,45,-1
 330 13 l 1,46,47
 197 -66 197 -66 197 -150 c 0,40,41
EndSplineSet
EndChar

StartChar: h
Encoding: 104 104 75
Width: 497
GlyphClass: 2
Flags: W
LayerCount: 2
Fore
SplineSet
306 114 m 1,0,-1
 330 335 l 1,1,2
 330 362 330 362 316 380 c 128,-1,3
 302 398 302 398 271 398 c 128,-1,4
 240 398 240 398 218.5 373.5 c 128,-1,5
 197 349 197 349 187 309 c 1,6,7
 180 252 180 252 166 142.5 c 128,-1,8
 152 33 152 33 148 0 c 1,9,-1
 15 0 l 1,10,11
 87 613 87 613 102 753 c 1,12,13
 123 761 123 761 159 761 c 0,14,15
 237 761 237 761 237 715 c 2,16,-1
 237 709 l 1,17,18
 220 552 220 552 201 433 c 1,19,20
 254 481 254 481 321 481 c 128,-1,21
 388 481 388 481 427 447 c 128,-1,22
 466 413 466 413 466 361 c 0,23,24
 466 347 466 347 460 309 c 0,25,26
 437 159 437 159 437 133 c 0,27,28
 437 86 437 86 468 86 c 0,29,30
 494 86 494 86 523.5 120.5 c 128,-1,31
 553 155 553 155 571 227 c 1,32,33
 605 191 605 191 612 170 c 1,34,35
 560 -4 560 -4 428 -4 c 0,36,37
 366 -4 366 -4 336 34 c 128,-1,38
 306 72 306 72 306 114 c 1,0,-1
EndSplineSet
EndChar

StartChar: i
Encoding: 105 105 76
Width: 231
GlyphClass: 2
Flags: W
LayerCount: 2
Fore
SplineSet
165 760 m 128,-1,1
 198 760 198 760 221.5 736.5 c 128,-1,2
 245 713 245 713 245 680 c 128,-1,3
 245 647 245 647 221.5 624 c 128,-1,4
 198 601 198 601 165 601 c 128,-1,5
 132 601 132 601 109 624 c 128,-1,6
 86 647 86 647 86 680 c 128,-1,7
 86 713 86 713 109 736.5 c 128,-1,0
 132 760 132 760 165 760 c 128,-1,1
106 470.5 m 128,-1,9
 134 480 134 480 161.5 480 c 128,-1,10
 189 480 189 480 210 473 c 1,11,12
 171 172 171 172 171 169 c 0,13,14
 166 149 166 149 166 135.5 c 128,-1,15
 166 122 166 122 168 112 c 0,16,17
 172 86 172 86 204.5 86 c 128,-1,18
 237 86 237 86 264.5 128.5 c 128,-1,19
 292 171 292 171 306 225 c 1,20,21
 313 221 313 221 328 201 c 128,-1,22
 343 181 343 181 346 171 c 1,23,24
 326 91 326 91 278 42 c 256,25,26
 230 -7 230 -7 163 -7 c 128,-1,27
 96 -7 96 -7 63.5 26 c 128,-1,28
 31 59 31 59 31 111 c 0,29,30
 31 122 31 122 32 134 c 2,31,-1
 68 443 l 1,32,8
 78 461 78 461 106 470.5 c 128,-1,9
EndSplineSet
EndChar

StartChar: j
Encoding: 106 106 77
Width: 305
GlyphClass: 2
Flags: W
LayerCount: 2
Fore
SplineSet
250 760 m 128,-1,1
 283 760 283 760 306.5 736.5 c 128,-1,2
 330 713 330 713 330 680 c 128,-1,3
 330 647 330 647 306.5 624 c 128,-1,4
 283 601 283 601 250 601 c 128,-1,5
 217 601 217 601 194 624 c 128,-1,6
 171 647 171 647 171 680 c 128,-1,7
 171 713 171 713 194 736.5 c 128,-1,0
 217 760 217 760 250 760 c 128,-1,1
55 -306 m 0,8,9
 8 -306 8 -306 -28.5 -276.5 c 128,-1,10
 -65 -247 -65 -247 -65 -175 c 0,11,12
 -65 -31 -65 -31 109 82 c 1,13,14
 116 142 116 142 151 443 c 1,15,16
 181 480 181 480 245 480 c 0,17,18
 281 480 281 480 294 473 c 1,19,-1
 216 -132 l 1,20,21
 206 -219 206 -219 167.5 -262.5 c 128,-1,22
 129 -306 129 -306 55 -306 c 0,8,9
10 -206.5 m 128,-1,24
 21 -221 21 -221 38 -221 c 0,25,26
 70 -221 70 -221 79 -155 c 2,27,-1
 100 5 l 1,28,29
 -1 -75 -1 -75 -1 -165 c 0,30,23
 -1 -192 -1 -192 10 -206.5 c 128,-1,24
EndSplineSet
EndChar

StartChar: k
Encoding: 107 107 78
Width: 496
GlyphClass: 2
Flags: W
LayerCount: 2
Fore
SplineSet
486 360 m 0,0,1
 486 256 486 256 362 201 c 1,2,3
 365 183 365 183 371 158 c 0,4,5
 389 84 389 84 431 82 c 0,6,7
 434 82 434 82 437 82 c 0,8,9
 517 82 517 82 556 223 c 1,10,11
 577 204 577 204 596 166 c 1,12,13
 582 112 582 112 556.5 75 c 128,-1,14
 531 38 531 38 501 22 c 0,15,16
 448 -6 448 -6 401 -6 c 0,17,18
 291 -6 291 -6 247 117 c 0,19,20
 230 166 230 166 224 217 c 1,21,22
 281 231 281 231 314 263.5 c 128,-1,23
 347 296 347 296 347 333 c 0,24,25
 347 397 347 397 283 397 c 0,26,27
 248 397 248 397 223 370.5 c 128,-1,28
 198 344 198 344 190 307 c 1,29,30
 184 256 184 256 170.5 146.5 c 128,-1,31
 157 37 157 37 153 0 c 1,32,-1
 20 0 l 1,33,34
 92 613 92 613 107 753 c 1,35,36
 128 761 128 761 164 761 c 0,37,38
 242 761 242 761 242 715 c 2,39,-1
 242 709 l 1,40,41
 222 528 222 528 205 432 c 1,42,43
 260 483 260 483 343 483 c 0,44,45
 405 483 405 483 445.5 451 c 128,-1,46
 486 419 486 419 486 360 c 0,0,1
EndSplineSet
EndChar

StartChar: l
Encoding: 108 108 79
Width: 306
GlyphClass: 2
Flags: W
LayerCount: 2
Fore
SplineSet
71 27.5 m 128,-1,1
 36 62 36 62 36 122 c 0,2,3
 36 138 36 138 90 597 c 0,4,5
 104 715 104 715 165 746 c 0,6,7
 193 761 193 761 232 761 c 0,8,9
 364 761 364 761 364 639 c 0,10,11
 364 629 364 629 363 618 c 0,12,13
 353 484 353 484 195 345 c 1,14,15
 190 296 190 296 184 250 c 0,16,17
 172 147 172 147 172 136 c 0,18,19
 172 84 172 84 217 84 c 0,20,21
 266 84 266 84 308.5 140.5 c 128,-1,22
 351 197 351 197 374 285 c 1,23,24
 383 282 383 282 399 268.5 c 128,-1,25
 415 255 415 255 421 245 c 1,26,27
 405 162 405 162 349 86 c 0,28,29
 321 47 321 47 278 22 c 0,30,31
 229 -7 229 -7 167.5 -7 c 128,-1,0
 106 -7 106 -7 71 27.5 c 128,-1,1
206 445 m 1,32,33
 298 546 298 546 298 626 c 0,34,35
 298 674 298 674 262 674 c 1,36,37
 239 672 239 672 231.5 644 c 128,-1,38
 224 616 224 616 217.5 553 c 128,-1,39
 211 490 211 490 209 475 c 2,40,-1
 206 445 l 1,32,33
EndSplineSet
EndChar

StartChar: m
Encoding: 109 109 80
Width: 804
GlyphClass: 2
Flags: W
LayerCount: 2
Fore
SplineSet
315 0 m 1,0,-1
 353 332 l 1,1,2
 353 360 353 360 339.5 378.5 c 128,-1,3
 326 397 326 397 292 397 c 128,-1,4
 258 397 258 397 236 364.5 c 128,-1,5
 214 332 214 332 208 296 c 0,6,7
 173 47 173 47 169 0 c 1,8,-1
 35 0 l 1,9,-1
 90 470 l 1,10,11
 132 481 132 481 154 481 c 0,12,13
 217 481 217 481 223 439 c 1,14,15
 272 481 272 481 330 481 c 0,16,17
 446 481 446 481 478 412 c 1,18,19
 527 482 527 482 618 482 c 0,20,21
 685 482 685 482 724 447.5 c 128,-1,22
 763 413 763 413 763 361 c 0,23,24
 763 346 763 346 757 308 c 0,25,26
 734 158 734 158 734 132 c 0,27,28
 734 85 734 85 765 85 c 0,29,30
 791 85 791 85 820.5 119.5 c 128,-1,31
 850 154 850 154 868 226 c 1,32,33
 902 190 902 190 909 169 c 1,34,35
 857 -5 857 -5 725 -5 c 0,36,37
 663 -5 663 -5 633 33 c 128,-1,38
 603 71 603 71 603 113 c 1,39,-1
 627 334 l 1,40,41
 627 361 627 361 613 379 c 128,-1,42
 599 397 599 397 568.5 397 c 128,-1,43
 538 397 538 397 515 374 c 128,-1,44
 492 351 492 351 483 315 c 1,45,46
 453 61 453 61 444 0 c 1,47,-1
 315 0 l 1,0,-1
EndSplineSet
EndChar

StartChar: n
Encoding: 110 110 81
Width: 519
GlyphClass: 2
Flags: W
LayerCount: 2
Fore
SplineSet
318 112 m 1,0,-1
 342 335 l 1,1,2
 342 362 342 362 328 380 c 128,-1,3
 314 398 314 398 281.5 398 c 128,-1,4
 249 398 249 398 226.5 369.5 c 128,-1,5
 204 341 204 341 198 298 c 0,6,7
 162 24 162 24 160 0 c 1,8,-1
 25 0 l 1,9,-1
 80 471 l 1,10,11
 122 482 122 482 144 482 c 0,12,13
 211 482 211 482 214 433 c 1,14,15
 263 481 263 481 331.5 481 c 128,-1,16
 400 481 400 481 439 447 c 128,-1,17
 478 413 478 413 478 361 c 0,18,19
 478 347 478 347 472 308 c 0,20,21
 449 156 449 156 449 131 c 0,22,23
 449 85 449 85 480 85 c 0,24,25
 548 85 548 85 583 227 c 1,26,27
 617 191 617 191 624 170 c 1,28,29
 571 -6 571 -6 440 -6 c 0,30,31
 378 -6 378 -6 348 32 c 128,-1,32
 318 70 318 70 318 112 c 1,0,-1
EndSplineSet
EndChar

StartChar: o
Encoding: 111 111 82
Width: 520
GlyphClass: 2
Flags: W
LayerCount: 2
Fore
SplineSet
295 481 m 0,0,1
 387 481 387 481 448.5 422 c 128,-1,2
 510 363 510 363 510 278 c 0,3,4
 510 149 510 149 434.5 71.5 c 128,-1,5
 359 -6 359 -6 252 -6 c 128,-1,6
 145 -6 145 -6 82.5 55 c 128,-1,7
 20 116 20 116 20 206 c 0,8,9
 20 332 20 332 97 406 c 0,10,11
 175 481 175 481 295 481 c 0,0,1
196 346 m 128,-1,13
 164 292 164 292 161 210 c 1,14,15
 161 152 161 152 184.5 114 c 128,-1,16
 208 76 208 76 256 76 c 128,-1,17
 304 76 304 76 336.5 129 c 128,-1,18
 369 182 369 182 369 250 c 128,-1,19
 369 318 369 318 346 358 c 0,20,21
 323 400 323 400 275.5 400 c 128,-1,12
 228 400 228 400 196 346 c 128,-1,13
EndSplineSet
EndChar

StartChar: p
Encoding: 112 112 83
Width: 529
GlyphClass: 2
Flags: W
LayerCount: 2
Fore
SplineSet
143 482 m 0,0,1
 208 482 208 482 219 449 c 1,2,3
 266 482 266 482 338 482 c 128,-1,4
 410 482 410 482 462 423 c 128,-1,5
 514 364 514 364 514 285 c 0,6,7
 514 274 514 274 513 262 c 0,8,9
 502 131 502 131 425 62.5 c 128,-1,10
 348 -6 348 -6 224 -6 c 0,11,12
 196 -6 196 -6 163 1 c 1,13,-1
 131 -274 l 1,14,-1
 0 -274 l 1,15,16
 64 277 64 277 86 474 c 1,17,18
 107 482 107 482 143 482 c 0,0,1
373 278 m 0,19,20
 373 322 373 322 353 356 c 128,-1,21
 333 390 333 390 291 390 c 0,22,23
 234 390 234 390 204 316 c 1,24,25
 184 168 184 168 181 144 c 1,26,27
 180 114 180 114 200 99 c 128,-1,28
 220 84 220 84 249 84 c 0,29,30
 300 84 300 84 333 130 c 0,31,32
 373 187 373 187 373 278 c 0,19,20
EndSplineSet
EndChar

StartChar: q
Encoding: 113 113 84
Width: 573
GlyphClass: 2
Flags: W
LayerCount: 2
Fore
SplineSet
313 27 m 1,0,1
 267 -6 267 -6 199 -6 c 128,-1,2
 131 -6 131 -6 75.5 49 c 128,-1,3
 20 104 20 104 20 194 c 0,4,5
 20 325 20 325 97 403 c 128,-1,6
 174 481 174 481 292 481 c 0,7,8
 295 481 295 481 298 481 c 0,9,10
 347 481 347 481 390 464 c 1,11,12
 422 481 422 481 455.5 481 c 128,-1,13
 489 481 489 481 506 471 c 1,14,15
 467 159 467 159 463 126 c 2,16,-1
 458 85 l 1,17,18
 484 85 484 85 497 86 c 0,19,20
 538 89 538 89 576 125.5 c 128,-1,21
 614 162 614 162 635 235 c 1,22,23
 667 195 667 195 673 177 c 1,24,25
 648 95 648 95 600.5 51.5 c 128,-1,26
 553 8 553 8 499 -2 c 1,27,28
 567 -82 567 -82 567 -154 c 0,29,30
 567 -157 567 -157 567 -160 c 0,31,32
 567 -199 567 -199 553.5 -229.5 c 128,-1,33
 540 -260 540 -260 517 -275 c 0,34,35
 473 -304 473 -304 431 -304 c 0,36,37
 357 -304 357 -304 320 -258 c 1,38,39
 292 -221 292 -221 292 -163 c 0,40,41
 292 -147 292 -147 294 -130 c 2,42,-1
 313 27 l 1,0,1
307 403 m 0,43,44
 243 403 243 403 205.5 354.5 c 128,-1,45
 168 306 168 306 161 210 c 0,46,47
 160 201 160 201 160 193 c 0,48,49
 160 144 160 144 183.5 115 c 128,-1,50
 207 86 207 86 244 86 c 0,51,52
 300 86 300 86 332 157 c 1,53,-1
 359 393 l 1,54,55
 332 403 332 403 307 403 c 0,43,44
443 -23 m 1,56,57
 427 -150 427 -150 427 -169.5 c 128,-1,58
 427 -189 427 -189 439 -200.5 c 128,-1,59
 451 -212 451 -212 467.5 -212 c 128,-1,60
 484 -212 484 -212 497 -198.5 c 128,-1,61
 510 -185 510 -185 510 -159 c 0,62,63
 510 -90 510 -90 443 -23 c 1,56,57
EndSplineSet
EndChar

StartChar: r
Encoding: 114 114 85
Width: 412
GlyphClass: 2
Flags: W
LayerCount: 2
Fore
SplineSet
328 350 m 0,0,1
 328 394 328 394 287.5 394 c 128,-1,2
 247 394 247 394 223 342 c 1,3,4
 331 257 331 257 331 151 c 0,5,6
 331 74 331 74 288 34 c 128,-1,7
 245 -6 245 -6 180 -6 c 128,-1,8
 115 -6 115 -6 85 34.5 c 128,-1,9
 55 75 55 75 55 137 c 0,10,11
 55 156 55 156 56 165 c 2,12,-1
 91 470 l 1,13,14
 127 481 127 481 164 481 c 0,15,16
 225 481 225 481 225 436 c 2,17,-1
 225 434 l 1,18,19
 265 481 265 481 327 481 c 0,20,21
 372 481 372 481 397 460.5 c 128,-1,22
 422 440 422 440 422 406 c 128,-1,23
 422 372 422 372 396.5 350.5 c 128,-1,24
 371 329 371 329 330 329 c 0,25,26
 328 329 328 329 326 329 c 1,27,28
 328 340 328 340 328 350 c 0,0,1
206 272 m 1,30,31
 188 128 188 128 188 127 c 0,32,33
 188 85 188 85 222 85 c 0,34,35
 266 85 266 85 266 156 c 0,36,29
 266 214 266 214 206 272 c 1,30,31
EndSplineSet
EndChar

StartChar: s
Encoding: 115 115 86
Width: 515
GlyphClass: 2
Flags: W
LayerCount: 2
Fore
SplineSet
450 306 m 0,0,1
 529 248 529 248 529 169 c 128,-1,2
 529 90 529 90 467 42 c 128,-1,3
 405 -6 405 -6 311 -6 c 0,4,5
 250 -6 250 -6 209.5 24.5 c 128,-1,6
 169 55 169 55 169 100 c 128,-1,7
 169 145 169 145 199 171.5 c 128,-1,8
 229 198 229 198 274 204 c 1,9,10
 253 174 253 174 253 146.5 c 128,-1,11
 253 119 253 119 272 102 c 256,12,13
 291 85 291 85 320 85 c 128,-1,14
 349 85 349 85 368 106.5 c 128,-1,15
 387 128 387 128 387 156 c 0,16,17
 387 202 387 202 344 238 c 0,18,19
 318 259 318 259 288 277.5 c 128,-1,20
 258 296 258 296 256 297 c 0,21,22
 252 300 252 300 248 302 c 1,23,24
 230 281 230 281 196 244.5 c 128,-1,25
 162 208 162 208 142 186 c 0,26,27
 86 125 86 125 79 84 c 0,28,29
 77 76 77 76 77 53.5 c 128,-1,30
 77 31 77 31 90.5 7 c 128,-1,31
 104 -17 104 -17 123 -29 c 128,-1,32
 142 -41 142 -41 160.5 -48.5 c 128,-1,33
 179 -56 179 -56 192.5 -59 c 128,-1,34
 206 -62 206 -62 206 -63 c 0,35,36
 206 -70 206 -70 184 -79 c 0,37,38
 143 -94 143 -94 98.5 -94 c 128,-1,39
 54 -94 54 -94 12 -62 c 0,40,41
 -45 -18 -45 -18 -45 55 c 0,42,43
 -45 100 -45 100 -22 144 c 0,44,45
 19 222 19 222 170 358 c 1,46,47
 133 395 133 395 133 437 c 128,-1,48
 133 479 133 479 164.5 508 c 128,-1,49
 196 537 196 537 239 537 c 0,50,51
 278 537 278 537 307 506 c 0,52,53
 326 485 326 485 326 453 c 128,-1,54
 326 421 326 421 305 381 c 1,55,56
 412 333 412 333 450 306 c 0,0,1
233 419 m 1,57,58
 257 444 257 444 257 455 c 0,59,60
 257 480 257 480 235 482 c 1,61,62
 210 482 210 482 210 454 c 0,63,64
 210 437 210 437 233 419 c 1,57,58
EndSplineSet
EndChar

StartChar: t
Encoding: 116 116 87
Width: 344
GlyphClass: 2
Flags: W
LayerCount: 2
Fore
SplineSet
259 696 m 0,0,1
 259 690 259 690 232 481 c 1,2,-1
 379 481 l 1,3,-1
 379 404 l 1,4,-1
 222 404 l 1,5,-1
 219 379 l 1,6,7
 336 281 336 281 336 165 c 0,8,9
 336 74 336 74 289.5 34 c 128,-1,10
 243 -6 243 -6 178 -6 c 128,-1,11
 113 -6 113 -6 83 28.5 c 128,-1,12
 53 63 53 63 53 112 c 0,13,14
 53 123 53 123 55 136 c 2,15,-1
 86 402 l 1,16,-1
 82 404 l 1,17,-1
 1 404 l 1,18,19
 0 414 0 414 0 436.5 c 128,-1,20
 0 459 0 459 9 481 c 1,21,-1
 95 481 l 1,22,-1
 127 753 l 1,23,24
 148 761 148 761 183 761 c 0,25,26
 259 761 259 761 259 696 c 0,0,1
269 166 m 0,27,28
 269 235 269 235 209 302 c 1,29,30
 191 153 191 153 191 130 c 0,31,32
 191 85 191 85 220 85 c 0,33,34
 241 85 241 85 255 104.5 c 128,-1,35
 269 124 269 124 269 166 c 0,27,28
EndSplineSet
EndChar

StartChar: u
Encoding: 117 117 88
Width: 507
GlyphClass: 2
Flags: W
LayerCount: 2
Fore
SplineSet
479 471 m 1,0,1
 438 147 438 147 438 126 c 0,2,3
 438 86 438 86 467 86 c 0,4,5
 493 86 493 86 523.5 121.5 c 128,-1,6
 554 157 554 157 572 228 c 1,7,8
 605 192 605 192 612 172 c 1,9,10
 589 75 589 75 539 35 c 128,-1,11
 489 -5 489 -5 436 -5 c 0,12,13
 349 -5 349 -5 319 62 c 1,14,15
 267 -5 267 -5 180 -5 c 0,16,17
 108 -5 108 -5 69 31 c 128,-1,18
 30 67 30 67 30 125 c 0,19,20
 30 139 30 139 35 174 c 0,21,22
 58 360 58 360 70 470 c 1,23,24
 101 481 101 481 127 481 c 128,-1,25
 153 481 153 481 166 479 c 128,-1,26
 179 477 179 477 191 464 c 128,-1,27
 203 451 203 451 203 427 c 1,28,-1
 170 172 l 2,29,30
 168 160 168 160 168 150 c 0,31,32
 168 91 168 91 222 91 c 0,33,34
 272 91 272 91 305 140 c 1,35,36
 305 151 305 151 307 175 c 2,37,-1
 340 441 l 1,38,39
 347 458 347 458 370 469.5 c 128,-1,40
 393 481 393 481 427.5 481 c 128,-1,41
 462 481 462 481 479 471 c 1,0,1
EndSplineSet
EndChar

StartChar: v
Encoding: 118 118 89
Width: 454
GlyphClass: 2
Flags: W
LayerCount: 2
Fore
SplineSet
319.5 46.5 m 128,-1,1
 261 -5 261 -5 186 -5 c 128,-1,2
 111 -5 111 -5 73.5 44.5 c 128,-1,3
 36 94 36 94 36 158 c 0,4,5
 36 171 36 171 37 184 c 2,6,-1
 71 469 l 1,7,8
 103 481 103 481 139 481 c 0,9,10
 205 481 205 481 205 432 c 0,11,12
 205 430 205 430 188.5 298.5 c 128,-1,13
 172 167 172 167 172 146 c 0,14,15
 172 89 172 89 227 89 c 0,16,17
 274 89 274 89 306 142 c 0,18,19
 362 238 362 238 365 359 c 1,20,-1
 356 359 l 2,21,22
 314 359 314 359 292 378 c 0,23,24
 267 400 267 400 267 431 c 128,-1,25
 267 462 267 462 286 481 c 1,26,27
 309 501 309 501 341 501 c 0,28,29
 417 501 417 501 436 422 c 1,30,31
 466 426 466 426 479 430 c 1,32,-1
 479 373 l 1,33,-1
 442 367 l 1,34,-1
 442 350 l 1,35,36
 441 260 441 260 409.5 179 c 128,-1,0
 378 98 378 98 319.5 46.5 c 128,-1,1
324 431 m 0,37,38
 324 414 324 414 353 414 c 0,39,40
 356 414 356 414 359 414 c 1,41,42
 352 441 352 441 338 441 c 128,-1,43
 324 441 324 441 324 431 c 0,37,38
EndSplineSet
EndChar

StartChar: w
Encoding: 119 119 90
Width: 719
GlyphClass: 2
Flags: W
LayerCount: 2
Fore
SplineSet
437 159 m 0,0,1
 437 87 437 87 498 87 c 0,2,3
 500 87 500 87 501 87 c 0,4,5
 529 87 529 87 551 117 c 128,-1,6
 573 147 573 147 584 192 c 0,7,8
 608 284 608 284 608 359 c 1,9,-1
 599 359 l 2,10,11
 557 359 557 359 534 378 c 1,12,13
 510 400 510 400 510 431 c 128,-1,14
 510 462 510 462 529 481 c 1,15,16
 552 502 552 502 586 502 c 0,17,18
 660 502 660 502 686 426 c 1,19,20
 756 443 756 443 834 473 c 1,21,-1
 834 416 l 1,22,23
 760 388 760 388 696 373 c 1,24,25
 697 365 697 365 697 350 c 0,26,27
 693 143 693 143 600 50 c 0,28,29
 545 -5 545 -5 457.5 -5 c 128,-1,30
 370 -5 370 -5 327 69 c 1,31,32
 278 -6 278 -6 177 -6 c 0,33,34
 117 -6 117 -6 78.5 36.5 c 128,-1,35
 40 79 40 79 40 137 c 0,36,37
 40 147 40 147 41 161 c 0,38,39
 62 335 62 335 76 469 c 1,40,41
 112 481 112 481 139 481 c 0,42,43
 210 481 210 481 210 432 c 0,44,45
 210 413 210 413 195 301 c 0,46,47
 176 160 176 160 176 142.5 c 128,-1,48
 176 125 176 125 189.5 108 c 128,-1,49
 203 91 203 91 228.5 91 c 128,-1,50
 254 91 254 91 274 114 c 128,-1,51
 294 137 294 137 303 170 c 1,52,-1
 338 469 l 1,53,54
 370 481 370 481 406 481 c 0,55,56
 471 481 471 481 471 432 c 0,57,58
 471 414 471 414 457 315 c 0,59,60
 437 175 437 175 437 159 c 0,0,1
567 431 m 0,61,62
 567 414 567 414 596 414 c 0,63,64
 599 414 599 414 602 414 c 1,65,66
 595 441 595 441 581 441 c 128,-1,67
 567 441 567 441 567 431 c 0,61,62
EndSplineSet
EndChar

StartChar: x
Encoding: 120 120 91
Width: 510
GlyphClass: 2
Flags: W
LayerCount: 2
Fore
SplineSet
477 27.5 m 128,-1,1
 442 -6 442 -6 394.5 -6 c 128,-1,2
 347 -6 347 -6 321.5 13 c 128,-1,3
 296 32 296 32 274 77 c 1,4,-1
 242 139 l 1,5,-1
 193 68 l 2,6,7
 145 -1 145 -1 93 -1 c 0,8,9
 53 -1 53 -1 31.5 21.5 c 128,-1,10
 10 44 10 44 10 76 c 0,11,12
 10 130 10 130 52.5 160.5 c 128,-1,13
 95 191 95 191 143 191 c 0,14,15
 157 191 157 191 172 188 c 1,16,-1
 196 224 l 1,17,18
 124 354 124 354 117 365 c 0,19,20
 105 382 105 382 94.5 382 c 128,-1,21
 84 382 84 382 77 374.5 c 128,-1,22
 70 367 70 367 70 354 c 128,-1,23
 70 341 70 341 74 325 c 1,24,-1
 49 318 l 1,25,26
 40 330 40 330 34 352.5 c 128,-1,27
 28 375 28 375 28 388 c 0,28,29
 28 437 28 437 59 464.5 c 128,-1,30
 90 492 90 492 140 492 c 0,31,32
 201 492 201 492 235 426 c 2,33,-1
 276 347 l 1,34,-1
 331 433 l 2,35,36
 355 470 355 470 375 482.5 c 128,-1,37
 395 495 395 495 426.5 495 c 128,-1,38
 458 495 458 495 481 472.5 c 128,-1,39
 504 450 504 450 504 419 c 0,40,41
 504 366 504 366 466 337 c 128,-1,42
 428 308 428 308 382 308 c 0,43,44
 373 308 373 308 359 310 c 1,45,-1
 323 257 l 1,46,47
 391 125 391 125 398 112 c 0,48,49
 413 85 413 85 436 85 c 0,50,51
 467 85 467 85 485 140 c 2,52,-1
 489 152 l 2,53,54
 490 155 490 155 494 172 c 1,55,-1
 528 123 l 1,56,0
 512 61 512 61 477 27.5 c 128,-1,1
442 418 m 0,57,58
 432 418 432 418 423.5 407.5 c 128,-1,59
 415 397 415 397 384 348 c 1,60,61
 411 348 411 348 435 361.5 c 128,-1,62
 459 375 459 375 460 396.5 c 128,-1,63
 461 418 461 418 442 418 c 0,57,58
139 151 m 2,64,65
 111 151 111 151 85 137 c 128,-1,66
 59 123 59 123 59 102 c 128,-1,67
 59 81 59 81 77 81 c 0,68,69
 98 81 98 81 147 151 c 1,70,-1
 139 151 l 2,64,65
EndSplineSet
EndChar

StartChar: y
Encoding: 121 121 92
Width: 486
GlyphClass: 2
Flags: W
LayerCount: 2
Fore
SplineSet
205 -297 m 0,0,1
 148 -297 148 -297 107 -262.5 c 128,-1,2
 66 -228 66 -228 66 -162 c 0,3,4
 66 -81 66 -81 148 -4 c 1,5,6
 90 1 90 1 55 34 c 128,-1,7
 20 67 20 67 20 127 c 0,8,9
 20 155 20 155 27 211 c 128,-1,10
 34 267 34 267 42 332 c 128,-1,11
 50 397 50 397 59 470 c 1,12,13
 90 481 90 481 116 481 c 128,-1,14
 142 481 142 481 155 479 c 128,-1,15
 168 477 168 477 180 464 c 128,-1,16
 192 451 192 451 192 427 c 1,17,-1
 159 172 l 2,18,19
 157 156 157 156 157 150 c 0,20,21
 157 91 157 91 211 91 c 0,22,23
 260 91 260 91 291 137 c 1,24,25
 294 160 294 160 306 269.5 c 128,-1,26
 318 379 318 379 326 440 c 1,27,28
 335 459 335 459 363.5 470 c 128,-1,29
 392 481 392 481 410 481 c 0,30,31
 442 481 442 481 468 473 c 1,32,-1
 421 104 l 1,33,34
 538 83 538 83 561 -57 c 1,35,36
 557 -76 557 -76 523 -117 c 1,37,38
 503 8 503 8 413 35 c 1,39,-1
 397 -90 l 2,40,41
 386 -180 386 -180 340 -238.5 c 128,-1,42
 294 -297 294 -297 205 -297 c 0,0,1
160 -192 m 128,-1,44
 176 -208 176 -208 202.5 -208 c 128,-1,45
 229 -208 229 -208 243 -186 c 128,-1,46
 257 -164 257 -164 265 -98 c 2,47,-1
 278 12 l 1,48,49
 147 -56 147 -56 144 -143 c 1,50,43
 144 -176 144 -176 160 -192 c 128,-1,44
EndSplineSet
EndChar

StartChar: z
Encoding: 122 122 93
Width: 437
GlyphClass: 2
Flags: W
LayerCount: 2
Fore
SplineSet
311 -9 m 1,0,-1
 33 -3 l 2,1,2
 20 -3 20 -3 20 32.5 c 128,-1,3
 20 68 20 68 35 88 c 1,4,5
 50 128 50 128 118 205 c 0,6,7
 140 230 140 230 200 295 c 128,-1,8
 260 360 260 360 279 384 c 1,9,-1
 226 387 l 1,10,11
 211 351 211 351 182.5 328.5 c 128,-1,12
 154 306 154 306 119 306 c 0,13,14
 79 306 79 306 54 329.5 c 128,-1,15
 29 353 29 353 29 395 c 128,-1,16
 29 437 29 437 58 462 c 128,-1,17
 87 487 87 487 138 487 c 1,18,-1
 416 481 l 2,19,20
 429 481 429 481 429 447 c 0,21,22
 429 412 429 412 416 393 c 1,23,24
 404 371 404 371 381.5 346.5 c 128,-1,25
 359 322 359 322 316 281.5 c 128,-1,26
 273 241 273 241 256 224 c 0,27,28
 189 157 189 157 156 95 c 1,29,-1
 223 91 l 1,30,31
 238 127 238 127 266.5 149.5 c 128,-1,32
 295 172 295 172 330 172 c 0,33,34
 370 172 370 172 395 148.5 c 128,-1,35
 420 125 420 125 420 83 c 128,-1,36
 420 41 420 41 391 16 c 128,-1,37
 362 -9 362 -9 311 -9 c 1,0,-1
130 394 m 0,38,39
 95 394 95 394 95 371 c 128,-1,40
 95 348 95 348 121 348 c 0,41,42
 160 348 160 348 183 390 c 1,43,-1
 142 393 l 2,44,45
 136 394 136 394 130 394 c 0,38,39
319 84 m 0,46,47
 354 84 354 84 354 107 c 128,-1,48
 354 130 354 130 328 130 c 0,49,50
 289 130 289 130 266 88 c 1,51,-1
 307 85 l 2,52,53
 313 84 313 84 319 84 c 0,46,47
EndSplineSet
EndChar

StartChar: braceleft
Encoding: 123 123 94
Width: 379
GlyphClass: 2
Flags: W
LayerCount: 2
Fore
SplineSet
102 358 m 0,0,1
 126 358 126 358 135 442 c 0,2,3
 153 626 153 626 159 669.5 c 128,-1,4
 165 713 165 713 196.5 737.5 c 128,-1,5
 228 762 228 762 273 762 c 0,6,7
 334 762 334 762 379 725 c 1,8,-1
 368 681 l 1,9,10
 356 689 356 689 345 689 c 0,11,12
 305 689 305 689 294 674 c 128,-1,13
 283 659 283 659 280 629.5 c 128,-1,14
 277 600 277 600 272.5 562 c 128,-1,15
 268 524 268 524 261 470 c 128,-1,16
 254 416 254 416 250 381 c 0,17,18
 242 311 242 311 184 296 c 1,19,20
 227 278 227 278 227 226 c 1,21,-1
 194 -46 l 2,22,23
 194 -49 194 -49 194 -61 c 0,24,25
 194 -91 194 -91 233 -94 c 1,26,27
 258 -94 258 -94 274 -86 c 1,28,-1
 274 -130 l 1,29,30
 214 -166 214 -166 166.5 -166 c 128,-1,31
 119 -166 119 -166 91.5 -141 c 128,-1,32
 64 -116 64 -116 65.5 -76.5 c 128,-1,33
 67 -37 67 -37 82 73 c 0,34,35
 99 192 99 192 99 203 c 0,36,37
 99 237 99 237 83 237 c 0,38,39
 76 237 76 237 72.5 236 c 128,-1,40
 69 235 69 235 60.5 226.5 c 128,-1,41
 52 218 52 218 43 199 c 1,42,-1
 20 210 l 1,43,44
 32 240 32 240 57.5 264.5 c 128,-1,45
 83 289 83 289 115 298 c 1,46,47
 58 319 58 319 46 385 c 1,48,-1
 71 396 l 1,49,50
 80 362 80 362 92 359 c 0,51,52
 95 358 95 358 102 358 c 0,0,1
EndSplineSet
EndChar

StartChar: bar
Encoding: 124 124 95
Width: 253
GlyphClass: 2
Flags: W
LayerCount: 2
Fore
SplineSet
123 761 m 1,0,-1
 209 761 l 1,1,-1
 107 -100 l 1,2,-1
 25 -100 l 1,3,-1
 123 761 l 1,0,-1
EndSplineSet
EndChar

StartChar: braceright
Encoding: 125 125 96
Width: 380
GlyphClass: 2
Flags: W
LayerCount: 2
Fore
SplineSet
277 242 m 0,0,1
 253 242 253 242 244 158 c 0,2,3
 225 -33 225 -33 218.5 -73 c 128,-1,4
 212 -113 212 -113 181.5 -137.5 c 128,-1,5
 151 -162 151 -162 106 -162 c 0,6,7
 45 -162 45 -162 0 -125 c 1,8,-1
 11 -81 l 1,9,10
 23 -89 23 -89 34 -89 c 0,11,12
 74 -89 74 -89 85.5 -74 c 128,-1,13
 97 -59 97 -59 101.5 -5.5 c 128,-1,14
 106 48 106 48 127 219 c 1,15,16
 136 284 136 284 194 303 c 1,17,18
 148 320 148 320 148 374 c 1,19,-1
 181 646 l 2,20,21
 181 649 181 649 181 661 c 0,22,23
 181 691 181 691 142 694 c 1,24,25
 117 694 117 694 101 686 c 1,26,-1
 101 730 l 1,27,28
 161 766 161 766 208.5 766 c 128,-1,29
 256 766 256 766 283.5 741 c 128,-1,30
 311 716 311 716 309.5 676.5 c 128,-1,31
 308 637 308 637 292 527 c 1,32,33
 276 408 276 408 276 397 c 0,34,35
 276 363 276 363 292 363 c 0,36,37
 299 363 299 363 302.5 364 c 128,-1,38
 306 365 306 365 314.5 373.5 c 128,-1,39
 323 382 323 382 332 401 c 1,40,-1
 355 390 l 1,41,42
 343 360 343 360 318.5 336 c 128,-1,43
 294 312 294 312 263 302 c 1,44,45
 291 293 291 293 309.5 269 c 128,-1,46
 328 245 328 245 333 215 c 1,47,-1
 308 204 l 1,48,49
 299 238 299 238 288 241 c 0,50,51
 284 242 284 242 277 242 c 0,0,1
EndSplineSet
EndChar

StartChar: asciitilde
Encoding: 126 126 97
Width: 425
GlyphClass: 2
Flags: W
LayerCount: 2
Fore
SplineSet
99 491 m 0,0,1
 108 491 108 491 130 487 c 128,-1,2
 152 483 152 483 233 446 c 128,-1,3
 314 409 314 409 340 409 c 0,4,5
 392 409 392 409 420 480 c 1,6,-1
 464 480 l 1,7,8
 454 393 454 393 414 352 c 128,-1,9
 374 311 374 311 324 311 c 128,-1,10
 274 311 274 311 194 350 c 0,11,12
 112 389 112 389 88 389 c 128,-1,13
 64 389 64 389 42.5 376.5 c 128,-1,14
 21 364 21 364 18 333 c 1,15,-1
 -26 333 l 1,16,17
 -22 412 -22 412 17 451.5 c 128,-1,18
 56 491 56 491 99 491 c 0,0,1
EndSplineSet
EndChar

StartChar: exclamdown
Encoding: 161 161 99
Width: 264
GlyphClass: 2
Flags: W
LayerCount: 2
Fore
SplineSet
154 338 m 128,-1,1
 120 338 120 338 96 362 c 128,-1,2
 72 386 72 386 72 420 c 128,-1,3
 72 454 72 454 96 477.5 c 128,-1,4
 120 501 120 501 154 501 c 128,-1,5
 188 501 188 501 211.5 477.5 c 128,-1,6
 235 454 235 454 235 420 c 128,-1,7
 235 386 235 386 211.5 362 c 128,-1,0
 188 338 188 338 154 338 c 128,-1,1
118 -349 m 1,8,9
 98 -359 98 -359 48 -359 c 0,10,11
 -50 -359 -50 -359 -50 -313 c 0,12,13
 -50 -309 -50 -309 -49 -304 c 2,14,-1
 75 220 l 1,15,-1
 182 220 l 1,16,-1
 118 -349 l 1,8,9
EndSplineSet
EndChar

StartChar: cent
Encoding: 162 162 100
Width: 557
GlyphClass: 2
Flags: W
LayerCount: 2
Fore
SplineSet
20 214 m 0,0,1
 20 320 20 320 87.5 391 c 128,-1,2
 155 462 155 462 246 478 c 1,3,-1
 278 761 l 1,4,-1
 354 761 l 1,5,-1
 322 479 l 1,6,7
 384 472 384 472 419.5 441 c 128,-1,8
 455 410 455 410 455 370.5 c 128,-1,9
 455 331 455 331 430 306 c 0,10,11
 386 262 386 262 322 262 c 1,12,13
 332 297 332 297 332 333 c 128,-1,14
 332 369 332 369 312 388 c 1,15,-1
 279 96 l 1,16,-1
 289 95 l 2,17,18
 292 95 292 95 295 95 c 0,19,20
 347 95 347 95 404 128.5 c 128,-1,21
 461 162 461 162 497 230 c 1,22,-1
 537 186 l 1,23,24
 481 57 481 57 357 13 c 0,25,26
 315 -2 315 -2 267 -5 c 1,27,-1
 236 -284 l 1,28,-1
 160 -284 l 1,29,-1
 192 0 l 1,30,31
 120 17 120 17 70 75.5 c 128,-1,32
 20 134 20 134 20 214 c 0,0,1
158 238 m 0,33,34
 158 159 158 159 206 123 c 1,35,-1
 237 396 l 1,36,37
 203 381 203 381 180.5 339 c 128,-1,38
 158 297 158 297 158 238 c 0,33,34
EndSplineSet
EndChar

StartChar: sterling
Encoding: 163 163 101
Width: 609
GlyphClass: 2
Flags: W
LayerCount: 2
Fore
SplineSet
408 89 m 0,0,1
 419 85 419 85 436 85 c 128,-1,2
 453 85 453 85 469 92.5 c 128,-1,3
 485 100 485 100 498 123.5 c 128,-1,4
 511 147 511 147 517.5 165 c 128,-1,5
 524 183 524 183 539 229 c 1,6,7
 572 198 572 198 589 170 c 1,8,9
 556 -6 556 -6 430 -6 c 0,10,11
 362 -6 362 -6 276 65 c 1,12,13
 229 -6 229 -6 132 -6 c 0,14,15
 88 -6 88 -6 52.5 23 c 128,-1,16
 17 52 17 52 17 106 c 128,-1,17
 17 160 17 160 54.5 195.5 c 128,-1,18
 92 231 92 231 149 231 c 0,19,20
 166 231 166 231 183 228 c 1,21,22
 193 300 193 300 200 363 c 1,23,-1
 82 363 l 1,24,-1
 94 443 l 1,25,-1
 210 443 l 1,26,-1
 229 594 l 2,27,28
 250 761 250 761 427 761 c 0,29,30
 496 761 496 761 536.5 719.5 c 128,-1,31
 577 678 577 678 577 610 c 0,32,33
 577 589 577 589 574 568 c 1,34,-1
 499 568 l 1,35,36
 501 588 501 588 501 597 c 0,37,38
 501 632 501 632 486 652 c 1,39,40
 468 674 468 674 434 674 c 128,-1,41
 400 674 400 674 383 647.5 c 128,-1,42
 366 621 366 621 361 573 c 2,43,-1
 345 443 l 1,44,-1
 527 443 l 1,45,-1
 514 363 l 1,46,-1
 335 363 l 1,47,-1
 312 172 l 1,48,-1
 311 161 l 1,49,50
 383 98 383 98 408 89 c 0,0,1
125 83 m 0,51,52
 160 83 160 83 170 143 c 1,53,54
 149 150 149 150 134 150 c 128,-1,55
 119 150 119 150 107.5 139 c 128,-1,56
 96 128 96 128 96 112.5 c 128,-1,57
 96 97 96 97 105 90 c 128,-1,58
 114 83 114 83 125 83 c 0,51,52
EndSplineSet
EndChar

StartChar: currency
Encoding: 164 164 102
Width: 678
GlyphClass: 2
Flags: W
LayerCount: 2
Fore
SplineSet
507 457 m 1,0,1
 541 409 541 409 541 348 c 128,-1,2
 541 287 541 287 508 238 c 1,3,-1
 617 128 l 1,4,-1
 564 74 l 1,5,-1
 454 187 l 1,6,7
 410 160 410 160 355 160 c 128,-1,8
 300 160 300 160 255 186 c 1,9,-1
 144 76 l 1,10,-1
 90 129 l 1,11,-1
 201 237 l 1,12,13
 169 284 169 284 169 345.5 c 128,-1,14
 169 407 169 407 204 458 c 1,15,-1
 91 568 l 1,16,-1
 145 621 l 1,17,-1
 260 508 l 1,18,19
 302 532 302 532 355 532 c 128,-1,20
 408 532 408 532 452 507 c 1,21,-1
 565 623 l 1,22,-1
 618 569 l 1,23,-1
 507 457 l 1,0,1
274.5 426 m 128,-1,25
 242 393 242 393 242 345.5 c 128,-1,26
 242 298 242 298 274.5 265.5 c 128,-1,27
 307 233 307 233 354.5 233 c 128,-1,28
 402 233 402 233 435 265.5 c 128,-1,29
 468 298 468 298 468 345.5 c 128,-1,30
 468 393 468 393 435 426 c 128,-1,31
 402 459 402 459 354.5 459 c 128,-1,24
 307 459 307 459 274.5 426 c 128,-1,25
EndSplineSet
EndChar

StartChar: yen
Encoding: 165 165 103
Width: 614
GlyphClass: 2
Flags: W
LayerCount: 2
Fore
SplineSet
178 757 m 0,0,1
 244 757 244 757 244 708 c 0,2,3
 244 706 244 706 227.5 574.5 c 128,-1,4
 211 443 211 443 211 422 c 0,5,6
 211 365 211 365 266 365 c 0,7,8
 314 365 314 365 345.5 414.5 c 128,-1,9
 377 464 377 464 390.5 519.5 c 128,-1,10
 404 575 404 575 404 626 c 128,-1,11
 404 677 404 677 372 686 c 1,12,13
 373 687 373 687 371.5 694 c 128,-1,14
 370 701 370 701 373.5 712.5 c 128,-1,15
 377 724 377 724 382 734.5 c 128,-1,16
 387 745 387 745 400.5 753 c 128,-1,17
 414 761 414 761 433 761 c 0,18,19
 480 761 480 761 502 719 c 0,20,21
 516 691 516 691 516 662 c 128,-1,22
 516 633 516 633 512 610 c 0,23,24
 497 521 497 521 460 442.5 c 128,-1,25
 423 364 423 364 368 319 c 1,26,-1
 472 319 l 1,27,-1
 461 233 l 1,28,-1
 328 233 l 1,29,-1
 320 179 l 1,30,-1
 454 179 l 1,31,-1
 443 93 l 1,32,-1
 309 93 l 1,33,-1
 296 0 l 1,34,-1
 160 0 l 1,35,-1
 170 93 l 1,36,-1
 26 93 l 1,37,-1
 36 179 l 1,38,-1
 180 179 l 1,39,-1
 186 233 l 1,40,-1
 42 233 l 1,41,-1
 52 319 l 1,42,-1
 113 319 l 1,43,44
 75 362 75 362 75 432 c 0,45,46
 75 445 75 445 76 460 c 2,47,-1
 110 745 l 1,48,49
 142 757 142 757 178 757 c 0,0,1
EndSplineSet
EndChar

StartChar: brokenbar
Encoding: 166 166 104
Width: 220
GlyphClass: 2
Flags: W
LayerCount: 2
Fore
SplineSet
116 761 m 1,0,-1
 199 761 l 1,1,-1
 158 395 l 1,2,-1
 75 395 l 1,3,-1
 116 761 l 1,0,-1
63 287 m 1,4,-1
 146 287 l 1,5,-1
 102 -99 l 1,6,-1
 19 -99 l 1,7,-1
 63 287 l 1,4,-1
EndSplineSet
EndChar

StartChar: section
Encoding: 167 167 105
Width: 621
GlyphClass: 2
Flags: W
LayerCount: 2
Fore
SplineSet
402 -2 m 1,0,1
 441 -71 441 -71 441 -134 c 0,2,3
 441 -223 441 -223 382.5 -279 c 128,-1,4
 324 -335 324 -335 232 -335 c 128,-1,5
 140 -335 140 -335 88 -288 c 0,6,7
 33 -237 33 -237 33 -155 c 0,8,9
 33 -120 33 -120 45 -82 c 1,10,-1
 131 -82 l 1,11,12
 120 -104 120 -104 121 -141 c 128,-1,13
 122 -178 122 -178 146 -208.5 c 128,-1,14
 170 -239 170 -239 209 -239 c 128,-1,15
 248 -239 248 -239 271.5 -220 c 128,-1,16
 295 -201 295 -201 295 -168 c 128,-1,17
 295 -135 295 -135 278.5 -109.5 c 128,-1,18
 262 -84 262 -84 179 21 c 1,19,20
 77 147 77 147 74 245 c 1,21,22
 73 318 73 318 117 371.5 c 128,-1,23
 161 425 161 425 233 442 c 1,24,25
 215 471 215 471 208 484 c 0,26,27
 182 531 182 531 182 586 c 0,28,29
 182 663 182 663 243 712.5 c 128,-1,30
 304 762 304 762 392 762 c 128,-1,31
 480 762 480 762 534 721 c 0,32,33
 589 678 589 678 589 600 c 0,34,35
 589 561 589 561 567 514 c 1,36,-1
 480 514 l 1,37,38
 481 517 481 517 487 528.5 c 128,-1,39
 493 540 493 540 496 546 c 0,40,41
 504 564 504 564 503.5 599 c 128,-1,42
 503 634 503 634 475 655 c 128,-1,43
 447 676 447 676 411 676 c 128,-1,44
 375 676 375 676 351 654 c 128,-1,45
 327 632 327 632 327 600 c 128,-1,46
 327 568 327 568 345.5 540.5 c 128,-1,47
 364 513 364 513 388 486 c 128,-1,48
 412 459 412 459 431 438 c 128,-1,49
 450 417 450 417 454.5 411.5 c 128,-1,50
 459 406 459 406 475.5 387 c 128,-1,51
 492 368 492 368 497 360 c 128,-1,52
 502 352 502 352 515 334.5 c 128,-1,53
 528 317 528 317 533 307 c 128,-1,54
 538 297 538 297 547 280.5 c 128,-1,55
 556 264 556 264 560 252 c 0,56,57
 570 213 570 213 570 185 c 0,58,59
 570 110 570 110 521.5 60.5 c 128,-1,60
 473 11 473 11 402 -2 c 1,0,1
286 369 m 1,61,62
 256 364 256 364 237.5 343 c 128,-1,63
 219 322 219 322 219 288.5 c 128,-1,64
 219 255 219 255 236 225 c 0,65,66
 259 185 259 185 318 124 c 0,67,68
 335 105 335 105 343 94 c 1,69,70
 375 95 375 95 398 114 c 128,-1,71
 421 133 421 133 421 160.5 c 128,-1,72
 421 188 421 188 406 216 c 128,-1,73
 391 244 391 244 376 262.5 c 128,-1,74
 361 281 361 281 329.5 317.5 c 128,-1,75
 298 354 298 354 286 369 c 1,61,62
EndSplineSet
EndChar

StartChar: dieresis
Encoding: 168 168 106
Width: 600
GlyphClass: 2
Flags: W
LayerCount: 2
Fore
SplineSet
147.5 655.5 m 128,-1,1
 168 677 168 677 198 677 c 128,-1,2
 228 677 228 677 249 655.5 c 128,-1,3
 270 634 270 634 270 604 c 128,-1,4
 270 574 270 574 249 553 c 128,-1,5
 228 532 228 532 198 532 c 128,-1,6
 168 532 168 532 147.5 553 c 128,-1,7
 127 574 127 574 127 604 c 128,-1,0
 127 634 127 634 147.5 655.5 c 128,-1,1
439 677 m 128,-1,9
 469 677 469 677 490 655.5 c 128,-1,10
 511 634 511 634 511 604 c 128,-1,11
 511 574 511 574 490.5 553 c 128,-1,12
 470 532 470 532 439.5 532 c 128,-1,13
 409 532 409 532 387.5 553 c 128,-1,14
 366 574 366 574 366 604 c 128,-1,15
 366 634 366 634 387.5 655.5 c 128,-1,8
 409 677 409 677 439 677 c 128,-1,9
EndSplineSet
EndChar

StartChar: copyright
Encoding: 169 169 107
Width: 710
GlyphClass: 2
Flags: W
LayerCount: 2
Fore
SplineSet
120.5 576 m 128,-1,1
 211 671 211 671 354.5 671 c 128,-1,2
 498 671 498 671 589 576.5 c 128,-1,3
 680 482 680 482 680 346.5 c 128,-1,4
 680 211 680 211 589 116 c 128,-1,5
 498 21 498 21 354 21 c 128,-1,6
 210 21 210 21 120 115 c 128,-1,7
 30 209 30 209 30 345 c 128,-1,0
 30 481 30 481 120.5 576 c 128,-1,1
354 603 m 128,-1,9
 246 603 246 603 172 528 c 128,-1,10
 98 453 98 453 98 345 c 128,-1,11
 98 237 98 237 172 163 c 128,-1,12
 246 89 246 89 354 89 c 128,-1,13
 462 89 462 89 537 163 c 128,-1,14
 612 237 612 237 612 345 c 128,-1,15
 612 453 612 453 537 528 c 128,-1,8
 462 603 462 603 354 603 c 128,-1,9
377 238 m 0,16,17
 459 238 459 238 527 308 c 1,18,-1
 549 258 l 1,19,20
 532 223 532 223 476 188 c 1,21,22
 419 151 419 151 346 151 c 128,-1,23
 273 151 273 151 212.5 201 c 128,-1,24
 152 251 152 251 152 341.5 c 128,-1,25
 152 432 152 432 211.5 491 c 128,-1,26
 271 550 271 550 350.5 550 c 128,-1,27
 430 550 430 550 474 518.5 c 128,-1,28
 518 487 518 487 518 439 c 0,29,30
 518 388 518 388 476 371 c 0,31,32
 436 355 436 355 404 355 c 1,33,34
 418 383 418 383 418 403 c 0,35,36
 418 478 418 478 352 478 c 0,37,38
 311 478 311 478 284.5 445 c 128,-1,39
 258 412 258 412 258 355 c 128,-1,40
 258 298 258 298 294 268 c 128,-1,41
 330 238 330 238 377 238 c 0,16,17
EndSplineSet
EndChar

StartChar: ordfeminine
Encoding: 170 170 108
Width: 416
GlyphClass: 2
Flags: W
LayerCount: 2
Fore
SplineSet
280 472 m 0,0,1
 236 472 236 472 222 502 c 1,2,3
 198 472 198 472 160 472 c 128,-1,4
 122 472 122 472 96 498 c 128,-1,5
 70 524 70 524 70 565 c 0,6,7
 70 627 70 627 106 663.5 c 128,-1,8
 142 700 142 700 198 700 c 0,9,10
 223 700 223 700 243 692 c 1,11,12
 256 700 256 700 273.5 700 c 128,-1,13
 291 700 291 700 301 695 c 1,14,15
 281 543 281 543 281 529 c 128,-1,16
 281 515 281 515 294 515 c 0,17,18
 325 515 325 515 342 581 c 1,19,20
 357 568 357 568 361 552 c 1,21,22
 348 508 348 508 325 490 c 128,-1,23
 302 472 302 472 280 472 c 0,0,1
204 663 m 0,24,25
 137 663 137 663 137 562 c 0,26,27
 137 542 137 542 147.5 528.5 c 128,-1,28
 158 515 158 515 175 515 c 0,29,30
 206 515 206 515 221 561 c 1,31,-1
 231 657 l 1,32,33
 215 663 215 663 204 663 c 0,24,25
EndSplineSet
EndChar

StartChar: guillemotleft
Encoding: 171 171 109
Width: 600
GlyphClass: 2
Flags: W
LayerCount: 2
Fore
SplineSet
293 -1 m 1,0,-1
 102 238 l 1,1,-1
 313 483 l 1,2,-1
 379 483 l 1,3,-1
 235 238 l 1,4,-1
 360 -1 l 1,5,-1
 293 -1 l 1,0,-1
414 -1 m 1,6,-1
 295 238 l 1,7,-1
 434 483 l 1,8,-1
 500 483 l 1,9,-1
 403 238 l 1,10,-1
 481 -1 l 1,11,-1
 414 -1 l 1,6,-1
EndSplineSet
EndChar

StartChar: logicalnot
Encoding: 172 172 110
Width: 600
GlyphClass: 2
Flags: W
LayerCount: 2
Fore
SplineSet
471 164 m 1,0,-1
 493 345 l 1,1,-1
 34 345 l 1,2,-1
 46 431 l 1,3,-1
 586 431 l 1,4,-1
 554 164 l 1,5,-1
 471 164 l 1,0,-1
EndSplineSet
EndChar

StartChar: softhyphen
Encoding: 173 173 111
Width: 458
GlyphClass: 2
Flags: W
LayerCount: 2
Fore
SplineSet
424 417 m 1,0,-1
 415 331 l 1,1,-1
 33 331 l 1,2,-1
 42 417 l 1,3,-1
 424 417 l 1,0,-1
EndSplineSet
EndChar

StartChar: registered
Encoding: 174 174 112
Width: 710
GlyphClass: 2
Flags: W
LayerCount: 2
Fore
SplineSet
120.5 576 m 128,-1,1
 211 671 211 671 354.5 671 c 128,-1,2
 498 671 498 671 589 576.5 c 128,-1,3
 680 482 680 482 680 346.5 c 128,-1,4
 680 211 680 211 589 116 c 128,-1,5
 498 21 498 21 354 21 c 128,-1,6
 210 21 210 21 120 115 c 128,-1,7
 30 209 30 209 30 345 c 128,-1,0
 30 481 30 481 120.5 576 c 128,-1,1
354 89 m 128,-1,9
 462 89 462 89 537 163 c 128,-1,10
 612 237 612 237 612 345 c 128,-1,11
 612 453 612 453 537 528 c 128,-1,12
 462 603 462 603 354 603 c 128,-1,13
 246 603 246 603 172 528 c 128,-1,14
 98 453 98 453 98 345 c 128,-1,15
 98 237 98 237 172 163 c 128,-1,8
 246 89 246 89 354 89 c 128,-1,9
400.5 184 m 128,-1,17
 382 211 382 211 375 263.5 c 128,-1,18
 368 316 368 316 363 329 c 1,19,-1
 340 323 l 1,20,-1
 334 271 l 2,21,22
 326 208 326 208 298 182.5 c 128,-1,23
 270 157 270 157 237.5 157 c 128,-1,24
 205 157 205 157 188 179 c 128,-1,25
 171 201 171 201 171 225 c 0,26,27
 171 288 171 288 264 332 c 1,28,29
 277 446 277 446 278 455 c 1,30,31
 296 467 296 467 320 467 c 128,-1,32
 344 467 344 467 358 463 c 1,33,-1
 345 361 l 1,34,-1
 347 362 l 1,35,36
 427 388 427 388 427 443 c 0,37,38
 427 471 427 471 402.5 488 c 128,-1,39
 378 505 378 505 331.5 505 c 128,-1,40
 285 505 285 505 255 486.5 c 128,-1,41
 225 468 225 468 225 439 c 0,42,43
 225 426 225 426 237 416 c 128,-1,44
 249 406 249 406 260 405 c 1,45,-1
 256 377 l 2,46,47
 255 377 255 377 254 377 c 0,48,49
 173 377 173 377 173 443 c 0,50,51
 173 491 173 491 221 525 c 0,52,53
 272 561 272 561 343.5 561 c 128,-1,54
 415 561 415 561 467 530 c 128,-1,55
 519 499 519 499 519 439 c 0,56,57
 519 410 519 410 499 383 c 128,-1,58
 479 356 479 356 445 342 c 1,59,60
 454 324 454 324 458.5 290 c 128,-1,61
 463 256 463 256 469 235 c 128,-1,62
 475 214 475 214 491 214 c 0,63,64
 521 214 521 214 544 283 c 1,65,-1
 569 273 l 1,66,67
 555 213 555 213 526 186 c 0,68,69
 496 157 496 157 457.5 157 c 128,-1,16
 419 157 419 157 400.5 184 c 128,-1,17
258 286 m 1,70,71
 210 256 210 256 210 237.5 c 128,-1,72
 210 219 210 219 227 219 c 0,73,74
 250 219 250 219 255 257 c 1,75,-1
 258 286 l 1,70,71
EndSplineSet
EndChar

StartChar: macron
Encoding: 175 175 113
Width: 600
GlyphClass: 2
Flags: W
LayerCount: 2
Fore
SplineSet
120 700 m 1,0,-1
 540 700 l 1,1,-1
 540 618 l 1,2,-1
 120 618 l 1,3,-1
 120 700 l 1,0,-1
EndSplineSet
EndChar

StartChar: degree
Encoding: 176 176 114
Width: 600
GlyphClass: 2
Flags: W
LayerCount: 2
Fore
SplineSet
190 720.5 m 128,-1,1
 235 761 235 761 292.5 761 c 128,-1,2
 350 761 350 761 383.5 724 c 128,-1,3
 417 687 417 687 417 640 c 0,4,5
 417 631 417 631 416 622 c 0,6,7
 411 565 411 565 366.5 524 c 128,-1,8
 322 483 322 483 264.5 483 c 128,-1,9
 207 483 207 483 172 521.5 c 128,-1,10
 137 560 137 560 137 609 c 0,11,12
 137 615 137 615 138 622 c 0,13,0
 145 680 145 680 190 720.5 c 128,-1,1
354 632 m 0,14,15
 354 657 354 657 336 677.5 c 128,-1,16
 318 698 318 698 286.5 698 c 128,-1,17
 255 698 255 698 230 676 c 0,18,19
 201 650 201 650 201 619 c 128,-1,20
 201 588 201 588 220 567 c 128,-1,21
 239 546 239 546 270.5 546 c 128,-1,22
 302 546 302 546 326.5 568.5 c 128,-1,23
 351 591 351 591 353 622 c 0,24,25
 354 627 354 627 354 632 c 0,14,15
EndSplineSet
EndChar

StartChar: plusminus
Encoding: 177 177 115
Width: 494
GlyphClass: 2
Flags: W
LayerCount: 2
Fore
SplineSet
287 392 m 1,0,-1
 263 179 l 1,1,-1
 171 179 l 1,2,-1
 196 392 l 1,3,-1
 6 392 l 1,4,-1
 16 478 l 1,5,-1
 206 478 l 1,6,-1
 230 688 l 1,7,-1
 321 688 l 1,8,-1
 297 478 l 1,9,-1
 488 478 l 1,10,-1
 478 392 l 1,11,-1
 287 392 l 1,0,-1
458 0 m 1,12,-1
 -14 0 l 1,13,-1
 -4 86 l 1,14,-1
 468 86 l 1,15,-1
 458 0 l 1,12,-1
EndSplineSet
EndChar

StartChar: twosuperior
Encoding: 178 178 116
Width: 357
GlyphClass: 2
Flags: W
LayerCount: 2
Fore
SplineSet
57 586 m 1,0,-1
 57 600 l 1,1,2
 58 651 58 651 95 675.5 c 128,-1,3
 132 700 132 700 184 700 c 128,-1,4
 236 700 236 700 273 672.5 c 128,-1,5
 310 645 310 645 310 592 c 0,6,7
 310 550 310 550 280 512 c 0,8,9
 260 487 260 487 246 473 c 2,10,-1
 230 457 l 2,11,12
 193 420 193 420 150 391 c 1,13,14
 212 379 212 379 233.5 379 c 128,-1,15
 255 379 255 379 265.5 392 c 128,-1,16
 276 405 276 405 284 434 c 1,17,-1
 315 434 l 1,18,19
 317 414 317 414 317 406 c 0,20,21
 310 310 310 310 230 310 c 0,22,23
 202 310 202 310 158 319 c 128,-1,24
 114 328 114 328 91.5 328 c 128,-1,25
 69 328 69 328 45 310 c 1,26,-1
 25 357 l 1,27,28
 33 368 33 368 72 400.5 c 128,-1,29
 111 433 111 433 120.5 441.5 c 128,-1,30
 130 450 130 450 145.5 464.5 c 128,-1,31
 161 479 161 479 167.5 485 c 128,-1,32
 174 491 174 491 187 505.5 c 128,-1,33
 200 520 200 520 206 531 c 0,34,35
 225 567 225 567 225 595.5 c 128,-1,36
 225 624 225 624 210.5 638 c 128,-1,37
 196 652 196 652 176 653 c 1,38,39
 127 650 127 650 125 605 c 0,40,41
 125 596 125 596 127 586 c 1,42,-1
 57 586 l 1,0,-1
EndSplineSet
EndChar

StartChar: threesuperior
Encoding: 179 179 117
Width: 399
GlyphClass: 2
Flags: W
LayerCount: 2
Fore
SplineSet
250 422 m 0,0,1
 250 480 250 480 168 480 c 2,2,-1
 143 480 l 1,3,-1
 148 527 l 1,4,5
 173 527 173 527 196.5 529.5 c 128,-1,6
 220 532 220 532 234 545.5 c 128,-1,7
 248 559 248 559 252 591 c 1,8,9
 253 616 253 616 241.5 633.5 c 128,-1,10
 230 651 230 651 208 651 c 0,11,12
 162 651 162 651 156 604 c 0,13,14
 154 593 154 593 159 574 c 1,15,-1
 79 574 l 1,16,17
 77 588 77 588 77 600 c 0,18,19
 77 634 77 634 103 658 c 0,20,21
 148 700 148 700 210.5 700 c 128,-1,22
 273 700 273 700 305 672 c 128,-1,23
 337 644 337 644 337 600 c 0,24,25
 337 544 337 544 284 511 c 1,26,27
 314 500 314 500 330.5 479.5 c 128,-1,28
 347 459 347 459 347 434 c 0,29,30
 347 370 347 370 296 337 c 0,31,32
 255 310 255 310 199 310 c 0,33,34
 94 310 94 310 44 391 c 1,35,-1
 125 437 l 1,36,37
 126 399 126 399 144.5 379.5 c 128,-1,38
 163 360 163 360 190 360 c 128,-1,39
 217 360 217 360 233.5 377.5 c 128,-1,40
 250 395 250 395 250 422 c 0,0,1
EndSplineSet
EndChar

StartChar: acute
Encoding: 180 180 118
Width: 238
GlyphClass: 2
Flags: W
LayerCount: 2
Fore
SplineSet
52 550 m 1,0,-1
 179 737 l 1,1,2
 199 727 199 727 226 698.5 c 128,-1,3
 253 670 253 670 270 646 c 1,4,-1
 90 513 l 1,5,6
 78 520 78 520 52 550 c 1,0,-1
EndSplineSet
EndChar

StartChar: paragraph
Encoding: 182 182 119
Width: 600
GlyphClass: 2
Flags: W
LayerCount: 2
Fore
SplineSet
294 301 m 1,0,-1
 241 297 l 1,1,2
 155 297 155 297 88 344 c 128,-1,3
 21 391 21 391 21 478 c 0,4,5
 21 562 21 562 84 626 c 0,6,7
 156 699 156 699 331 705 c 1,8,-1
 335 740 l 1,9,10
 369 762 369 762 433 762 c 0,11,12
 447 762 447 762 461 760 c 1,13,-1
 454 693 l 1,14,-1
 477 687 l 1,15,-1
 485 761 l 1,16,-1
 539 761 l 1,17,-1
 529 670 l 1,18,19
 539 666 539 666 557 656 c 1,20,-1
 540 588 l 1,21,-1
 521 596 l 1,22,-1
 455 0 l 1,23,-1
 401 0 l 1,24,-1
 469 612 l 1,25,-1
 445 617 l 1,26,-1
 399 196 l 2,27,28
 378 -1 378 -1 228 -1 c 0,29,30
 171 -1 171 -1 136 30.5 c 128,-1,31
 101 62 101 62 101 111 c 128,-1,32
 101 160 101 160 132.5 190.5 c 128,-1,33
 164 221 164 221 205 221 c 128,-1,34
 246 221 246 221 261 216 c 1,35,-1
 257 171 l 1,36,37
 248 173 248 173 223 173 c 128,-1,38
 198 173 198 173 183 158.5 c 128,-1,39
 168 144 168 144 168 122 c 128,-1,40
 168 100 168 100 182 86.5 c 128,-1,41
 196 73 196 73 214 73 c 0,42,43
 272 73 272 73 282 173 c 2,44,-1
 294 301 l 1,0,-1
190 489 m 0,45,46
 190 443 190 443 221.5 407.5 c 128,-1,47
 253 372 253 372 300 370 c 1,48,-1
 323 622 l 1,49,50
 274 617 274 617 242.5 593.5 c 128,-1,51
 211 570 211 570 200.5 544 c 128,-1,52
 190 518 190 518 190 489 c 0,45,46
EndSplineSet
EndChar

StartChar: periodcentered
Encoding: 183 183 120
Width: 600
GlyphClass: 2
Flags: W
LayerCount: 2
Fore
SplineSet
232 378 m 2,0,-1
 358 378 l 2,1,2
 367 378 367 378 369 377 c 128,-1,3
 371 376 371 376 371 371 c 2,4,-1
 371 244 l 2,5,6
 371 238 371 238 369 237 c 128,-1,7
 367 236 367 236 358 236 c 2,8,-1
 232 236 l 2,9,10
 225 236 225 236 223 238 c 128,-1,11
 221 240 221 240 221 248 c 2,12,-1
 221 366 l 2,13,14
 221 374 221 374 222.5 376 c 128,-1,15
 224 378 224 378 232 378 c 2,0,-1
EndSplineSet
EndChar

StartChar: cedilla
Encoding: 184 184 121
Width: 600
GlyphClass: 2
Flags: W
LayerCount: 2
Fore
SplineSet
379.5 -56 m 128,-1,1
 409 -80 409 -80 409 -126 c 128,-1,2
 409 -172 409 -172 374.5 -201 c 128,-1,3
 340 -230 340 -230 296 -230 c 0,4,5
 225 -230 225 -230 191 -182 c 1,6,-1
 209 -144 l 1,7,8
 218 -158 218 -158 240.5 -171 c 128,-1,9
 263 -184 263 -184 285 -184 c 128,-1,10
 307 -184 307 -184 321.5 -167.5 c 128,-1,11
 336 -151 336 -151 336 -125.5 c 128,-1,12
 336 -100 336 -100 316.5 -85 c 128,-1,13
 297 -70 297 -70 269 -70 c 128,-1,14
 241 -70 241 -70 236 -71 c 1,15,-1
 277 37 l 1,16,-1
 333 37 l 1,17,-1
 307 -33 l 1,18,-1
 313 -32 l 1,19,0
 350 -32 350 -32 379.5 -56 c 128,-1,1
EndSplineSet
EndChar

StartChar: onesuperior
Encoding: 185 185 122
Width: 267
GlyphClass: 2
Flags: W
LayerCount: 2
Fore
SplineSet
245 365 m 1,0,1
 239 323 239 323 239 310 c 1,2,-1
 2 310 l 1,3,-1
 9 365 l 1,4,-1
 87 365 l 1,5,-1
 113 600 l 1,6,-1
 29 592 l 1,7,-1
 36 639 l 1,8,9
 118 660 118 660 138 700 c 1,10,-1
 202 700 l 1,11,-1
 164 365 l 1,12,-1
 245 365 l 1,0,1
EndSplineSet
EndChar

StartChar: ordmasculine
Encoding: 186 186 123
Width: 282
GlyphClass: 2
Flags: W
LayerCount: 2
Fore
SplineSet
272 596 m 0,0,1
 272 530 272 530 233 490 c 128,-1,2
 194 450 194 450 139.5 450 c 128,-1,3
 85 450 85 450 52.5 481.5 c 128,-1,4
 20 513 20 513 20 559 c 0,5,6
 20 623 20 623 59.5 661 c 128,-1,7
 99 699 99 699 153.5 699.5 c 128,-1,8
 208 700 208 700 240 669.5 c 128,-1,9
 272 639 272 639 272 596 c 0,0,1
110.5 631 m 128,-1,11
 94 603 94 603 93 567 c 128,-1,12
 92 531 92 531 104.5 511 c 128,-1,13
 117 491 117 491 141.5 491 c 128,-1,14
 166 491 166 491 183 519 c 128,-1,15
 200 547 200 547 200 581.5 c 128,-1,16
 200 616 200 616 188 637 c 0,17,18
 176 659 176 659 151.5 659 c 128,-1,10
 127 659 127 659 110.5 631 c 128,-1,11
EndSplineSet
EndChar

StartChar: guillemotright
Encoding: 187 187 124
Width: 480
GlyphClass: 2
Flags: W
LayerCount: 2
Fore
SplineSet
77 0 m 1,0,-1
 172 239 l 1,1,-1
 93 484 l 1,2,-1
 159 484 l 1,3,-1
 280 239 l 1,4,-1
 143 0 l 1,5,-1
 77 0 l 1,0,-1
198 0 m 1,6,-1
 341 239 l 1,7,-1
 214 484 l 1,8,-1
 280 484 l 1,9,-1
 474 239 l 1,10,-1
 264 0 l 1,11,-1
 198 0 l 1,6,-1
EndSplineSet
EndChar

StartChar: onequarter
Encoding: 188 188 125
Width: 858
GlyphClass: 2
Flags: W
LayerCount: 2
Fore
SplineSet
713 761 m 1,0,-1
 155 -100 l 1,1,-1
 72 -100 l 1,2,-1
 630 761 l 1,3,-1
 713 761 l 1,0,-1
290 365 m 1,4,5
 284 323 284 323 284 310 c 1,6,-1
 33 310 l 1,7,-1
 40 365 l 1,8,-1
 122 365 l 1,9,-1
 148 600 l 1,10,-1
 60 592 l 1,11,-1
 67 639 l 1,12,13
 165 664 165 664 183 700 c 1,14,-1
 247 700 l 1,15,-1
 209 365 l 1,16,-1
 290 365 l 1,4,5
708 388 m 0,17,18
 756 388 756 388 756 356 c 0,19,20
 756 340 756 340 727 191 c 1,21,22
 798 174 798 174 798 103 c 0,23,24
 798 40 798 40 764 12 c 1,25,26
 738 -8 738 -8 705 -8 c 0,27,28
 668 -8 668 -8 647.5 11.5 c 128,-1,29
 627 31 627 31 627 62 c 0,30,31
 627 67 627 67 629 77 c 2,32,-1
 636 130 l 1,33,-1
 495 130 l 1,34,-1
 495 132 l 1,35,36
 490 139 490 139 481 160 c 128,-1,37
 472 181 472 181 472 184.5 c 128,-1,38
 472 188 472 188 473 189 c 0,39,40
 559 302 559 302 559 365 c 0,41,42
 559 388 559 388 529 400 c 1,43,44
 553 424 553 424 601 424 c 0,45,46
 625 424 625 424 637.5 412 c 128,-1,47
 650 400 650 400 650 388 c 128,-1,48
 650 376 650 376 649.5 367.5 c 128,-1,49
 649 359 649 359 643 343 c 128,-1,50
 637 327 637 327 625.5 305 c 128,-1,51
 614 283 614 283 605.5 268 c 128,-1,52
 597 253 597 253 582 227.5 c 128,-1,53
 567 202 567 202 564 196 c 1,54,-1
 646 196 l 1,55,-1
 676 384 l 1,56,57
 696 388 696 388 708 388 c 0,17,18
723 49 m 0,58,59
 753 49 753 49 753 96 c 0,60,61
 753 112 753 112 745 121.5 c 128,-1,62
 737 131 737 131 715 133 c 1,63,-1
 707 73 l 1,64,65
 707 49 707 49 723 49 c 0,58,59
EndSplineSet
EndChar

StartChar: onehalf
Encoding: 189 189 126
Width: 800
GlyphClass: 2
Flags: W
LayerCount: 2
Fore
SplineSet
726 761 m 1,0,-1
 168 -100 l 1,1,-1
 85 -100 l 1,2,-1
 643 761 l 1,3,-1
 726 761 l 1,0,-1
307 365 m 1,4,5
 301 323 301 323 301 310 c 1,6,-1
 50 310 l 1,7,-1
 57 365 l 1,8,-1
 139 365 l 1,9,-1
 165 600 l 1,10,-1
 77 592 l 1,11,-1
 84 639 l 1,12,13
 182 664 182 664 200 700 c 1,14,-1
 264 700 l 1,15,-1
 226 365 l 1,16,-1
 307 365 l 1,4,5
766 114 m 1,17,-1
 769 73 l 1,18,19
 769 34 769 34 745 7 c 128,-1,20
 721 -20 721 -20 687 -20 c 128,-1,21
 653 -20 653 -20 609 -6 c 128,-1,22
 565 8 565 8 542.5 8 c 128,-1,23
 520 8 520 8 496 -10 c 1,24,-1
 476 37 l 1,25,26
 479 51 479 51 518 84 c 0,27,28
 591 146 591 146 614.5 175 c 128,-1,29
 638 204 638 204 646 225 c 0,30,31
 657 253 657 253 657 279 c 128,-1,32
 657 305 657 305 643.5 318.5 c 128,-1,33
 630 332 630 332 610 333 c 1,34,35
 568 331 568 331 566 285 c 1,36,37
 566 256 566 256 568 246 c 1,38,-1
 488 246 l 1,39,-1
 488 280 l 1,40,41
 489 330 489 330 530.5 355 c 128,-1,42
 572 380 572 380 624.5 380 c 128,-1,43
 677 380 677 380 714 352.5 c 128,-1,44
 751 325 751 325 751 267.5 c 128,-1,45
 751 210 751 210 681 137 c 1,46,47
 644 100 644 100 601 71 c 1,48,49
 663 59 663 59 684.5 59 c 128,-1,50
 706 59 706 59 716.5 72 c 128,-1,51
 727 85 727 85 735 114 c 1,52,-1
 766 114 l 1,17,-1
EndSplineSet
EndChar

StartChar: threequarters
Encoding: 190 190 127
Width: 850
GlyphClass: 2
Flags: W
LayerCount: 2
Fore
SplineSet
91 -100 m 1,0,-1
 649 761 l 1,1,-1
 732 761 l 1,2,-1
 174 -100 l 1,3,-1
 91 -100 l 1,0,-1
244 422 m 0,4,5
 244 480 244 480 162 480 c 2,6,-1
 137 480 l 1,7,-1
 142 527 l 1,8,9
 167 527 167 527 190.5 529.5 c 128,-1,10
 214 532 214 532 228 545.5 c 128,-1,11
 242 559 242 559 246 591 c 1,12,13
 247 616 247 616 235.5 633.5 c 128,-1,14
 224 651 224 651 202 651 c 0,15,16
 156 651 156 651 150 604 c 0,17,18
 148 593 148 593 153 574 c 1,19,-1
 73 574 l 1,20,21
 71 588 71 588 71 600 c 0,22,23
 71 634 71 634 97 658 c 0,24,25
 142 700 142 700 204.5 700 c 128,-1,26
 267 700 267 700 299 672 c 128,-1,27
 331 644 331 644 331 600 c 0,28,29
 331 544 331 544 278 511 c 1,30,31
 308 500 308 500 324.5 479.5 c 128,-1,32
 341 459 341 459 341 434 c 0,33,34
 341 370 341 370 290 337 c 0,35,36
 249 310 249 310 193 310 c 0,37,38
 88 310 88 310 38 391 c 1,39,-1
 119 437 l 1,40,41
 120 399 120 399 138.5 379.5 c 128,-1,42
 157 360 157 360 184 360 c 128,-1,43
 211 360 211 360 227.5 377.5 c 128,-1,44
 244 395 244 395 244 422 c 0,4,5
526 394 m 1,45,46
 550 418 550 418 598 418 c 0,47,48
 622 418 622 418 634.5 406 c 128,-1,49
 647 394 647 394 647 382 c 128,-1,50
 647 370 647 370 646.5 361.5 c 128,-1,51
 646 353 646 353 640 337 c 128,-1,52
 634 321 634 321 622.5 299 c 128,-1,53
 611 277 611 277 602.5 262 c 128,-1,54
 594 247 594 247 579 221.5 c 128,-1,55
 564 196 564 196 561 190 c 1,56,-1
 643 190 l 1,57,-1
 673 378 l 1,58,59
 693 382 693 382 711 382 c 0,60,61
 753 382 753 382 753 348 c 0,62,63
 753 334 753 334 724 185 c 1,64,65
 795 168 795 168 795 97 c 0,66,67
 795 34 795 34 761 6 c 1,68,69
 735 -14 735 -14 702 -14 c 0,70,71
 665 -14 665 -14 644.5 5.5 c 128,-1,72
 624 25 624 25 624 56 c 0,73,74
 624 61 624 61 626 71 c 2,75,-1
 633 124 l 1,76,-1
 492 124 l 1,77,-1
 492 126 l 1,78,79
 487 133 487 133 478 154 c 128,-1,80
 469 175 469 175 469 178.5 c 128,-1,81
 469 182 469 182 470 183 c 0,82,83
 556 296 556 296 556 359 c 0,84,85
 556 382 556 382 526 394 c 1,45,46
720 43 m 0,86,87
 750 43 750 43 750 90 c 0,88,89
 750 106 750 106 742 115.5 c 128,-1,90
 734 125 734 125 712 127 c 1,91,92
 712 127 712 127 704 67 c 1,93,94
 704 43 704 43 720 43 c 0,86,87
EndSplineSet
EndChar

StartChar: questiondown
Encoding: 191 191 128
Width: 593
GlyphClass: 2
Flags: W
LayerCount: 2
Fore
SplineSet
430 568 m 128,-1,1
 464 568 464 568 488 544.5 c 128,-1,2
 512 521 512 521 512 487 c 128,-1,3
 512 453 512 453 488 428.5 c 128,-1,4
 464 404 464 404 430 404 c 128,-1,5
 396 404 396 404 372 428.5 c 128,-1,6
 348 453 348 453 348 487 c 128,-1,7
 348 521 348 521 372 544.5 c 128,-1,0
 396 568 396 568 430 568 c 128,-1,1
467 311 m 1,8,9
 476 301 476 301 480 278 c 128,-1,10
 484 255 484 255 484 247 c 0,11,12
 484 199 484 199 454.5 161.5 c 128,-1,13
 425 124 425 124 388.5 98.5 c 128,-1,14
 352 73 352 73 316 47.5 c 128,-1,15
 280 22 280 22 254 -15 c 0,16,17
 227 -55 227 -55 227 -96 c 128,-1,18
 227 -137 227 -137 249 -164 c 128,-1,19
 271 -191 271 -191 316 -191 c 128,-1,20
 361 -191 361 -191 389 -158 c 0,21,22
 418 -124 418 -124 418 -77.5 c 128,-1,23
 418 -31 418 -31 399 -4 c 1,24,-1
 496 -4 l 1,25,26
 514 -47 514 -47 514 -88 c 1,27,28
 511 -168 511 -168 446.5 -221.5 c 128,-1,29
 382 -275 382 -275 288.5 -275 c 128,-1,30
 195 -275 195 -275 137.5 -222.5 c 128,-1,31
 80 -170 80 -170 80 -91 c 0,32,33
 80 -89 80 -89 80 -86 c 0,34,35
 83 -13 83 -13 115 35 c 128,-1,36
 147 83 147 83 203 126 c 0,37,38
 222 141 222 141 258 165.5 c 128,-1,39
 294 190 294 190 313 204 c 128,-1,40
 332 218 332 218 349.5 240.5 c 128,-1,41
 367 263 367 263 371 286 c 1,42,-1
 371 292 l 2,43,44
 371 308 371 308 370 311 c 1,45,-1
 467 311 l 1,8,9
EndSplineSet
EndChar

StartChar: Agrave
Encoding: 192 192 129
Width: 714
GlyphClass: 2
Flags: W
LayerCount: 2
Fore
SplineSet
469 1017 m 1,0,-1
 596 830 l 1,1,2
 570 800 570 800 558 793 c 1,3,-1
 378 926 l 1,4,5
 395 950 395 950 422 978.5 c 128,-1,6
 449 1007 449 1007 469 1017 c 1,0,-1
608 -2 m 0,7,8
 552 -2 552 -2 523.5 34.5 c 128,-1,9
 495 71 495 71 485 171 c 0,10,11
 479 223 479 223 473 306 c 1,12,13
 403 285 403 285 332 262 c 1,14,-1
 298 168 l 2,15,16
 288 141 288 141 284 129.5 c 128,-1,17
 280 118 280 118 269.5 95 c 128,-1,18
 259 72 259 72 251.5 61.5 c 128,-1,19
 244 51 244 51 230.5 35 c 128,-1,20
 217 19 217 19 203 12 c 0,21,22
 167 -6 167 -6 126 -6 c 128,-1,23
 85 -6 85 -6 59.5 23.5 c 128,-1,24
 34 53 34 53 34 96 c 0,25,26
 34 108 34 108 36 121 c 0,27,28
 49 217 49 217 233 296 c 1,29,30
 285 429 285 429 406 744 c 1,31,32
 438 762 438 762 487 762 c 0,33,34
 498 762 498 762 508 762 c 128,-1,35
 518 762 518 762 532.5 762 c 128,-1,36
 547 762 547 762 569 756 c 1,37,38
 570 709 570 709 615 173 c 0,39,40
 619 128 619 128 626 114.5 c 128,-1,41
 633 101 633 101 650 101 c 0,42,43
 678 101 678 101 724.5 139 c 128,-1,44
 771 177 771 177 808 234 c 1,45,-1
 836 166 l 1,46,-1
 812 134 l 1,47,48
 707 -2 707 -2 608 -2 c 0,7,8
449 588 m 1,49,-1
 362 345 l 1,50,51
 432 369 432 369 466 380 c 1,52,-1
 449 588 l 1,49,-1
105 117 m 0,54,55
 105 85 105 85 129 85 c 0,56,57
 147 85 147 85 158 111 c 0,58,59
 171 139 171 139 198 209 c 1,60,53
 105 162 105 162 105 117 c 0,54,55
EndSplineSet
EndChar

StartChar: Aacute
Encoding: 193 193 130
Width: 714
GlyphClass: 2
Flags: W
LayerCount: 2
Fore
SplineSet
430 830 m 1,0,-1
 557 1017 l 1,1,2
 577 1007 577 1007 604 978.5 c 128,-1,3
 631 950 631 950 648 926 c 1,4,-1
 468 793 l 1,5,6
 456 800 456 800 430 830 c 1,0,-1
608 -2 m 0,7,8
 552 -2 552 -2 523.5 34.5 c 128,-1,9
 495 71 495 71 485 171 c 0,10,11
 479 223 479 223 473 306 c 1,12,13
 403 285 403 285 332 262 c 1,14,-1
 298 168 l 2,15,16
 288 141 288 141 284 129.5 c 128,-1,17
 280 118 280 118 269.5 95 c 128,-1,18
 259 72 259 72 251.5 61.5 c 128,-1,19
 244 51 244 51 230.5 35 c 128,-1,20
 217 19 217 19 203 12 c 0,21,22
 167 -6 167 -6 126 -6 c 128,-1,23
 85 -6 85 -6 59.5 23.5 c 128,-1,24
 34 53 34 53 34 96 c 0,25,26
 34 108 34 108 36 121 c 0,27,28
 49 217 49 217 233 296 c 1,29,30
 285 429 285 429 406 744 c 1,31,32
 438 762 438 762 487 762 c 0,33,34
 498 762 498 762 508 762 c 128,-1,35
 518 762 518 762 532.5 762 c 128,-1,36
 547 762 547 762 569 756 c 1,37,38
 570 709 570 709 615 173 c 0,39,40
 619 128 619 128 626 114.5 c 128,-1,41
 633 101 633 101 650 101 c 0,42,43
 678 101 678 101 724.5 139 c 128,-1,44
 771 177 771 177 808 234 c 1,45,-1
 836 166 l 1,46,-1
 812 134 l 1,47,48
 707 -2 707 -2 608 -2 c 0,7,8
449 588 m 1,49,-1
 362 345 l 1,50,51
 432 369 432 369 466 380 c 1,52,-1
 449 588 l 1,49,-1
105 117 m 0,54,55
 105 85 105 85 129 85 c 0,56,57
 147 85 147 85 158 111 c 0,58,59
 171 139 171 139 198 209 c 1,60,53
 105 162 105 162 105 117 c 0,54,55
EndSplineSet
EndChar

StartChar: Acircumflex
Encoding: 194 194 131
Width: 714
GlyphClass: 2
Flags: W
LayerCount: 2
Fore
SplineSet
499 980 m 1,0,-1
 673 859 l 1,1,2
 652 820 652 820 640 801 c 1,3,-1
 499 874 l 1,4,-1
 358 801 l 1,5,6
 346 820 346 820 325 859 c 1,7,-1
 499 980 l 1,0,-1
608 -2 m 0,8,9
 552 -2 552 -2 523.5 34.5 c 128,-1,10
 495 71 495 71 485 171 c 0,11,12
 479 223 479 223 473 306 c 1,13,14
 403 285 403 285 332 262 c 1,15,-1
 298 168 l 2,16,17
 288 141 288 141 284 129.5 c 128,-1,18
 280 118 280 118 269.5 95 c 128,-1,19
 259 72 259 72 251.5 61.5 c 128,-1,20
 244 51 244 51 230.5 35 c 128,-1,21
 217 19 217 19 203 12 c 0,22,23
 167 -6 167 -6 126 -6 c 128,-1,24
 85 -6 85 -6 59.5 23.5 c 128,-1,25
 34 53 34 53 34 96 c 0,26,27
 34 108 34 108 36 121 c 0,28,29
 49 217 49 217 233 296 c 1,30,31
 285 429 285 429 406 744 c 1,32,33
 438 762 438 762 487 762 c 0,34,35
 498 762 498 762 508 762 c 128,-1,36
 518 762 518 762 532.5 762 c 128,-1,37
 547 762 547 762 569 756 c 1,38,39
 570 709 570 709 615 173 c 0,40,41
 619 128 619 128 626 114.5 c 128,-1,42
 633 101 633 101 650 101 c 0,43,44
 678 101 678 101 724.5 139 c 128,-1,45
 771 177 771 177 808 234 c 1,46,-1
 836 166 l 1,47,-1
 812 134 l 1,48,49
 707 -2 707 -2 608 -2 c 0,8,9
449 588 m 1,50,-1
 362 345 l 1,51,52
 432 369 432 369 466 380 c 1,53,-1
 449 588 l 1,50,-1
105 117 m 0,55,56
 105 85 105 85 129 85 c 0,57,58
 147 85 147 85 158 111 c 0,59,60
 171 139 171 139 198 209 c 1,61,54
 105 162 105 162 105 117 c 0,55,56
EndSplineSet
EndChar

StartChar: Atilde
Encoding: 195 195 132
Width: 714
GlyphClass: 2
Flags: W
LayerCount: 2
Fore
SplineSet
529 944 m 128,-1,1
 584 909 584 909 607 909 c 0,2,3
 653 909 653 909 681 977 c 1,4,-1
 725 952 l 1,5,6
 716 887 716 887 681.5 845.5 c 128,-1,7
 647 804 647 804 600 804 c 128,-1,8
 553 804 553 804 500 841 c 0,9,10
 446 879 446 879 424 879 c 128,-1,11
 402 879 402 879 386 866.5 c 128,-1,12
 370 854 370 854 354 820 c 1,13,-1
 310 846 l 1,14,15
 323 904 323 904 355 941.5 c 128,-1,16
 387 979 387 979 430.5 979 c 128,-1,0
 474 979 474 979 529 944 c 128,-1,1
608 -2 m 0,17,18
 552 -2 552 -2 523.5 34.5 c 128,-1,19
 495 71 495 71 485 171 c 0,20,21
 479 223 479 223 473 306 c 1,22,23
 403 285 403 285 332 262 c 1,24,-1
 298 168 l 2,25,26
 288 141 288 141 284 129.5 c 128,-1,27
 280 118 280 118 269.5 95 c 128,-1,28
 259 72 259 72 251.5 61.5 c 128,-1,29
 244 51 244 51 230.5 35 c 128,-1,30
 217 19 217 19 203 12 c 0,31,32
 167 -6 167 -6 126 -6 c 128,-1,33
 85 -6 85 -6 59.5 23.5 c 128,-1,34
 34 53 34 53 34 96 c 0,35,36
 34 108 34 108 36 121 c 0,37,38
 49 217 49 217 233 296 c 1,39,40
 285 429 285 429 406 744 c 1,41,42
 438 762 438 762 487 762 c 0,43,44
 498 762 498 762 508 762 c 128,-1,45
 518 762 518 762 532.5 762 c 128,-1,46
 547 762 547 762 569 756 c 1,47,48
 570 709 570 709 615 173 c 0,49,50
 619 128 619 128 626 114.5 c 128,-1,51
 633 101 633 101 650 101 c 0,52,53
 678 101 678 101 724.5 139 c 128,-1,54
 771 177 771 177 808 234 c 1,55,-1
 836 166 l 1,56,-1
 812 134 l 1,57,58
 707 -2 707 -2 608 -2 c 0,17,18
449 588 m 1,59,-1
 362 345 l 1,60,61
 432 369 432 369 466 380 c 1,62,-1
 449 588 l 1,59,-1
105 117 m 0,63,64
 105 85 105 85 129 85 c 0,65,66
 147 85 147 85 158 111 c 0,67,68
 171 139 171 139 198 209 c 1,69,70
 105 162 105 162 105 117 c 0,63,64
EndSplineSet
EndChar

StartChar: Adieresis
Encoding: 196 196 133
Width: 714
GlyphClass: 2
Flags: W
LayerCount: 2
Fore
SplineSet
325.5 935.5 m 128,-1,1
 346 957 346 957 376 957 c 128,-1,2
 406 957 406 957 427 935.5 c 128,-1,3
 448 914 448 914 448 884 c 128,-1,4
 448 854 448 854 427 833 c 128,-1,5
 406 812 406 812 376 812 c 128,-1,6
 346 812 346 812 325.5 833 c 128,-1,7
 305 854 305 854 305 884 c 128,-1,0
 305 914 305 914 325.5 935.5 c 128,-1,1
617 957 m 128,-1,9
 647 957 647 957 668 935.5 c 128,-1,10
 689 914 689 914 689 884 c 128,-1,11
 689 854 689 854 668.5 833 c 128,-1,12
 648 812 648 812 617.5 812 c 128,-1,13
 587 812 587 812 565.5 833 c 128,-1,14
 544 854 544 854 544 884 c 128,-1,15
 544 914 544 914 565.5 935.5 c 128,-1,8
 587 957 587 957 617 957 c 128,-1,9
608 -2 m 0,16,17
 552 -2 552 -2 523.5 34.5 c 128,-1,18
 495 71 495 71 485 171 c 0,19,20
 479 223 479 223 473 306 c 1,21,22
 403 285 403 285 332 262 c 1,23,-1
 298 168 l 2,24,25
 288 141 288 141 284 129.5 c 128,-1,26
 280 118 280 118 269.5 95 c 128,-1,27
 259 72 259 72 251.5 61.5 c 128,-1,28
 244 51 244 51 230.5 35 c 128,-1,29
 217 19 217 19 203 12 c 0,30,31
 167 -6 167 -6 126 -6 c 128,-1,32
 85 -6 85 -6 59.5 23.5 c 128,-1,33
 34 53 34 53 34 96 c 0,34,35
 34 108 34 108 36 121 c 0,36,37
 49 217 49 217 233 296 c 1,38,39
 285 429 285 429 406 744 c 1,40,41
 438 762 438 762 487 762 c 0,42,43
 498 762 498 762 508 762 c 128,-1,44
 518 762 518 762 532.5 762 c 128,-1,45
 547 762 547 762 569 756 c 1,46,47
 570 709 570 709 615 173 c 0,48,49
 619 128 619 128 626 114.5 c 128,-1,50
 633 101 633 101 650 101 c 0,51,52
 678 101 678 101 724.5 139 c 128,-1,53
 771 177 771 177 808 234 c 1,54,-1
 836 166 l 1,55,-1
 812 134 l 1,56,57
 707 -2 707 -2 608 -2 c 0,16,17
449 588 m 1,58,-1
 362 345 l 1,59,60
 432 369 432 369 466 380 c 1,61,-1
 449 588 l 1,58,-1
105 117 m 0,62,63
 105 85 105 85 129 85 c 0,64,65
 147 85 147 85 158 111 c 0,66,67
 171 139 171 139 198 209 c 1,68,69
 105 162 105 162 105 117 c 0,62,63
EndSplineSet
EndChar

StartChar: Aring
Encoding: 197 197 134
Width: 714
GlyphClass: 2
Flags: W
LayerCount: 2
Fore
SplineSet
608 -2 m 0,0,1
 552 -2 552 -2 523.5 34.5 c 128,-1,2
 495 71 495 71 485 171 c 0,3,4
 479 223 479 223 473 306 c 1,5,6
 403 285 403 285 332 262 c 1,7,-1
 298 168 l 2,8,9
 288 141 288 141 284 129.5 c 128,-1,10
 280 118 280 118 269.5 95 c 128,-1,11
 259 72 259 72 251.5 61.5 c 128,-1,12
 244 51 244 51 230.5 35 c 128,-1,13
 217 19 217 19 203 12 c 0,14,15
 167 -6 167 -6 126 -6 c 128,-1,16
 85 -6 85 -6 59.5 23.5 c 128,-1,17
 34 53 34 53 34 96 c 0,18,19
 34 108 34 108 36 121 c 0,20,21
 49 217 49 217 233 296 c 1,22,23
 285 429 285 429 406 744 c 1,24,-1
 426 753 l 1,25,26
 379 783 379 783 379 833.5 c 128,-1,27
 379 884 379 884 409.5 914.5 c 128,-1,28
 440 945 440 945 484 945 c 128,-1,29
 528 945 528 945 558.5 914.5 c 128,-1,30
 589 884 589 884 589 838 c 128,-1,31
 589 792 589 792 552 760 c 1,32,-1
 569 756 l 1,33,34
 570 709 570 709 615 173 c 0,35,36
 619 128 619 128 626 114.5 c 128,-1,37
 633 101 633 101 650 101 c 0,38,39
 678 101 678 101 724.5 139 c 128,-1,40
 771 177 771 177 808 234 c 1,41,-1
 836 166 l 1,42,-1
 812 134 l 1,43,44
 707 -2 707 -2 608 -2 c 0,0,1
484 889 m 128,-1,46
 464 889 464 889 449.5 874.5 c 128,-1,47
 435 860 435 860 435 840 c 128,-1,48
 435 820 435 820 449.5 805.5 c 128,-1,49
 464 791 464 791 484 791 c 128,-1,50
 504 791 504 791 518.5 805.5 c 128,-1,51
 533 820 533 820 533 840 c 128,-1,52
 533 860 533 860 518.5 874.5 c 128,-1,45
 504 889 504 889 484 889 c 128,-1,46
449 588 m 1,53,-1
 362 345 l 1,54,55
 432 369 432 369 466 380 c 1,56,-1
 449 588 l 1,53,-1
105 117 m 0,57,58
 105 85 105 85 129 85 c 0,59,60
 147 85 147 85 158 111 c 0,61,62
 171 139 171 139 198 209 c 1,63,64
 105 162 105 162 105 117 c 0,57,58
EndSplineSet
EndChar

StartChar: AE
Encoding: 198 198 135
Width: 1196
GlyphClass: 2
Flags: W
LayerCount: 2
Fore
SplineSet
679 349 m 1,0,1
 621 308 621 308 621 227 c 0,2,3
 621 176 621 176 657.5 131 c 128,-1,4
 694 86 694 86 781 86 c 128,-1,5
 868 86 868 86 946 145 c 128,-1,6
 1024 204 1024 204 1064 274 c 1,7,-1
 1098 213 l 1,8,9
 969 -6 969 -6 739 -6 c 0,10,11
 625 -6 625 -6 546 55.5 c 128,-1,12
 467 117 467 117 467 200 c 0,13,14
 467 242 467 242 477 273 c 1,15,-1
 474 306 l 1,16,17
 404 285 404 285 333 262 c 1,18,-1
 299 168 l 2,19,20
 289 141 289 141 285 129.5 c 128,-1,21
 281 118 281 118 270.5 95 c 128,-1,22
 260 72 260 72 252.5 61.5 c 128,-1,23
 245 51 245 51 231.5 35 c 128,-1,24
 218 19 218 19 204 12 c 0,25,26
 168 -6 168 -6 127 -6 c 128,-1,27
 86 -6 86 -6 60.5 23.5 c 128,-1,28
 35 53 35 53 35 96 c 0,29,30
 35 108 35 108 37 121 c 0,31,32
 50 217 50 217 234 296 c 1,33,34
 286 429 286 429 407 744 c 1,35,36
 440 762 440 762 491 762 c 1,37,-1
 521 760 l 2,38,39
 526 760 526 760 540 756 c 1,40,41
 542 689 542 689 554 552 c 1,42,43
 562 641 562 641 642.5 701 c 128,-1,44
 723 761 723 761 824.5 761 c 128,-1,45
 926 761 926 761 983.5 707 c 128,-1,46
 1041 653 1041 653 1041 565 c 1,47,-1
 946 565 l 1,48,49
 947 619 947 619 917.5 646.5 c 128,-1,50
 888 674 888 674 835.5 674 c 128,-1,51
 783 674 783 674 741 636 c 1,52,53
 694 595 694 595 694 540 c 128,-1,54
 694 485 694 485 724 445 c 1,55,56
 824 457 824 457 876 432 c 0,57,58
 908 417 908 417 908 384.5 c 128,-1,59
 908 352 908 352 871.5 339 c 128,-1,60
 835 326 835 326 784 326 c 128,-1,61
 733 326 733 326 679 349 c 1,0,1
450 588 m 1,62,-1
 363 345 l 1,63,64
 433 369 433 369 468 380 c 1,65,-1
 450 588 l 1,62,-1
559 481 m 1,66,-1
 567 393 l 1,67,68
 572 396 572 396 582.5 402 c 128,-1,69
 593 408 593 408 596 410 c 1,70,71
 571 442 571 442 559 481 c 1,66,-1
106 117 m 0,72,73
 106 85 106 85 130 85 c 0,74,75
 148 85 148 85 159 111 c 0,76,77
 172 139 172 139 199 209 c 1,78,79
 106 162 106 162 106 117 c 0,72,73
EndSplineSet
EndChar

StartChar: Ccedilla
Encoding: 199 199 136
Width: 575
GlyphClass: 2
Flags: W
LayerCount: 2
Fore
SplineSet
411.5 -56 m 128,-1,1
 441 -80 441 -80 441 -126 c 128,-1,2
 441 -172 441 -172 406.5 -201 c 128,-1,3
 372 -230 372 -230 328 -230 c 0,4,5
 257 -230 257 -230 223 -182 c 1,6,-1
 241 -144 l 1,7,8
 250 -158 250 -158 272.5 -171 c 128,-1,9
 295 -184 295 -184 317 -184 c 128,-1,10
 339 -184 339 -184 353.5 -167.5 c 128,-1,11
 368 -151 368 -151 368 -125.5 c 128,-1,12
 368 -100 368 -100 348.5 -85 c 128,-1,13
 329 -70 329 -70 301 -70 c 128,-1,14
 273 -70 273 -70 268 -71 c 1,15,-1
 293 -5 l 1,16,17
 157 5 157 5 93.5 83 c 128,-1,18
 30 161 30 161 30 286 c 128,-1,19
 30 411 30 411 74.5 517.5 c 128,-1,20
 119 624 119 624 207 692.5 c 128,-1,21
 295 761 295 761 397.5 761 c 128,-1,22
 500 761 500 761 558.5 711.5 c 128,-1,23
 617 662 617 662 617 578.5 c 128,-1,24
 617 495 617 495 565.5 440 c 128,-1,25
 514 385 514 385 445 385 c 128,-1,26
 376 385 376 385 338 415.5 c 128,-1,27
 300 446 300 446 300 480.5 c 128,-1,28
 300 515 300 515 327.5 534.5 c 128,-1,29
 355 554 355 554 408 554 c 1,30,31
 395 541 395 541 395 519.5 c 128,-1,32
 395 498 395 498 408 482 c 128,-1,33
 421 466 421 466 448 466 c 128,-1,34
 475 466 475 466 502 494.5 c 128,-1,35
 529 523 529 523 529 570 c 128,-1,36
 529 617 529 617 500.5 645 c 128,-1,37
 472 673 472 673 420 673 c 0,38,39
 352 673 352 673 296.5 618 c 128,-1,40
 241 563 241 563 212 478 c 128,-1,41
 183 393 183 393 183 299 c 0,42,43
 183 218 183 218 218 156 c 0,44,45
 236 124 236 124 271.5 105 c 128,-1,46
 307 86 307 86 355 86 c 0,47,48
 437 86 437 86 513 138.5 c 128,-1,49
 589 191 589 191 641 274 c 1,50,-1
 675 213 l 1,51,52
 619 121 619 121 535 61 c 128,-1,53
 451 1 451 1 349 -5 c 1,54,-1
 339 -33 l 1,55,-1
 345 -32 l 1,56,0
 382 -32 382 -32 411.5 -56 c 128,-1,1
EndSplineSet
EndChar

StartChar: Egrave
Encoding: 200 200 137
Width: 481
GlyphClass: 2
Flags: W
LayerCount: 2
Fore
SplineSet
362 1017 m 1,0,-1
 489 830 l 1,1,2
 463 800 463 800 451 793 c 1,3,-1
 271 926 l 1,4,5
 288 950 288 950 315 978.5 c 128,-1,6
 342 1007 342 1007 362 1017 c 1,0,-1
234 349 m 1,7,8
 176 308 176 308 176 227 c 0,9,10
 176 176 176 176 212.5 131 c 128,-1,11
 249 86 249 86 336 86 c 128,-1,12
 423 86 423 86 501 145 c 128,-1,13
 579 204 579 204 619 274 c 1,14,-1
 653 213 l 1,15,16
 524 -6 524 -6 294 -6 c 0,17,18
 180 -6 180 -6 101 55.5 c 128,-1,19
 22 117 22 117 22 200 c 0,20,21
 22 345 22 345 151 410 c 1,22,23
 108 463 108 463 108 534 c 0,24,25
 108 627 108 627 188.5 694 c 128,-1,26
 269 761 269 761 375 761 c 128,-1,27
 481 761 481 761 538.5 707 c 128,-1,28
 596 653 596 653 596 565 c 1,29,-1
 501 565 l 1,30,31
 502 619 502 619 472.5 646.5 c 128,-1,32
 443 674 443 674 390.5 674 c 128,-1,33
 338 674 338 674 296 636 c 1,34,35
 249 595 249 595 249 540 c 128,-1,36
 249 485 249 485 279 445 c 1,37,38
 379 457 379 457 431 432 c 0,39,40
 463 417 463 417 463 384.5 c 128,-1,41
 463 352 463 352 426.5 339 c 128,-1,42
 390 326 390 326 339 326 c 128,-1,43
 288 326 288 326 234 349 c 1,7,8
EndSplineSet
EndChar

StartChar: Eacute
Encoding: 201 201 138
Width: 481
GlyphClass: 2
Flags: W
LayerCount: 2
Fore
SplineSet
323 830 m 1,0,-1
 450 1017 l 1,1,2
 470 1007 470 1007 497 978.5 c 128,-1,3
 524 950 524 950 541 926 c 1,4,-1
 361 793 l 1,5,6
 349 800 349 800 323 830 c 1,0,-1
234 349 m 1,7,8
 176 308 176 308 176 227 c 0,9,10
 176 176 176 176 212.5 131 c 128,-1,11
 249 86 249 86 336 86 c 128,-1,12
 423 86 423 86 501 145 c 128,-1,13
 579 204 579 204 619 274 c 1,14,-1
 653 213 l 1,15,16
 524 -6 524 -6 294 -6 c 0,17,18
 180 -6 180 -6 101 55.5 c 128,-1,19
 22 117 22 117 22 200 c 0,20,21
 22 345 22 345 151 410 c 1,22,23
 108 463 108 463 108 534 c 0,24,25
 108 627 108 627 188.5 694 c 128,-1,26
 269 761 269 761 375 761 c 128,-1,27
 481 761 481 761 538.5 707 c 128,-1,28
 596 653 596 653 596 565 c 1,29,-1
 501 565 l 1,30,31
 502 619 502 619 472.5 646.5 c 128,-1,32
 443 674 443 674 390.5 674 c 128,-1,33
 338 674 338 674 296 636 c 1,34,35
 249 595 249 595 249 540 c 128,-1,36
 249 485 249 485 279 445 c 1,37,38
 379 457 379 457 431 432 c 0,39,40
 463 417 463 417 463 384.5 c 128,-1,41
 463 352 463 352 426.5 339 c 128,-1,42
 390 326 390 326 339 326 c 128,-1,43
 288 326 288 326 234 349 c 1,7,8
EndSplineSet
EndChar

StartChar: Ecircumflex
Encoding: 202 202 139
Width: 481
GlyphClass: 2
Flags: W
LayerCount: 2
Fore
SplineSet
392 980 m 1,0,-1
 566 859 l 1,1,2
 545 820 545 820 533 801 c 1,3,-1
 392 874 l 1,4,-1
 251 801 l 1,5,6
 239 820 239 820 218 859 c 1,7,-1
 392 980 l 1,0,-1
234 349 m 1,8,9
 176 308 176 308 176 227 c 0,10,11
 176 176 176 176 212.5 131 c 128,-1,12
 249 86 249 86 336 86 c 128,-1,13
 423 86 423 86 501 145 c 128,-1,14
 579 204 579 204 619 274 c 1,15,-1
 653 213 l 1,16,17
 524 -6 524 -6 294 -6 c 0,18,19
 180 -6 180 -6 101 55.5 c 128,-1,20
 22 117 22 117 22 200 c 0,21,22
 22 345 22 345 151 410 c 1,23,24
 108 463 108 463 108 534 c 0,25,26
 108 627 108 627 188.5 694 c 128,-1,27
 269 761 269 761 375 761 c 128,-1,28
 481 761 481 761 538.5 707 c 128,-1,29
 596 653 596 653 596 565 c 1,30,-1
 501 565 l 1,31,32
 502 619 502 619 472.5 646.5 c 128,-1,33
 443 674 443 674 390.5 674 c 128,-1,34
 338 674 338 674 296 636 c 1,35,36
 249 595 249 595 249 540 c 128,-1,37
 249 485 249 485 279 445 c 1,38,39
 379 457 379 457 431 432 c 0,40,41
 463 417 463 417 463 384.5 c 128,-1,42
 463 352 463 352 426.5 339 c 128,-1,43
 390 326 390 326 339 326 c 128,-1,44
 288 326 288 326 234 349 c 1,8,9
EndSplineSet
EndChar

StartChar: Edieresis
Encoding: 203 203 140
Width: 481
GlyphClass: 2
Flags: W
LayerCount: 2
Fore
SplineSet
218.5 935.5 m 128,-1,1
 239 957 239 957 269 957 c 128,-1,2
 299 957 299 957 320 935.5 c 128,-1,3
 341 914 341 914 341 884 c 128,-1,4
 341 854 341 854 320 833 c 128,-1,5
 299 812 299 812 269 812 c 128,-1,6
 239 812 239 812 218.5 833 c 128,-1,7
 198 854 198 854 198 884 c 128,-1,0
 198 914 198 914 218.5 935.5 c 128,-1,1
510 957 m 128,-1,9
 540 957 540 957 561 935.5 c 128,-1,10
 582 914 582 914 582 884 c 128,-1,11
 582 854 582 854 561.5 833 c 128,-1,12
 541 812 541 812 510.5 812 c 128,-1,13
 480 812 480 812 458.5 833 c 128,-1,14
 437 854 437 854 437 884 c 128,-1,15
 437 914 437 914 458.5 935.5 c 128,-1,8
 480 957 480 957 510 957 c 128,-1,9
234 349 m 1,16,17
 176 308 176 308 176 227 c 0,18,19
 176 176 176 176 212.5 131 c 128,-1,20
 249 86 249 86 336 86 c 128,-1,21
 423 86 423 86 501 145 c 128,-1,22
 579 204 579 204 619 274 c 1,23,-1
 653 213 l 1,24,25
 524 -6 524 -6 294 -6 c 0,26,27
 180 -6 180 -6 101 55.5 c 128,-1,28
 22 117 22 117 22 200 c 0,29,30
 22 345 22 345 151 410 c 1,31,32
 108 463 108 463 108 534 c 0,33,34
 108 627 108 627 188.5 694 c 128,-1,35
 269 761 269 761 375 761 c 128,-1,36
 481 761 481 761 538.5 707 c 128,-1,37
 596 653 596 653 596 565 c 1,38,-1
 501 565 l 1,39,40
 502 619 502 619 472.5 646.5 c 128,-1,41
 443 674 443 674 390.5 674 c 128,-1,42
 338 674 338 674 296 636 c 1,43,44
 249 595 249 595 249 540 c 128,-1,45
 249 485 249 485 279 445 c 1,46,47
 379 457 379 457 431 432 c 0,48,49
 463 417 463 417 463 384.5 c 128,-1,50
 463 352 463 352 426.5 339 c 128,-1,51
 390 326 390 326 339 326 c 128,-1,52
 288 326 288 326 234 349 c 1,16,17
EndSplineSet
EndChar

StartChar: Igrave
Encoding: 204 204 141
Width: 483
GlyphClass: 2
Flags: W
LayerCount: 2
Fore
SplineSet
314 1017 m 1,0,-1
 441 830 l 1,1,2
 415 800 415 800 403 793 c 1,3,-1
 223 926 l 1,4,5
 240 950 240 950 267 978.5 c 128,-1,6
 294 1007 294 1007 314 1017 c 1,0,-1
556 648 m 1,7,8
 540 655 540 655 524.5 655 c 128,-1,9
 509 655 509 655 494.5 636 c 128,-1,10
 480 617 480 617 475 581 c 2,11,-1
 423 210 l 2,12,13
 409 109 409 109 353.5 51 c 128,-1,14
 298 -7 298 -7 215 -7 c 256,15,16
 132 -7 132 -7 86.5 39.5 c 128,-1,17
 41 86 41 86 41 150.5 c 128,-1,18
 41 215 41 215 85.5 260 c 128,-1,19
 130 305 130 305 198 305 c 0,20,21
 240 305 240 305 264 299 c 1,22,-1
 259 238 l 1,23,24
 242 242 242 242 206.5 242 c 128,-1,25
 171 242 171 242 143.5 218 c 128,-1,26
 116 194 116 194 116 158 c 128,-1,27
 116 122 116 122 136 102.5 c 128,-1,28
 156 83 156 83 184 83 c 0,29,30
 268 83 268 83 282 207 c 0,31,32
 309 455 309 455 321 542 c 1,33,34
 261 521 261 521 215 521 c 0,35,36
 142 521 142 521 103.5 555 c 128,-1,37
 65 589 65 589 65 644 c 128,-1,38
 65 699 65 699 104.5 730.5 c 128,-1,39
 144 762 144 762 204 762 c 0,40,41
 241 762 241 762 310.5 739 c 128,-1,42
 380 716 380 716 418 716 c 0,43,44
 486 716 486 716 532 751 c 1,45,46
 557 716 557 716 557 668 c 0,47,48
 557 658 557 658 556 648 c 1,7,8
164 617 m 0,49,50
 164 602 164 602 180.5 591 c 128,-1,51
 197 580 197 580 230.5 580 c 128,-1,52
 264 580 264 580 318 610 c 1,53,54
 279 619 279 619 238 630.5 c 128,-1,55
 197 642 197 642 189 642 c 0,56,57
 164 642 164 642 164 617 c 0,49,50
EndSplineSet
EndChar

StartChar: Iacute
Encoding: 205 205 142
Width: 483
GlyphClass: 2
Flags: W
LayerCount: 2
Fore
SplineSet
275 830 m 1,0,-1
 402 1017 l 1,1,2
 422 1007 422 1007 449 978.5 c 128,-1,3
 476 950 476 950 493 926 c 1,4,-1
 313 793 l 1,5,6
 301 800 301 800 275 830 c 1,0,-1
556 648 m 1,7,8
 540 655 540 655 524.5 655 c 128,-1,9
 509 655 509 655 494.5 636 c 128,-1,10
 480 617 480 617 475 581 c 2,11,-1
 423 210 l 2,12,13
 409 109 409 109 353.5 51 c 128,-1,14
 298 -7 298 -7 215 -7 c 256,15,16
 132 -7 132 -7 86.5 39.5 c 128,-1,17
 41 86 41 86 41 150.5 c 128,-1,18
 41 215 41 215 85.5 260 c 128,-1,19
 130 305 130 305 198 305 c 0,20,21
 240 305 240 305 264 299 c 1,22,-1
 259 238 l 1,23,24
 242 242 242 242 206.5 242 c 128,-1,25
 171 242 171 242 143.5 218 c 128,-1,26
 116 194 116 194 116 158 c 128,-1,27
 116 122 116 122 136 102.5 c 128,-1,28
 156 83 156 83 184 83 c 0,29,30
 268 83 268 83 282 207 c 0,31,32
 309 455 309 455 321 542 c 1,33,34
 261 521 261 521 215 521 c 0,35,36
 142 521 142 521 103.5 555 c 128,-1,37
 65 589 65 589 65 644 c 128,-1,38
 65 699 65 699 104.5 730.5 c 128,-1,39
 144 762 144 762 204 762 c 0,40,41
 241 762 241 762 310.5 739 c 128,-1,42
 380 716 380 716 418 716 c 0,43,44
 486 716 486 716 532 751 c 1,45,46
 557 716 557 716 557 668 c 0,47,48
 557 658 557 658 556 648 c 1,7,8
164 617 m 0,49,50
 164 602 164 602 180.5 591 c 128,-1,51
 197 580 197 580 230.5 580 c 128,-1,52
 264 580 264 580 318 610 c 1,53,54
 279 619 279 619 238 630.5 c 128,-1,55
 197 642 197 642 189 642 c 0,56,57
 164 642 164 642 164 617 c 0,49,50
EndSplineSet
EndChar

StartChar: Icircumflex
Encoding: 206 206 143
Width: 483
GlyphClass: 2
Flags: W
LayerCount: 2
Fore
SplineSet
344 980 m 1,0,-1
 518 859 l 1,1,2
 497 820 497 820 485 801 c 1,3,-1
 344 874 l 1,4,-1
 203 801 l 1,5,6
 191 820 191 820 170 859 c 1,7,-1
 344 980 l 1,0,-1
556 648 m 1,8,9
 540 655 540 655 524.5 655 c 128,-1,10
 509 655 509 655 494.5 636 c 128,-1,11
 480 617 480 617 475 581 c 2,12,-1
 423 210 l 2,13,14
 409 109 409 109 353.5 51 c 128,-1,15
 298 -7 298 -7 215 -7 c 256,16,17
 132 -7 132 -7 86.5 39.5 c 128,-1,18
 41 86 41 86 41 150.5 c 128,-1,19
 41 215 41 215 85.5 260 c 128,-1,20
 130 305 130 305 198 305 c 0,21,22
 240 305 240 305 264 299 c 1,23,-1
 259 238 l 1,24,25
 242 242 242 242 206.5 242 c 128,-1,26
 171 242 171 242 143.5 218 c 128,-1,27
 116 194 116 194 116 158 c 128,-1,28
 116 122 116 122 136 102.5 c 128,-1,29
 156 83 156 83 184 83 c 0,30,31
 268 83 268 83 282 207 c 0,32,33
 309 455 309 455 321 542 c 1,34,35
 261 521 261 521 215 521 c 0,36,37
 142 521 142 521 103.5 555 c 128,-1,38
 65 589 65 589 65 644 c 128,-1,39
 65 699 65 699 104.5 730.5 c 128,-1,40
 144 762 144 762 204 762 c 0,41,42
 241 762 241 762 310.5 739 c 128,-1,43
 380 716 380 716 418 716 c 0,44,45
 486 716 486 716 532 751 c 1,46,47
 557 716 557 716 557 668 c 0,48,49
 557 658 557 658 556 648 c 1,8,9
164 617 m 0,50,51
 164 602 164 602 180.5 591 c 128,-1,52
 197 580 197 580 230.5 580 c 128,-1,53
 264 580 264 580 318 610 c 1,54,55
 279 619 279 619 238 630.5 c 128,-1,56
 197 642 197 642 189 642 c 0,57,58
 164 642 164 642 164 617 c 0,50,51
EndSplineSet
EndChar

StartChar: Idieresis
Encoding: 207 207 144
Width: 483
GlyphClass: 2
Flags: W
LayerCount: 2
Fore
SplineSet
170.5 935.5 m 128,-1,1
 191 957 191 957 221 957 c 128,-1,2
 251 957 251 957 272 935.5 c 128,-1,3
 293 914 293 914 293 884 c 128,-1,4
 293 854 293 854 272 833 c 128,-1,5
 251 812 251 812 221 812 c 128,-1,6
 191 812 191 812 170.5 833 c 128,-1,7
 150 854 150 854 150 884 c 128,-1,0
 150 914 150 914 170.5 935.5 c 128,-1,1
462 957 m 128,-1,9
 492 957 492 957 513 935.5 c 128,-1,10
 534 914 534 914 534 884 c 128,-1,11
 534 854 534 854 513.5 833 c 128,-1,12
 493 812 493 812 462.5 812 c 128,-1,13
 432 812 432 812 410.5 833 c 128,-1,14
 389 854 389 854 389 884 c 128,-1,15
 389 914 389 914 410.5 935.5 c 128,-1,8
 432 957 432 957 462 957 c 128,-1,9
556 648 m 1,16,17
 540 655 540 655 524.5 655 c 128,-1,18
 509 655 509 655 494.5 636 c 128,-1,19
 480 617 480 617 475 581 c 2,20,-1
 423 210 l 2,21,22
 409 109 409 109 353.5 51 c 128,-1,23
 298 -7 298 -7 215 -7 c 256,24,25
 132 -7 132 -7 86.5 39.5 c 128,-1,26
 41 86 41 86 41 150.5 c 128,-1,27
 41 215 41 215 85.5 260 c 128,-1,28
 130 305 130 305 198 305 c 0,29,30
 240 305 240 305 264 299 c 1,31,-1
 259 238 l 1,32,33
 242 242 242 242 206.5 242 c 128,-1,34
 171 242 171 242 143.5 218 c 128,-1,35
 116 194 116 194 116 158 c 128,-1,36
 116 122 116 122 136 102.5 c 128,-1,37
 156 83 156 83 184 83 c 0,38,39
 268 83 268 83 282 207 c 0,40,41
 309 455 309 455 321 542 c 1,42,43
 261 521 261 521 215 521 c 0,44,45
 142 521 142 521 103.5 555 c 128,-1,46
 65 589 65 589 65 644 c 128,-1,47
 65 699 65 699 104.5 730.5 c 128,-1,48
 144 762 144 762 204 762 c 0,49,50
 241 762 241 762 310.5 739 c 128,-1,51
 380 716 380 716 418 716 c 0,52,53
 486 716 486 716 532 751 c 1,54,55
 557 716 557 716 557 668 c 0,56,57
 557 658 557 658 556 648 c 1,16,17
164 617 m 0,58,59
 164 602 164 602 180.5 591 c 128,-1,60
 197 580 197 580 230.5 580 c 128,-1,61
 264 580 264 580 318 610 c 1,62,63
 279 619 279 619 238 630.5 c 128,-1,64
 197 642 197 642 189 642 c 0,65,66
 164 642 164 642 164 617 c 0,58,59
EndSplineSet
EndChar

StartChar: Eth
Encoding: 208 208 145
Width: 744
GlyphClass: 2
Flags: W
LayerCount: 2
Fore
SplineSet
45 534 m 0,0,1
 45 643 45 643 138 704 c 128,-1,2
 231 765 231 765 352 765 c 0,3,4
 507 765 507 765 624 676 c 0,5,6
 682 631 682 631 714 556.5 c 128,-1,7
 746 482 746 482 746 392 c 0,8,9
 746 215 746 215 645 104 c 1,10,11
 540 -9 540 -9 382 -9 c 0,12,13
 347 -9 347 -9 308 0 c 128,-1,14
 269 9 269 9 246 24 c 1,15,16
 209 -4 209 -4 151.5 -4 c 128,-1,17
 94 -4 94 -4 62 28 c 128,-1,18
 30 60 30 60 30 110 c 0,19,20
 30 228 30 228 209 311 c 1,21,-1
 219 391 l 1,22,-1
 43 391 l 1,23,-1
 52 477 l 1,24,-1
 60 477 l 1,25,26
 45 504 45 504 45 534 c 0,0,1
301 97 m 1,27,28
 332 89 332 89 351 89 c 0,29,30
 466 89 466 89 529 176 c 0,31,32
 594 267 594 267 594 396 c 0,33,34
 594 561 594 561 475 633 c 0,35,36
 409 673 409 673 330 673 c 0,37,38
 229 673 229 673 170 618 c 0,39,40
 136 587 136 587 136 543 c 0,41,42
 136 522 136 522 148.5 502 c 128,-1,43
 161 482 161 482 192 477 c 1,44,-1
 230 477 l 1,45,46
 242 577 242 577 246 598 c 1,47,48
 287 624 287 624 341 624 c 0,49,50
 366 624 366 624 389 619 c 1,51,-1
 368 477 l 1,52,-1
 434 477 l 1,53,-1
 425 391 l 1,54,-1
 355 391 l 1,55,-1
 326 192 l 2,56,57
 317 135 317 135 301 97 c 1,27,28
104 123 m 0,58,59
 104 87 104 87 138 87 c 0,60,61
 152 87 152 87 167.5 105.5 c 128,-1,62
 183 124 183 124 189 164 c 2,63,-1
 198 226 l 1,64,65
 104 173 104 173 104 123 c 0,58,59
EndSplineSet
EndChar

StartChar: Ntilde
Encoding: 209 209 146
Width: 730
GlyphClass: 2
Flags: W
LayerCount: 2
Fore
SplineSet
507 944 m 128,-1,1
 562 909 562 909 585 909 c 0,2,3
 631 909 631 909 659 977 c 1,4,-1
 703 952 l 1,5,6
 694 887 694 887 659.5 845.5 c 128,-1,7
 625 804 625 804 578 804 c 128,-1,8
 531 804 531 804 478 841 c 0,9,10
 424 879 424 879 402 879 c 128,-1,11
 380 879 380 879 364 866.5 c 128,-1,12
 348 854 348 854 332 820 c 1,13,-1
 288 846 l 1,14,15
 301 904 301 904 333 941.5 c 128,-1,16
 365 979 365 979 408.5 979 c 128,-1,0
 452 979 452 979 507 944 c 128,-1,1
636 727 m 128,-1,18
 669 761 669 761 723 761 c 128,-1,19
 777 761 777 761 802.5 729.5 c 128,-1,20
 828 698 828 698 828 666 c 0,21,22
 828 656 828 656 826 646 c 0,23,24
 804 535 804 535 679 473 c 1,25,-1
 609 0 l 1,26,-1
 441 0 l 1,27,-1
 322 527 l 1,28,-1
 267 137 l 2,29,30
 256 63 256 63 221.5 28 c 128,-1,31
 187 -7 187 -7 141 -7 c 128,-1,32
 95 -7 95 -7 64.5 20 c 128,-1,33
 34 47 34 47 27 97 c 0,34,35
 26 105 26 105 26 113 c 0,36,37
 26 212 26 212 175 283 c 1,38,-1
 218 605 l 1,39,40
 243 616 243 616 261.5 616 c 128,-1,41
 280 616 280 616 293 613 c 1,42,43
 270 649 270 649 220 649 c 128,-1,44
 170 649 170 649 132 597 c 1,45,-1
 113 683 l 1,46,47
 132 709 132 709 179.5 735.5 c 128,-1,48
 227 762 227 762 284.5 762 c 128,-1,49
 342 762 342 762 382 727.5 c 128,-1,50
 422 693 422 693 440 612 c 1,51,-1
 534 216 l 1,52,-1
 592 616 l 2,53,17
 603 693 603 693 636 727 c 128,-1,18
692 559 m 1,54,55
 754 603 754 603 754 641 c 0,56,57
 754 648 754 648 749 657 c 128,-1,58
 744 666 744 666 734 666 c 0,59,60
 715 666 715 666 708 645 c 0,61,62
 698 616 698 616 692 559 c 1,54,55
96 124 m 128,-1,64
 96 87 96 87 123 87 c 0,65,66
 141 87 141 87 149 110.5 c 128,-1,67
 157 134 157 134 164 195 c 1,68,-1
 165 200 l 1,69,63
 96 161 96 161 96 124 c 128,-1,64
EndSplineSet
EndChar

StartChar: Ograve
Encoding: 210 210 147
Width: 747
GlyphClass: 2
Flags: W
LayerCount: 2
Fore
SplineSet
442 1017 m 1,0,-1
 569 830 l 1,1,2
 543 800 543 800 531 793 c 1,3,-1
 351 926 l 1,4,5
 368 950 368 950 395 978.5 c 128,-1,6
 422 1007 422 1007 442 1017 c 1,0,-1
925 402 m 1,7,8
 902 377 902 377 849 357.5 c 128,-1,9
 796 338 796 338 764.5 338 c 128,-1,10
 733 338 733 338 718 340 c 1,11,12
 693 192 693 192 590.5 93 c 128,-1,13
 488 -6 488 -6 352.5 -6 c 128,-1,14
 217 -6 217 -6 148.5 78 c 128,-1,15
 80 162 80 162 80 297 c 0,16,17
 80 385 80 385 107 468.5 c 128,-1,18
 134 552 134 552 181.5 617 c 128,-1,19
 229 682 229 682 301 721.5 c 128,-1,20
 373 761 373 761 451.5 761 c 128,-1,21
 530 761 530 761 580.5 725.5 c 128,-1,22
 631 690 631 690 631 627 c 0,23,24
 631 579 631 579 597.5 541.5 c 128,-1,25
 564 504 564 504 505 504 c 0,26,27
 474 504 474 504 450 519.5 c 128,-1,28
 426 535 426 535 426 569 c 0,29,30
 426 585 426 585 434 597 c 128,-1,31
 442 609 442 609 450 612 c 2,32,-1
 459 616 l 1,33,34
 459 576 459 576 491 576 c 0,35,36
 506 576 506 576 517 586.5 c 128,-1,37
 528 597 528 597 529 610 c 128,-1,38
 530 623 530 623 528 630.5 c 128,-1,39
 526 638 526 638 520 648 c 0,40,41
 506 673 506 673 461 673 c 0,42,43
 402 673 402 673 349 617 c 128,-1,44
 296 561 296 561 264.5 473 c 128,-1,45
 233 385 233 385 233 293 c 0,46,47
 233 216 233 216 258 156 c 0,48,49
 272 124 272 124 299 105.5 c 128,-1,50
 326 87 326 87 364 87 c 0,51,52
 427 87 427 87 476.5 140 c 128,-1,53
 526 193 526 193 549.5 268 c 128,-1,54
 573 343 573 343 573 420 c 2,55,-1
 573 432 l 1,56,57
 570 443 570 443 570 453 c 0,58,59
 570 501 570 501 604 526 c 0,60,61
 626 542 626 542 659 542 c 0,62,63
 668 542 668 542 688 539 c 128,-1,64
 708 536 708 536 716 530 c 1,65,66
 695 529 695 529 683.5 516 c 128,-1,67
 672 503 672 503 672 481 c 128,-1,68
 672 459 672 459 692 440 c 0,69,70
 720 413 720 413 779.5 413 c 128,-1,71
 839 413 839 413 903 462 c 1,72,-1
 925 402 l 1,7,8
EndSplineSet
EndChar

StartChar: Oacute
Encoding: 211 211 148
Width: 747
GlyphClass: 2
Flags: W
LayerCount: 2
Fore
SplineSet
403 830 m 1,0,-1
 530 1017 l 1,1,2
 550 1007 550 1007 577 978.5 c 128,-1,3
 604 950 604 950 621 926 c 1,4,-1
 441 793 l 1,5,6
 429 800 429 800 403 830 c 1,0,-1
925 402 m 1,7,8
 902 377 902 377 849 357.5 c 128,-1,9
 796 338 796 338 764.5 338 c 128,-1,10
 733 338 733 338 718 340 c 1,11,12
 693 192 693 192 590.5 93 c 128,-1,13
 488 -6 488 -6 352.5 -6 c 128,-1,14
 217 -6 217 -6 148.5 78 c 128,-1,15
 80 162 80 162 80 297 c 0,16,17
 80 385 80 385 107 468.5 c 128,-1,18
 134 552 134 552 181.5 617 c 128,-1,19
 229 682 229 682 301 721.5 c 128,-1,20
 373 761 373 761 451.5 761 c 128,-1,21
 530 761 530 761 580.5 725.5 c 128,-1,22
 631 690 631 690 631 627 c 0,23,24
 631 579 631 579 597.5 541.5 c 128,-1,25
 564 504 564 504 505 504 c 0,26,27
 474 504 474 504 450 519.5 c 128,-1,28
 426 535 426 535 426 569 c 0,29,30
 426 585 426 585 434 597 c 128,-1,31
 442 609 442 609 450 612 c 2,32,-1
 459 616 l 1,33,34
 459 576 459 576 491 576 c 0,35,36
 506 576 506 576 517 586.5 c 128,-1,37
 528 597 528 597 529 610 c 128,-1,38
 530 623 530 623 528 630.5 c 128,-1,39
 526 638 526 638 520 648 c 0,40,41
 506 673 506 673 461 673 c 0,42,43
 402 673 402 673 349 617 c 128,-1,44
 296 561 296 561 264.5 473 c 128,-1,45
 233 385 233 385 233 293 c 0,46,47
 233 216 233 216 258 156 c 0,48,49
 272 124 272 124 299 105.5 c 128,-1,50
 326 87 326 87 364 87 c 0,51,52
 427 87 427 87 476.5 140 c 128,-1,53
 526 193 526 193 549.5 268 c 128,-1,54
 573 343 573 343 573 420 c 2,55,-1
 573 432 l 1,56,57
 570 443 570 443 570 453 c 0,58,59
 570 501 570 501 604 526 c 0,60,61
 626 542 626 542 659 542 c 0,62,63
 668 542 668 542 688 539 c 128,-1,64
 708 536 708 536 716 530 c 1,65,66
 695 529 695 529 683.5 516 c 128,-1,67
 672 503 672 503 672 481 c 128,-1,68
 672 459 672 459 692 440 c 0,69,70
 720 413 720 413 779.5 413 c 128,-1,71
 839 413 839 413 903 462 c 1,72,-1
 925 402 l 1,7,8
EndSplineSet
EndChar

StartChar: Ocircumflex
Encoding: 212 212 149
Width: 747
GlyphClass: 2
Flags: W
LayerCount: 2
Fore
SplineSet
472 980 m 1,0,-1
 646 859 l 1,1,2
 625 820 625 820 613 801 c 1,3,-1
 472 874 l 1,4,-1
 331 801 l 1,5,6
 319 820 319 820 298 859 c 1,7,-1
 472 980 l 1,0,-1
925 402 m 1,8,9
 902 377 902 377 849 357.5 c 128,-1,10
 796 338 796 338 764.5 338 c 128,-1,11
 733 338 733 338 718 340 c 1,12,13
 693 192 693 192 590.5 93 c 128,-1,14
 488 -6 488 -6 352.5 -6 c 128,-1,15
 217 -6 217 -6 148.5 78 c 128,-1,16
 80 162 80 162 80 297 c 0,17,18
 80 385 80 385 107 468.5 c 128,-1,19
 134 552 134 552 181.5 617 c 128,-1,20
 229 682 229 682 301 721.5 c 128,-1,21
 373 761 373 761 451.5 761 c 128,-1,22
 530 761 530 761 580.5 725.5 c 128,-1,23
 631 690 631 690 631 627 c 0,24,25
 631 579 631 579 597.5 541.5 c 128,-1,26
 564 504 564 504 505 504 c 0,27,28
 474 504 474 504 450 519.5 c 128,-1,29
 426 535 426 535 426 569 c 0,30,31
 426 585 426 585 434 597 c 128,-1,32
 442 609 442 609 450 612 c 2,33,-1
 459 616 l 1,34,35
 459 576 459 576 491 576 c 0,36,37
 506 576 506 576 517 586.5 c 128,-1,38
 528 597 528 597 529 610 c 128,-1,39
 530 623 530 623 528 630.5 c 128,-1,40
 526 638 526 638 520 648 c 0,41,42
 506 673 506 673 461 673 c 0,43,44
 402 673 402 673 349 617 c 128,-1,45
 296 561 296 561 264.5 473 c 128,-1,46
 233 385 233 385 233 293 c 0,47,48
 233 216 233 216 258 156 c 0,49,50
 272 124 272 124 299 105.5 c 128,-1,51
 326 87 326 87 364 87 c 0,52,53
 427 87 427 87 476.5 140 c 128,-1,54
 526 193 526 193 549.5 268 c 128,-1,55
 573 343 573 343 573 420 c 2,56,-1
 573 432 l 1,57,58
 570 443 570 443 570 453 c 0,59,60
 570 501 570 501 604 526 c 0,61,62
 626 542 626 542 659 542 c 0,63,64
 668 542 668 542 688 539 c 128,-1,65
 708 536 708 536 716 530 c 1,66,67
 695 529 695 529 683.5 516 c 128,-1,68
 672 503 672 503 672 481 c 128,-1,69
 672 459 672 459 692 440 c 0,70,71
 720 413 720 413 779.5 413 c 128,-1,72
 839 413 839 413 903 462 c 1,73,-1
 925 402 l 1,8,9
EndSplineSet
EndChar

StartChar: Otilde
Encoding: 213 213 150
Width: 747
GlyphClass: 2
Flags: W
LayerCount: 2
Fore
SplineSet
502 944 m 128,-1,1
 557 909 557 909 580 909 c 0,2,3
 626 909 626 909 654 977 c 1,4,-1
 698 952 l 1,5,6
 689 887 689 887 654.5 845.5 c 128,-1,7
 620 804 620 804 573 804 c 128,-1,8
 526 804 526 804 474 841 c 0,9,10
 419 879 419 879 397 879 c 128,-1,11
 375 879 375 879 359 866.5 c 128,-1,12
 343 854 343 854 327 820 c 1,13,-1
 283 846 l 1,14,15
 296 904 296 904 328 941.5 c 128,-1,16
 360 979 360 979 403.5 979 c 128,-1,0
 447 979 447 979 502 944 c 128,-1,1
925 402 m 1,17,18
 902 377 902 377 849 357.5 c 128,-1,19
 796 338 796 338 764.5 338 c 128,-1,20
 733 338 733 338 718 340 c 1,21,22
 693 192 693 192 590.5 93 c 128,-1,23
 488 -6 488 -6 352.5 -6 c 128,-1,24
 217 -6 217 -6 148.5 78 c 128,-1,25
 80 162 80 162 80 297 c 0,26,27
 80 385 80 385 107 468.5 c 128,-1,28
 134 552 134 552 181.5 617 c 128,-1,29
 229 682 229 682 301 721.5 c 128,-1,30
 373 761 373 761 451.5 761 c 128,-1,31
 530 761 530 761 580.5 725.5 c 128,-1,32
 631 690 631 690 631 627 c 0,33,34
 631 579 631 579 597.5 541.5 c 128,-1,35
 564 504 564 504 505 504 c 0,36,37
 474 504 474 504 450 519.5 c 128,-1,38
 426 535 426 535 426 569 c 0,39,40
 426 585 426 585 434 597 c 128,-1,41
 442 609 442 609 450 612 c 2,42,-1
 459 616 l 1,43,44
 459 576 459 576 491 576 c 0,45,46
 506 576 506 576 517 586.5 c 128,-1,47
 528 597 528 597 529 610 c 128,-1,48
 530 623 530 623 528 630.5 c 128,-1,49
 526 638 526 638 520 648 c 0,50,51
 506 673 506 673 461 673 c 0,52,53
 402 673 402 673 349 617 c 128,-1,54
 296 561 296 561 264.5 473 c 128,-1,55
 233 385 233 385 233 293 c 0,56,57
 233 216 233 216 258 156 c 0,58,59
 272 124 272 124 299 105.5 c 128,-1,60
 326 87 326 87 364 87 c 0,61,62
 427 87 427 87 476.5 140 c 128,-1,63
 526 193 526 193 549.5 268 c 128,-1,64
 573 343 573 343 573 420 c 2,65,-1
 573 432 l 1,66,67
 570 443 570 443 570 453 c 0,68,69
 570 501 570 501 604 526 c 0,70,71
 626 542 626 542 659 542 c 0,72,73
 668 542 668 542 688 539 c 128,-1,74
 708 536 708 536 716 530 c 1,75,76
 695 529 695 529 683.5 516 c 128,-1,77
 672 503 672 503 672 481 c 128,-1,78
 672 459 672 459 692 440 c 0,79,80
 720 413 720 413 779.5 413 c 128,-1,81
 839 413 839 413 903 462 c 1,82,-1
 925 402 l 1,17,18
EndSplineSet
EndChar

StartChar: Odieresis
Encoding: 214 214 151
Width: 747
GlyphClass: 2
Flags: W
LayerCount: 2
Fore
SplineSet
298.5 935.5 m 128,-1,1
 319 957 319 957 349 957 c 128,-1,2
 379 957 379 957 400 935.5 c 128,-1,3
 421 914 421 914 421 884 c 128,-1,4
 421 854 421 854 400 833 c 128,-1,5
 379 812 379 812 349 812 c 128,-1,6
 319 812 319 812 298.5 833 c 128,-1,7
 278 854 278 854 278 884 c 128,-1,0
 278 914 278 914 298.5 935.5 c 128,-1,1
590 957 m 128,-1,9
 620 957 620 957 641 935.5 c 128,-1,10
 662 914 662 914 662 884 c 128,-1,11
 662 854 662 854 641.5 833 c 128,-1,12
 621 812 621 812 590.5 812 c 128,-1,13
 560 812 560 812 538.5 833 c 128,-1,14
 517 854 517 854 517 884 c 128,-1,15
 517 914 517 914 538.5 935.5 c 128,-1,8
 560 957 560 957 590 957 c 128,-1,9
925 402 m 1,16,17
 902 377 902 377 849 357.5 c 128,-1,18
 796 338 796 338 764.5 338 c 128,-1,19
 733 338 733 338 718 340 c 1,20,21
 693 192 693 192 590.5 93 c 128,-1,22
 488 -6 488 -6 352.5 -6 c 128,-1,23
 217 -6 217 -6 148.5 78 c 128,-1,24
 80 162 80 162 80 297 c 0,25,26
 80 385 80 385 107 468.5 c 128,-1,27
 134 552 134 552 181.5 617 c 128,-1,28
 229 682 229 682 301 721.5 c 128,-1,29
 373 761 373 761 451.5 761 c 128,-1,30
 530 761 530 761 580.5 725.5 c 128,-1,31
 631 690 631 690 631 627 c 0,32,33
 631 579 631 579 597.5 541.5 c 128,-1,34
 564 504 564 504 505 504 c 0,35,36
 474 504 474 504 450 519.5 c 128,-1,37
 426 535 426 535 426 569 c 0,38,39
 426 585 426 585 434 597 c 128,-1,40
 442 609 442 609 450 612 c 2,41,-1
 459 616 l 1,42,43
 459 576 459 576 491 576 c 0,44,45
 506 576 506 576 517 586.5 c 128,-1,46
 528 597 528 597 529 610 c 128,-1,47
 530 623 530 623 528 630.5 c 128,-1,48
 526 638 526 638 520 648 c 0,49,50
 506 673 506 673 461 673 c 0,51,52
 402 673 402 673 349 617 c 128,-1,53
 296 561 296 561 264.5 473 c 128,-1,54
 233 385 233 385 233 293 c 0,55,56
 233 216 233 216 258 156 c 0,57,58
 272 124 272 124 299 105.5 c 128,-1,59
 326 87 326 87 364 87 c 0,60,61
 427 87 427 87 476.5 140 c 128,-1,62
 526 193 526 193 549.5 268 c 128,-1,63
 573 343 573 343 573 420 c 2,64,-1
 573 432 l 1,65,66
 570 443 570 443 570 453 c 0,67,68
 570 501 570 501 604 526 c 0,69,70
 626 542 626 542 659 542 c 0,71,72
 668 542 668 542 688 539 c 128,-1,73
 708 536 708 536 716 530 c 1,74,75
 695 529 695 529 683.5 516 c 128,-1,76
 672 503 672 503 672 481 c 128,-1,77
 672 459 672 459 692 440 c 0,78,79
 720 413 720 413 779.5 413 c 128,-1,80
 839 413 839 413 903 462 c 1,81,-1
 925 402 l 1,16,17
EndSplineSet
EndChar

StartChar: multiply
Encoding: 215 215 152
Width: 383
GlyphClass: 2
Flags: W
LayerCount: 2
Fore
SplineSet
390 69 m 1,0,-1
 211 264 l 1,1,-1
 8 64 l 1,2,-1
 -47 126 l 1,3,-1
 155 325 l 1,4,-1
 -13 508 l 1,5,-1
 49 570 l 1,6,-1
 218 388 l 1,7,-1
 406 573 l 1,8,-1
 459 510 l 1,9,-1
 274 327 l 1,10,-1
 455 132 l 1,11,-1
 390 69 l 1,0,-1
EndSplineSet
EndChar

StartChar: Oslash
Encoding: 216 216 153
Width: 747
GlyphClass: 2
Flags: W
LayerCount: 2
Fore
SplineSet
925 402 m 1,0,1
 902 377 902 377 849 357.5 c 128,-1,2
 796 338 796 338 764.5 338 c 128,-1,3
 733 338 733 338 718 340 c 1,4,5
 693 192 693 192 590.5 93 c 128,-1,6
 488 -6 488 -6 346 -6 c 2,7,-1
 327 -6 l 1,8,-1
 311 -60 l 1,9,-1
 228 -60 l 1,10,-1
 249 9 l 1,11,12
 166 38 166 38 123 114.5 c 128,-1,13
 80 191 80 191 80 288 c 128,-1,14
 80 385 80 385 107 468.5 c 128,-1,15
 134 552 134 552 181.5 617 c 128,-1,16
 229 682 229 682 301 721.5 c 128,-1,17
 373 761 373 761 457 761 c 1,18,-1
 474 760 l 1,19,-1
 486 801 l 1,20,-1
 569 801 l 1,21,-1
 551 742 l 1,22,23
 631 706 631 706 631 627 c 0,24,25
 631 579 631 579 597.5 541.5 c 128,-1,26
 564 504 564 504 505 504 c 0,27,28
 493 504 493 504 481 507 c 1,29,-1
 355 87 l 1,30,-1
 364 87 l 2,31,32
 427 87 427 87 476.5 140 c 128,-1,33
 526 193 526 193 549.5 268 c 128,-1,34
 573 343 573 343 573 420 c 2,35,-1
 573 432 l 1,36,37
 570 443 570 443 570 453 c 0,38,39
 570 501 570 501 604 526 c 0,40,41
 626 542 626 542 659 542 c 0,42,43
 668 542 668 542 688 539 c 128,-1,44
 708 536 708 536 716 530 c 1,45,46
 695 529 695 529 683.5 516 c 128,-1,47
 672 503 672 503 672 481 c 128,-1,48
 672 459 672 459 692 440 c 0,49,50
 720 413 720 413 779.5 413 c 128,-1,51
 839 413 839 413 903 462 c 1,52,-1
 925 402 l 1,0,1
233 293 m 0,53,54
 233 173 233 173 282 121 c 1,55,-1
 447 672 l 1,56,57
 391 665 391 665 341 608.5 c 128,-1,58
 291 552 291 552 262 467 c 128,-1,59
 233 382 233 382 233 293 c 0,53,54
522 645 m 1,60,-1
 502 578 l 1,61,62
 527 585 527 585 530 617 c 1,63,64
 530 631 530 631 522 645 c 1,60,-1
EndSplineSet
EndChar

StartChar: Ugrave
Encoding: 217 217 154
Width: 602
GlyphClass: 2
Flags: W
LayerCount: 2
Fore
SplineSet
313 1017 m 1,0,-1
 440 830 l 1,1,2
 414 800 414 800 402 793 c 1,3,-1
 222 926 l 1,4,5
 239 950 239 950 266 978.5 c 128,-1,6
 293 1007 293 1007 313 1017 c 1,0,-1
479.5 753.5 m 128,-1,8
 512 761 512 761 541 761 c 128,-1,9
 570 761 570 761 589 753 c 1,10,11
 516 169 516 169 516 149 c 128,-1,12
 516 129 516 129 528.5 113.5 c 128,-1,13
 541 98 541 98 565 98 c 0,14,15
 631 98 631 98 683 279 c 0,16,17
 683 281 683 281 684 284 c 128,-1,18
 685 287 685 287 685 288 c 1,19,20
 729 260 729 260 742 253 c 1,21,22
 709 127 709 127 660 60.5 c 128,-1,23
 611 -6 611 -6 534 -6 c 128,-1,24
 457 -6 457 -6 430 67 c 1,25,-1
 427 67 l 1,26,27
 396 28 396 28 358 11 c 128,-1,28
 320 -6 320 -6 263 -6 c 0,29,30
 169 -6 169 -6 118.5 43 c 128,-1,31
 68 92 68 92 68 183 c 0,32,33
 68 202 68 202 71 225 c 2,34,-1
 99 459 l 1,35,36
 0 529 0 529 0 624 c 0,37,38
 0 687 0 687 38 724 c 128,-1,39
 76 761 76 761 135 761 c 0,40,41
 258 761 258 761 258 631 c 0,42,43
 258 610 258 610 255 584 c 2,44,-1
 204 193 l 2,45,46
 203 186 203 186 203 172 c 0,47,48
 203 133 203 133 221 109 c 128,-1,49
 239 85 239 85 276 85 c 0,50,51
 365 85 365 85 381 223 c 2,52,-1
 441 738 l 1,53,7
 447 746 447 746 479.5 753.5 c 128,-1,8
98 669 m 0,54,55
 64 669 64 669 64 627.5 c 128,-1,56
 64 586 64 586 110 546 c 1,57,-1
 113 572 l 2,58,59
 119 624 119 624 120 637 c 1,60,61
 120 669 120 669 98 669 c 0,54,55
EndSplineSet
EndChar

StartChar: Uacute
Encoding: 218 218 155
Width: 602
GlyphClass: 2
Flags: W
LayerCount: 2
Fore
SplineSet
274 830 m 1,0,-1
 401 1017 l 1,1,2
 421 1007 421 1007 448 978.5 c 128,-1,3
 475 950 475 950 492 926 c 1,4,-1
 312 793 l 1,5,6
 300 800 300 800 274 830 c 1,0,-1
479.5 753.5 m 128,-1,8
 512 761 512 761 541 761 c 128,-1,9
 570 761 570 761 589 753 c 1,10,11
 516 169 516 169 516 149 c 128,-1,12
 516 129 516 129 528.5 113.5 c 128,-1,13
 541 98 541 98 565 98 c 0,14,15
 631 98 631 98 683 279 c 0,16,17
 683 281 683 281 684 284 c 128,-1,18
 685 287 685 287 685 288 c 1,19,20
 729 260 729 260 742 253 c 1,21,22
 709 127 709 127 660 60.5 c 128,-1,23
 611 -6 611 -6 534 -6 c 128,-1,24
 457 -6 457 -6 430 67 c 1,25,-1
 427 67 l 1,26,27
 396 28 396 28 358 11 c 128,-1,28
 320 -6 320 -6 263 -6 c 0,29,30
 169 -6 169 -6 118.5 43 c 128,-1,31
 68 92 68 92 68 183 c 0,32,33
 68 202 68 202 71 225 c 2,34,-1
 99 459 l 1,35,36
 0 529 0 529 0 624 c 0,37,38
 0 687 0 687 38 724 c 128,-1,39
 76 761 76 761 135 761 c 0,40,41
 258 761 258 761 258 631 c 0,42,43
 258 610 258 610 255 584 c 2,44,-1
 204 193 l 2,45,46
 203 186 203 186 203 172 c 0,47,48
 203 133 203 133 221 109 c 128,-1,49
 239 85 239 85 276 85 c 0,50,51
 365 85 365 85 381 223 c 2,52,-1
 441 738 l 1,53,7
 447 746 447 746 479.5 753.5 c 128,-1,8
98 669 m 0,54,55
 64 669 64 669 64 627.5 c 128,-1,56
 64 586 64 586 110 546 c 1,57,-1
 113 572 l 2,58,59
 119 624 119 624 120 637 c 1,60,61
 120 669 120 669 98 669 c 0,54,55
EndSplineSet
EndChar

StartChar: Ucircumflex
Encoding: 219 219 156
Width: 602
GlyphClass: 2
Flags: W
LayerCount: 2
Fore
SplineSet
343 980 m 1,0,-1
 517 859 l 1,1,2
 496 820 496 820 484 801 c 1,3,-1
 343 874 l 1,4,-1
 202 801 l 1,5,6
 190 820 190 820 169 859 c 1,7,-1
 343 980 l 1,0,-1
479.5 753.5 m 128,-1,9
 512 761 512 761 541 761 c 128,-1,10
 570 761 570 761 589 753 c 1,11,12
 516 169 516 169 516 149 c 128,-1,13
 516 129 516 129 528.5 113.5 c 128,-1,14
 541 98 541 98 565 98 c 0,15,16
 631 98 631 98 683 279 c 0,17,18
 683 281 683 281 684 284 c 128,-1,19
 685 287 685 287 685 288 c 1,20,21
 729 260 729 260 742 253 c 1,22,23
 709 127 709 127 660 60.5 c 128,-1,24
 611 -6 611 -6 534 -6 c 128,-1,25
 457 -6 457 -6 430 67 c 1,26,-1
 427 67 l 1,27,28
 396 28 396 28 358 11 c 128,-1,29
 320 -6 320 -6 263 -6 c 0,30,31
 169 -6 169 -6 118.5 43 c 128,-1,32
 68 92 68 92 68 183 c 0,33,34
 68 202 68 202 71 225 c 2,35,-1
 99 459 l 1,36,37
 0 529 0 529 0 624 c 0,38,39
 0 687 0 687 38 724 c 128,-1,40
 76 761 76 761 135 761 c 0,41,42
 258 761 258 761 258 631 c 0,43,44
 258 610 258 610 255 584 c 2,45,-1
 204 193 l 2,46,47
 203 186 203 186 203 172 c 0,48,49
 203 133 203 133 221 109 c 128,-1,50
 239 85 239 85 276 85 c 0,51,52
 365 85 365 85 381 223 c 2,53,-1
 441 738 l 1,54,8
 447 746 447 746 479.5 753.5 c 128,-1,9
98 669 m 0,55,56
 64 669 64 669 64 627.5 c 128,-1,57
 64 586 64 586 110 546 c 1,58,-1
 113 572 l 2,59,60
 119 624 119 624 120 637 c 1,61,62
 120 669 120 669 98 669 c 0,55,56
EndSplineSet
EndChar

StartChar: Udieresis
Encoding: 220 220 157
Width: 602
GlyphClass: 2
Flags: W
LayerCount: 2
Fore
SplineSet
169.5 935.5 m 128,-1,1
 190 957 190 957 220 957 c 128,-1,2
 250 957 250 957 271 935.5 c 128,-1,3
 292 914 292 914 292 884 c 128,-1,4
 292 854 292 854 271 833 c 128,-1,5
 250 812 250 812 220 812 c 128,-1,6
 190 812 190 812 169.5 833 c 128,-1,7
 149 854 149 854 149 884 c 128,-1,0
 149 914 149 914 169.5 935.5 c 128,-1,1
461 957 m 128,-1,9
 491 957 491 957 512 935.5 c 128,-1,10
 533 914 533 914 533 884 c 128,-1,11
 533 854 533 854 512.5 833 c 128,-1,12
 492 812 492 812 461.5 812 c 128,-1,13
 431 812 431 812 409.5 833 c 128,-1,14
 388 854 388 854 388 884 c 128,-1,15
 388 914 388 914 409.5 935.5 c 128,-1,8
 431 957 431 957 461 957 c 128,-1,9
479.5 753.5 m 128,-1,17
 512 761 512 761 541 761 c 128,-1,18
 570 761 570 761 589 753 c 1,19,20
 516 169 516 169 516 149 c 128,-1,21
 516 129 516 129 528.5 113.5 c 128,-1,22
 541 98 541 98 565 98 c 0,23,24
 631 98 631 98 683 279 c 0,25,26
 683 281 683 281 684 284 c 128,-1,27
 685 287 685 287 685 288 c 1,28,29
 729 260 729 260 742 253 c 1,30,31
 709 127 709 127 660 60.5 c 128,-1,32
 611 -6 611 -6 534 -6 c 128,-1,33
 457 -6 457 -6 430 67 c 1,34,-1
 427 67 l 1,35,36
 396 28 396 28 358 11 c 128,-1,37
 320 -6 320 -6 263 -6 c 0,38,39
 169 -6 169 -6 118.5 43 c 128,-1,40
 68 92 68 92 68 183 c 0,41,42
 68 202 68 202 71 225 c 2,43,-1
 99 459 l 1,44,45
 0 529 0 529 0 624 c 0,46,47
 0 687 0 687 38 724 c 128,-1,48
 76 761 76 761 135 761 c 0,49,50
 258 761 258 761 258 631 c 0,51,52
 258 610 258 610 255 584 c 2,53,-1
 204 193 l 2,54,55
 203 186 203 186 203 172 c 0,56,57
 203 133 203 133 221 109 c 128,-1,58
 239 85 239 85 276 85 c 0,59,60
 365 85 365 85 381 223 c 2,61,-1
 441 738 l 1,62,16
 447 746 447 746 479.5 753.5 c 128,-1,17
98 669 m 0,63,64
 64 669 64 669 64 627.5 c 128,-1,65
 64 586 64 586 110 546 c 1,66,-1
 113 572 l 2,67,68
 119 624 119 624 120 637 c 1,69,70
 120 669 120 669 98 669 c 0,63,64
EndSplineSet
EndChar

StartChar: Yacute
Encoding: 221 221 158
Width: 644
GlyphClass: 2
Flags: W
LayerCount: 2
Fore
SplineSet
335 830 m 1,0,-1
 462 1017 l 1,1,2
 482 1007 482 1007 509 978.5 c 128,-1,3
 536 950 536 950 553 926 c 1,4,-1
 373 793 l 1,5,6
 361 800 361 800 335 830 c 1,0,-1
313 643 m 1,7,-1
 312 626 l 2,8,9
 309 579 309 579 284 394 c 0,10,11
 253 172 253 172 253 162 c 0,12,13
 253 132 253 132 272 111.5 c 128,-1,14
 291 91 291 91 322.5 91 c 128,-1,15
 354 91 354 91 380.5 112.5 c 128,-1,16
 407 134 407 134 421 164 c 1,17,-1
 477 675 l 2,18,19
 482 721 482 721 514.5 741.5 c 128,-1,20
 547 762 547 762 583 762 c 0,21,22
 607 762 607 762 633 752 c 1,23,-1
 566 198 l 1,24,25
 698 259 698 259 729 270 c 1,26,-1
 744 200 l 1,27,28
 656 164 656 164 557 117 c 1,29,-1
 532 -87 l 2,30,31
 526 -141 526 -141 505.5 -179.5 c 128,-1,32
 485 -218 485 -218 456 -238 c 0,33,34
 403 -274 403 -274 340.5 -274 c 128,-1,35
 278 -274 278 -274 236.5 -228.5 c 128,-1,36
 195 -183 195 -183 195 -119 c 128,-1,37
 195 -55 195 -55 237 -3 c 1,38,39
 184 6 184 6 149 43.5 c 128,-1,40
 114 81 114 81 114 136 c 0,41,42
 114 142 114 142 116 158 c 2,43,-1
 148 404 l 1,44,45
 25 482 25 482 25 596 c 0,46,47
 25 702 25 702 102 742 c 1,48,49
 138 762 138 762 184.5 762 c 128,-1,50
 231 762 231 762 272 732.5 c 128,-1,51
 313 703 313 703 313 643 c 1,7,-1
147 681 m 0,52,53
 123 681 123 681 107.5 658 c 128,-1,54
 92 635 92 635 92 603 c 0,55,56
 92 533 92 533 158 488 c 1,57,-1
 177 632 l 1,58,59
 177 673 177 673 157 680 c 0,60,61
 153 681 153 681 147 681 c 0,52,53
271 -106 m 0,62,63
 271 -139 271 -139 287.5 -157 c 128,-1,64
 304 -175 304 -175 327 -175 c 128,-1,65
 350 -175 350 -175 368 -158.5 c 128,-1,66
 386 -142 386 -142 390 -112 c 2,67,-1
 408 45 l 1,68,69
 271 -30 271 -30 271 -106 c 0,62,63
EndSplineSet
EndChar

StartChar: Thorn
Encoding: 222 222 159
Width: 600
GlyphClass: 2
Flags: W
LayerCount: 2
Fore
SplineSet
597 377 m 0,0,1
 597 313 597 313 563 265.5 c 128,-1,2
 529 218 529 218 482 195 c 0,3,4
 394 151 394 151 295 151 c 2,5,-1
 274 151 l 1,6,7
 359 30 359 30 359 -91 c 0,8,9
 359 -172 359 -172 317 -223 c 128,-1,10
 275 -274 275 -274 197 -274 c 0,11,12
 141 -274 141 -274 101.5 -235.5 c 128,-1,13
 62 -197 62 -197 62 -136 c 1,14,-1
 67 -86 l 1,15,-1
 97 151 l 1,16,-1
 97 155 l 1,17,18
 98 188 98 188 104 227 c 1,19,20
 43 238 43 238 1 277 c 128,-1,21
 -41 316 -41 316 -41 365 c 0,22,23
 -41 436 -41 436 8 489.5 c 128,-1,24
 57 543 57 543 144 566 c 1,25,26
 162 727 162 727 166 753 c 1,27,28
 187 761 187 761 222 761 c 0,29,30
 302 761 302 761 302 715 c 1,31,-1
 285 581 l 1,32,33
 446 578 446 578 521.5 517.5 c 128,-1,34
 597 457 597 457 597 377 c 0,0,1
277 225 m 0,35,36
 353 225 353 225 404 256.5 c 128,-1,37
 455 288 455 288 455 360 c 0,38,39
 455 414 455 414 407 449.5 c 128,-1,40
 359 485 359 485 273 489 c 1,41,-1
 237 198 l 1,42,43
 248 186 248 186 264 164 c 1,44,-1
 272 225 l 1,45,46
 274 225 274 225 277 225 c 0,35,36
49 366 m 0,47,48
 49 342 49 342 66.5 325 c 128,-1,49
 84 308 84 308 113 301 c 1,50,-1
 133 469 l 1,51,52
 49 435 49 435 49 366 c 0,47,48
200 -112 m 2,53,54
 199 -118 199 -118 199 -135 c 128,-1,55
 199 -152 199 -152 209.5 -167 c 128,-1,56
 220 -182 220 -182 237 -182 c 128,-1,57
 254 -182 254 -182 271 -161.5 c 128,-1,58
 288 -141 288 -141 288 -93 c 0,59,60
 288 -8 288 -8 223 84 c 1,61,-1
 200 -112 l 2,53,54
EndSplineSet
EndChar

StartChar: germandbls
Encoding: 223 223 160
Width: 576
GlyphClass: 2
Flags: W
LayerCount: 2
Fore
SplineSet
301 -154 m 0,0,1
 301 -246 301 -246 254.5 -294.5 c 128,-1,2
 208 -343 208 -343 151.5 -343 c 128,-1,3
 95 -343 95 -343 57.5 -309 c 128,-1,4
 20 -275 20 -275 20 -208 c 0,5,6
 20 -192 20 -192 112 591 c 0,7,8
 120 661 120 661 168.5 711 c 128,-1,9
 217 761 217 761 302.5 761 c 128,-1,10
 388 761 388 761 449 720 c 128,-1,11
 510 679 510 679 510 615 c 0,12,13
 510 569 510 569 483 533.5 c 128,-1,14
 456 498 456 498 428 480 c 0,15,16
 356 431 356 431 356 402 c 0,17,18
 356 389 356 389 362.5 383.5 c 128,-1,19
 369 378 369 378 371.5 376 c 128,-1,20
 374 374 374 374 380 370 c 0,21,22
 392 362 392 362 402.5 355 c 128,-1,23
 413 348 413 348 435 333 c 128,-1,24
 457 318 457 318 474 305 c 128,-1,25
 491 292 491 292 512 270 c 0,26,27
 551 229 551 229 551 157.5 c 128,-1,28
 551 86 551 86 493 40 c 128,-1,29
 435 -6 435 -6 347 -6 c 0,30,31
 286 -6 286 -6 241.5 26.5 c 128,-1,32
 197 59 197 59 197 108 c 128,-1,33
 197 157 197 157 230 180.5 c 128,-1,34
 263 204 263 204 293 204 c 0,35,36
 304 204 304 204 306 202 c 1,37,38
 297 199 297 199 290 184 c 128,-1,39
 283 169 283 169 283 146 c 128,-1,40
 283 123 283 123 299.5 105 c 128,-1,41
 316 87 316 87 342 87 c 128,-1,42
 368 87 368 87 386.5 103.5 c 128,-1,43
 405 120 405 120 407 151 c 1,44,45
 407 185 407 185 389 211 c 128,-1,46
 371 237 371 237 324.5 281 c 128,-1,47
 278 325 278 325 278 367 c 128,-1,48
 278 409 278 409 300.5 448 c 128,-1,49
 323 487 323 487 348 531 c 128,-1,50
 373 575 373 575 373 609 c 128,-1,51
 373 643 373 643 359 657 c 0,52,53
 343 673 343 673 323.5 673 c 128,-1,54
 304 673 304 673 292 667 c 128,-1,55
 280 661 280 661 271.5 647 c 128,-1,56
 263 633 263 633 257 610 c 0,57,58
 249 578 249 578 243.5 529 c 128,-1,59
 238 480 238 480 232.5 430.5 c 128,-1,60
 227 381 227 381 211 265.5 c 128,-1,61
 195 150 195 150 190 107 c 2,62,-1
 183 49 l 1,63,64
 301 -41 301 -41 301 -154 c 0,0,1
153 -205 m 0,65,66
 153 -252 153 -252 193 -252 c 0,67,68
 209 -252 209 -252 223.5 -230 c 128,-1,69
 238 -208 238 -208 238 -168 c 0,70,71
 238 -88 238 -88 175 -22 c 1,72,-1
 154 -186 l 2,73,74
 153 -193 153 -193 153 -205 c 0,65,66
EndSplineSet
EndChar

StartChar: agrave
Encoding: 224 224 161
Width: 548
GlyphClass: 2
Flags: W
LayerCount: 2
Fore
SplineSet
306 737 m 1,0,-1
 433 550 l 1,1,2
 407 520 407 520 395 513 c 1,3,-1
 215 646 l 1,4,5
 232 670 232 670 259 698.5 c 128,-1,6
 286 727 286 727 306 737 c 1,0,-1
478 -5 m 0,7,8
 386 -5 386 -5 356 59 c 1,9,10
 304 -6 304 -6 222.5 -6 c 128,-1,11
 141 -6 141 -6 85.5 49 c 128,-1,12
 30 104 30 104 30 194 c 0,13,14
 30 325 30 325 107 403 c 128,-1,15
 184 481 184 481 302 481 c 0,16,17
 305 481 305 481 308 481 c 0,18,19
 358 481 358 481 400 464 c 1,20,21
 427 481 427 481 465.5 481 c 128,-1,22
 504 481 504 481 521 471 c 1,23,24
 512 397 512 397 502 325.5 c 128,-1,25
 492 254 492 254 488 224 c 0,26,27
 479 156 479 156 479 126 c 0,28,29
 479 86 479 86 511 86 c 0,30,31
 536 86 536 86 564 119.5 c 128,-1,32
 592 153 592 153 613 225 c 1,33,34
 642 199 642 199 653 167 c 1,35,36
 624 72 624 72 575 33.5 c 128,-1,37
 526 -5 526 -5 478 -5 c 0,7,8
317 403 m 0,38,39
 253 403 253 403 215.5 354.5 c 128,-1,40
 178 306 178 306 171 210 c 0,41,42
 170 201 170 201 170 193 c 0,43,44
 170 144 170 144 193.5 115 c 128,-1,45
 217 86 217 86 254 86 c 0,46,47
 317 86 317 86 349 175 c 1,48,-1
 373 391 l 1,49,50
 344 403 344 403 317 403 c 0,38,39
EndSplineSet
EndChar

StartChar: aacute
Encoding: 225 225 162
Width: 548
GlyphClass: 2
Flags: W
LayerCount: 2
Fore
SplineSet
267 550 m 1,0,-1
 394 737 l 1,1,2
 414 727 414 727 441 698.5 c 128,-1,3
 468 670 468 670 485 646 c 1,4,-1
 305 513 l 1,5,6
 293 520 293 520 267 550 c 1,0,-1
478 -5 m 0,7,8
 386 -5 386 -5 356 59 c 1,9,10
 304 -6 304 -6 222.5 -6 c 128,-1,11
 141 -6 141 -6 85.5 49 c 128,-1,12
 30 104 30 104 30 194 c 0,13,14
 30 325 30 325 107 403 c 128,-1,15
 184 481 184 481 302 481 c 0,16,17
 305 481 305 481 308 481 c 0,18,19
 358 481 358 481 400 464 c 1,20,21
 427 481 427 481 465.5 481 c 128,-1,22
 504 481 504 481 521 471 c 1,23,24
 512 397 512 397 502 325.5 c 128,-1,25
 492 254 492 254 488 224 c 0,26,27
 479 156 479 156 479 126 c 0,28,29
 479 86 479 86 511 86 c 0,30,31
 536 86 536 86 564 119.5 c 128,-1,32
 592 153 592 153 613 225 c 1,33,34
 642 199 642 199 653 167 c 1,35,36
 624 72 624 72 575 33.5 c 128,-1,37
 526 -5 526 -5 478 -5 c 0,7,8
317 403 m 0,38,39
 253 403 253 403 215.5 354.5 c 128,-1,40
 178 306 178 306 171 210 c 0,41,42
 170 201 170 201 170 193 c 0,43,44
 170 144 170 144 193.5 115 c 128,-1,45
 217 86 217 86 254 86 c 0,46,47
 317 86 317 86 349 175 c 1,48,-1
 373 391 l 1,49,50
 344 403 344 403 317 403 c 0,38,39
EndSplineSet
EndChar

StartChar: acircumflex
Encoding: 226 226 163
Width: 548
GlyphClass: 2
Flags: W
LayerCount: 2
Fore
SplineSet
336 700 m 1,0,-1
 510 579 l 1,1,2
 489 540 489 540 477 521 c 1,3,-1
 336 594 l 1,4,-1
 195 521 l 1,5,6
 183 540 183 540 162 579 c 1,7,-1
 336 700 l 1,0,-1
478 -5 m 0,8,9
 386 -5 386 -5 356 59 c 1,10,11
 304 -6 304 -6 222.5 -6 c 128,-1,12
 141 -6 141 -6 85.5 49 c 128,-1,13
 30 104 30 104 30 194 c 0,14,15
 30 325 30 325 107 403 c 128,-1,16
 184 481 184 481 302 481 c 0,17,18
 305 481 305 481 308 481 c 0,19,20
 358 481 358 481 400 464 c 1,21,22
 427 481 427 481 465.5 481 c 128,-1,23
 504 481 504 481 521 471 c 1,24,25
 512 397 512 397 502 325.5 c 128,-1,26
 492 254 492 254 488 224 c 0,27,28
 479 156 479 156 479 126 c 0,29,30
 479 86 479 86 511 86 c 0,31,32
 536 86 536 86 564 119.5 c 128,-1,33
 592 153 592 153 613 225 c 1,34,35
 642 199 642 199 653 167 c 1,36,37
 624 72 624 72 575 33.5 c 128,-1,38
 526 -5 526 -5 478 -5 c 0,8,9
317 403 m 0,39,40
 253 403 253 403 215.5 354.5 c 128,-1,41
 178 306 178 306 171 210 c 0,42,43
 170 201 170 201 170 193 c 0,44,45
 170 144 170 144 193.5 115 c 128,-1,46
 217 86 217 86 254 86 c 0,47,48
 317 86 317 86 349 175 c 1,49,-1
 373 391 l 1,50,51
 344 403 344 403 317 403 c 0,39,40
EndSplineSet
EndChar

StartChar: atilde
Encoding: 227 227 164
Width: 548
GlyphClass: 2
Flags: W
LayerCount: 2
Fore
SplineSet
518.5 565.5 m 128,-1,1
 484 524 484 524 437 524 c 128,-1,2
 390 524 390 524 338 561 c 0,3,4
 283 599 283 599 261 599 c 128,-1,5
 239 599 239 599 223 586.5 c 128,-1,6
 207 574 207 574 191 540 c 1,7,-1
 147 566 l 1,8,9
 160 624 160 624 192 661.5 c 128,-1,10
 224 699 224 699 270 699 c 0,11,12
 311 699 311 699 366 664 c 128,-1,13
 421 629 421 629 444 629 c 0,14,15
 490 629 490 629 518 697 c 1,16,-1
 562 672 l 1,17,0
 553 607 553 607 518.5 565.5 c 128,-1,1
478 -5 m 0,18,19
 386 -5 386 -5 356 59 c 1,20,21
 304 -6 304 -6 222.5 -6 c 128,-1,22
 141 -6 141 -6 85.5 49 c 128,-1,23
 30 104 30 104 30 194 c 0,24,25
 30 325 30 325 107 403 c 128,-1,26
 184 481 184 481 302 481 c 0,27,28
 305 481 305 481 308 481 c 0,29,30
 358 481 358 481 400 464 c 1,31,32
 427 481 427 481 465.5 481 c 128,-1,33
 504 481 504 481 521 471 c 1,34,35
 512 397 512 397 502 325.5 c 128,-1,36
 492 254 492 254 488 224 c 0,37,38
 479 156 479 156 479 126 c 0,39,40
 479 86 479 86 511 86 c 0,41,42
 536 86 536 86 564 119.5 c 128,-1,43
 592 153 592 153 613 225 c 1,44,45
 642 199 642 199 653 167 c 1,46,47
 624 72 624 72 575 33.5 c 128,-1,48
 526 -5 526 -5 478 -5 c 0,18,19
317 403 m 0,49,50
 253 403 253 403 215.5 354.5 c 128,-1,51
 178 306 178 306 171 210 c 0,52,53
 170 201 170 201 170 193 c 0,54,55
 170 144 170 144 193.5 115 c 128,-1,56
 217 86 217 86 254 86 c 0,57,58
 317 86 317 86 349 175 c 1,59,-1
 373 391 l 1,60,61
 344 403 344 403 317 403 c 0,49,50
EndSplineSet
EndChar

StartChar: adieresis
Encoding: 228 228 165
Width: 548
GlyphClass: 2
Flags: W
LayerCount: 2
Fore
SplineSet
264 553 m 128,-1,1
 243 532 243 532 213 532 c 128,-1,2
 183 532 183 532 162.5 553 c 128,-1,3
 142 574 142 574 142 604 c 128,-1,4
 142 634 142 634 162.5 655.5 c 128,-1,5
 183 677 183 677 213 677 c 128,-1,6
 243 677 243 677 264 655.5 c 128,-1,7
 285 634 285 634 285 604 c 128,-1,0
 285 574 285 574 264 553 c 128,-1,1
505.5 553 m 128,-1,9
 485 532 485 532 454.5 532 c 128,-1,10
 424 532 424 532 402.5 553 c 128,-1,11
 381 574 381 574 381 604 c 128,-1,12
 381 634 381 634 402.5 655.5 c 128,-1,13
 424 677 424 677 454 677 c 128,-1,14
 484 677 484 677 505 655.5 c 128,-1,15
 526 634 526 634 526 604 c 128,-1,8
 526 574 526 574 505.5 553 c 128,-1,9
478 -5 m 0,16,17
 386 -5 386 -5 356 59 c 1,18,19
 304 -6 304 -6 222.5 -6 c 128,-1,20
 141 -6 141 -6 85.5 49 c 128,-1,21
 30 104 30 104 30 194 c 0,22,23
 30 325 30 325 107 403 c 128,-1,24
 184 481 184 481 302 481 c 0,25,26
 305 481 305 481 308 481 c 0,27,28
 358 481 358 481 400 464 c 1,29,30
 427 481 427 481 465.5 481 c 128,-1,31
 504 481 504 481 521 471 c 1,32,33
 512 397 512 397 502 325.5 c 128,-1,34
 492 254 492 254 488 224 c 0,35,36
 479 156 479 156 479 126 c 0,37,38
 479 86 479 86 511 86 c 0,39,40
 536 86 536 86 564 119.5 c 128,-1,41
 592 153 592 153 613 225 c 1,42,43
 642 199 642 199 653 167 c 1,44,45
 624 72 624 72 575 33.5 c 128,-1,46
 526 -5 526 -5 478 -5 c 0,16,17
317 403 m 0,47,48
 253 403 253 403 215.5 354.5 c 128,-1,49
 178 306 178 306 171 210 c 0,50,51
 170 201 170 201 170 193 c 0,52,53
 170 144 170 144 193.5 115 c 128,-1,54
 217 86 217 86 254 86 c 0,55,56
 317 86 317 86 349 175 c 1,57,-1
 373 391 l 1,58,59
 344 403 344 403 317 403 c 0,47,48
EndSplineSet
EndChar

StartChar: aring
Encoding: 229 229 166
Width: 548
GlyphClass: 2
Flags: W
LayerCount: 2
Fore
SplineSet
377 471 m 1,0,-1
 400 464 l 1,1,2
 427 481 427 481 465.5 481 c 128,-1,3
 504 481 504 481 521 471 c 1,4,5
 512 397 512 397 502 325.5 c 128,-1,6
 492 254 492 254 488 224 c 0,7,8
 479 156 479 156 479 126 c 0,9,10
 479 86 479 86 511 86 c 0,11,12
 536 86 536 86 564 119.5 c 128,-1,13
 592 153 592 153 613 225 c 1,14,15
 642 199 642 199 653 167 c 1,16,17
 624 72 624 72 575 33.5 c 128,-1,18
 526 -5 526 -5 478 -5 c 0,19,20
 386 -5 386 -5 356 59 c 1,21,22
 304 -6 304 -6 222.5 -6 c 128,-1,23
 141 -6 141 -6 85.5 49 c 128,-1,24
 30 104 30 104 30 194 c 0,25,26
 30 310 30 310 92 386 c 128,-1,27
 154 462 154 462 256 478 c 1,28,29
 216 510 216 510 216 557 c 128,-1,30
 216 604 216 604 247 634.5 c 128,-1,31
 278 665 278 665 321 665 c 128,-1,32
 364 665 364 665 395 634.5 c 128,-1,33
 426 604 426 604 426 560 c 0,34,35
 426 502 426 502 377 471 c 1,0,-1
321 609 m 128,-1,37
 301 609 301 609 286.5 594.5 c 128,-1,38
 272 580 272 580 272 560 c 128,-1,39
 272 540 272 540 286.5 525.5 c 128,-1,40
 301 511 301 511 321 511 c 128,-1,41
 341 511 341 511 355.5 525.5 c 128,-1,42
 370 540 370 540 370 560 c 128,-1,43
 370 580 370 580 355.5 594.5 c 128,-1,36
 341 609 341 609 321 609 c 128,-1,37
317 403 m 0,44,45
 253 403 253 403 215.5 354.5 c 128,-1,46
 178 306 178 306 171 210 c 0,47,48
 170 201 170 201 170 193 c 0,49,50
 170 144 170 144 193.5 115 c 128,-1,51
 217 86 217 86 254 86 c 0,52,53
 317 86 317 86 349 175 c 1,54,-1
 373 391 l 1,55,56
 344 403 344 403 317 403 c 0,44,45
EndSplineSet
EndChar

StartChar: ae
Encoding: 230 230 167
Width: 1014
GlyphClass: 2
Flags: W
LayerCount: 2
Fore
SplineSet
650.5 274 m 128,-1,1
 681 311 681 311 681 345.5 c 128,-1,2
 681 380 681 380 662.5 392.5 c 128,-1,3
 644 405 644 405 622 405 c 0,4,5
 575 405 575 405 539.5 352.5 c 128,-1,6
 504 300 504 300 504 227.5 c 128,-1,7
 504 155 504 155 538.5 119.5 c 128,-1,8
 573 84 573 84 624 84 c 0,9,10
 699 84 699 84 768 136 c 128,-1,11
 837 188 837 188 880 272 c 1,12,13
 902 251 902 251 920 220 c 1,14,15
 887 145 887 145 802 73 c 0,16,17
 761 38 761 38 703.5 16 c 128,-1,18
 646 -6 646 -6 585 -6 c 0,19,20
 451 -6 451 -6 393 102 c 1,21,22
 338 -6 338 -6 225 -6 c 0,23,24
 151 -6 151 -6 95.5 49 c 128,-1,25
 40 104 40 104 40 194 c 0,26,27
 40 325 40 325 117 403 c 128,-1,28
 194 481 194 481 312 481 c 0,29,30
 315 481 315 481 318 481 c 0,31,32
 368 481 368 481 410 464 c 1,33,34
 437 481 437 481 475.5 481 c 128,-1,35
 514 481 514 481 531 471 c 1,36,-1
 530 462 l 1,37,38
 579 481 579 481 628 481 c 0,39,40
 705 481 705 481 753 447.5 c 128,-1,41
 801 414 801 414 802 357 c 1,42,43
 802 280 802 280 740.5 232 c 128,-1,44
 679 184 679 184 572 165 c 1,45,-1
 558 224 l 1,46,0
 620 237 620 237 650.5 274 c 128,-1,1
327 403 m 0,47,48
 263 403 263 403 225.5 354.5 c 128,-1,49
 188 306 188 306 181 210 c 0,50,51
 180 201 180 201 180 193 c 0,52,53
 180 144 180 144 203.5 115 c 128,-1,54
 227 86 227 86 264 86 c 0,55,56
 327 86 327 86 359 175 c 1,57,-1
 365 227 l 1,58,59
 365 242 365 242 369 268 c 1,60,-1
 383 391 l 1,61,62
 354 403 354 403 327 403 c 0,47,48
EndSplineSet
EndChar

StartChar: ccedilla
Encoding: 231 231 168
Width: 469
GlyphClass: 2
Flags: W
LayerCount: 2
Fore
SplineSet
346 339 m 0,0,1
 346 404 346 404 288 404 c 0,2,3
 245 404 245 404 211 355 c 0,4,5
 175 302 175 302 175 231 c 128,-1,6
 175 160 175 160 206.5 121.5 c 128,-1,7
 238 83 238 83 293 83 c 0,8,9
 359 83 359 83 432.5 137 c 128,-1,10
 506 191 506 191 551 271 c 1,11,12
 571 256 571 256 590 216 c 1,13,14
 565 164 565 164 490 92 c 1,15,16
 451 56 451 56 394.5 28.5 c 128,-1,17
 338 1 338 1 278 -5 c 1,18,-1
 267 -33 l 1,19,-1
 273 -32 l 1,20,21
 310 -32 310 -32 339.5 -56 c 128,-1,22
 369 -80 369 -80 369 -126 c 128,-1,23
 369 -172 369 -172 334.5 -201 c 128,-1,24
 300 -230 300 -230 256 -230 c 0,25,26
 185 -230 185 -230 151 -182 c 1,27,-1
 169 -144 l 1,28,29
 178 -158 178 -158 200.5 -171 c 128,-1,30
 223 -184 223 -184 245 -184 c 128,-1,31
 267 -184 267 -184 281.5 -167.5 c 128,-1,32
 296 -151 296 -151 296 -125.5 c 128,-1,33
 296 -100 296 -100 276.5 -85 c 128,-1,34
 257 -70 257 -70 229 -70 c 128,-1,35
 201 -70 201 -70 196 -71 c 1,36,-1
 221 -5 l 1,37,38
 140 5 140 5 88 65 c 128,-1,39
 36 125 36 125 36 214 c 0,40,41
 36 333 36 333 116 407 c 128,-1,42
 196 481 196 481 295 481 c 0,43,44
 372 481 372 481 417 449 c 128,-1,45
 462 417 462 417 462 365 c 0,46,47
 462 331 462 331 438 306 c 0,48,49
 394 262 394 262 331 262 c 1,50,51
 346 312 346 312 346 339 c 0,0,1
EndSplineSet
EndChar

StartChar: egrave
Encoding: 232 232 169
Width: 466
GlyphClass: 2
Flags: W
LayerCount: 2
Fore
SplineSet
265 737 m 1,0,-1
 392 550 l 1,1,2
 366 520 366 520 354 513 c 1,3,-1
 174 646 l 1,4,5
 191 670 191 670 218 698.5 c 128,-1,6
 245 727 245 727 265 737 c 1,0,-1
311.5 274 m 128,-1,8
 342 311 342 311 342 345.5 c 128,-1,9
 342 380 342 380 323.5 392.5 c 128,-1,10
 305 405 305 405 283 405 c 0,11,12
 236 405 236 405 200.5 352.5 c 128,-1,13
 165 300 165 300 165 227.5 c 128,-1,14
 165 155 165 155 199.5 119.5 c 128,-1,15
 234 84 234 84 285 84 c 0,16,17
 360 84 360 84 429 136 c 128,-1,18
 498 188 498 188 541 272 c 1,19,20
 563 251 563 251 581 220 c 1,21,22
 548 145 548 145 464 73 c 0,23,24
 422 38 422 38 364.5 16 c 128,-1,25
 307 -6 307 -6 246 -6 c 0,26,27
 146 -6 146 -6 88 55 c 0,28,29
 26 121 26 121 26 224 c 128,-1,30
 26 327 26 327 103.5 404 c 128,-1,31
 181 481 181 481 289 481 c 0,32,33
 366 481 366 481 414 447.5 c 128,-1,34
 462 414 462 414 463 357 c 1,35,36
 463 280 463 280 401.5 232 c 128,-1,37
 340 184 340 184 233 165 c 1,38,-1
 219 224 l 1,39,7
 281 237 281 237 311.5 274 c 128,-1,8
EndSplineSet
EndChar

StartChar: eacute
Encoding: 233 233 170
Width: 466
GlyphClass: 2
Flags: W
LayerCount: 2
Fore
SplineSet
226 550 m 1,0,-1
 353 737 l 1,1,2
 373 727 373 727 400 698.5 c 128,-1,3
 427 670 427 670 444 646 c 1,4,-1
 264 513 l 1,5,6
 252 520 252 520 226 550 c 1,0,-1
311.5 274 m 128,-1,8
 342 311 342 311 342 345.5 c 128,-1,9
 342 380 342 380 323.5 392.5 c 128,-1,10
 305 405 305 405 283 405 c 0,11,12
 236 405 236 405 200.5 352.5 c 128,-1,13
 165 300 165 300 165 227.5 c 128,-1,14
 165 155 165 155 199.5 119.5 c 128,-1,15
 234 84 234 84 285 84 c 0,16,17
 360 84 360 84 429 136 c 128,-1,18
 498 188 498 188 541 272 c 1,19,20
 563 251 563 251 581 220 c 1,21,22
 548 145 548 145 464 73 c 0,23,24
 422 38 422 38 364.5 16 c 128,-1,25
 307 -6 307 -6 246 -6 c 0,26,27
 146 -6 146 -6 88 55 c 0,28,29
 26 121 26 121 26 224 c 128,-1,30
 26 327 26 327 103.5 404 c 128,-1,31
 181 481 181 481 289 481 c 0,32,33
 366 481 366 481 414 447.5 c 128,-1,34
 462 414 462 414 463 357 c 1,35,36
 463 280 463 280 401.5 232 c 128,-1,37
 340 184 340 184 233 165 c 1,38,-1
 219 224 l 1,39,7
 281 237 281 237 311.5 274 c 128,-1,8
EndSplineSet
EndChar

StartChar: ecircumflex
Encoding: 234 234 171
Width: 466
GlyphClass: 2
Flags: W
LayerCount: 2
Fore
SplineSet
295 700 m 1,0,-1
 469 579 l 1,1,2
 448 540 448 540 436 521 c 1,3,-1
 295 594 l 1,4,-1
 154 521 l 1,5,6
 142 540 142 540 121 579 c 1,7,-1
 295 700 l 1,0,-1
311.5 274 m 128,-1,9
 342 311 342 311 342 345.5 c 128,-1,10
 342 380 342 380 323.5 392.5 c 128,-1,11
 305 405 305 405 283 405 c 0,12,13
 236 405 236 405 200.5 352.5 c 128,-1,14
 165 300 165 300 165 227.5 c 128,-1,15
 165 155 165 155 199.5 119.5 c 128,-1,16
 234 84 234 84 285 84 c 0,17,18
 360 84 360 84 429 136 c 128,-1,19
 498 188 498 188 541 272 c 1,20,21
 563 251 563 251 581 220 c 1,22,23
 548 145 548 145 464 73 c 0,24,25
 422 38 422 38 364.5 16 c 128,-1,26
 307 -6 307 -6 246 -6 c 0,27,28
 146 -6 146 -6 88 55 c 0,29,30
 26 121 26 121 26 224 c 128,-1,31
 26 327 26 327 103.5 404 c 128,-1,32
 181 481 181 481 289 481 c 0,33,34
 366 481 366 481 414 447.5 c 128,-1,35
 462 414 462 414 463 357 c 1,36,37
 463 280 463 280 401.5 232 c 128,-1,38
 340 184 340 184 233 165 c 1,39,-1
 219 224 l 1,40,8
 281 237 281 237 311.5 274 c 128,-1,9
EndSplineSet
EndChar

